<svg xmlns="http://www.w3.org/2000/svg" xmlns:xlink="http://www.w3.org/1999/xlink" width="500" zoomAndPan="magnify" viewBox="0 0 375 374.999991" height="500" preserveAspectRatio="xMidYMid meet" version="1.0"><defs><clipPath id="d02b2dcc3c"><path d="M 44.144531 70.484375 L 337.394531 70.484375 L 337.394531 309.734375 L 44.144531 309.734375 Z M 44.144531 70.484375 " clip-rule="nonzero"/></clipPath><clipPath id="0529c20c63"><path d="M 133 131 L 337.394531 131 L 337.394531 309.734375 L 133 309.734375 Z M 133 131 " clip-rule="nonzero"/></clipPath><clipPath id="b64db64619"><path d="M 133 219 L 236 219 L 236 309.734375 L 133 309.734375 Z M 133 219 " clip-rule="nonzero"/></clipPath><clipPath id="8069cc6213"><path d="M 44.144531 160 L 241 160 L 241 309.734375 L 44.144531 309.734375 Z M 44.144531 160 " clip-rule="nonzero"/></clipPath></defs><rect x="-37.5" width="450" fill="#ffffff" y="-37.499999" height="449.999989" fill-opacity="1"/><rect x="-37.5" width="450" fill="#ffffff" y="-37.499999" height="449.999989" fill-opacity="1"/><g clip-path="url(#d02b2dcc3c)"><path fill="#c2dff6" d="M 337.386719 309.621094 L 44.140625 309.621094 L 44.140625 70.582031 L 337.386719 70.582031 L 337.386719 309.621094 " fill-opacity="1" fill-rule="nonzero"/></g><g clip-path="url(#0529c20c63)"><path fill="#00ccb3" d="M 337.386719 200.894531 L 273.09375 131.859375 L 133.527344 309.621094 L 337.386719 309.621094 L 337.386719 200.894531 " fill-opacity="1" fill-rule="nonzero"/></g><g clip-path="url(#b64db64619)"><path fill="#00bfb3" d="M 235.457031 309.621094 L 204.59375 219.105469 L 133.527344 309.621094 Z M 235.457031 309.621094 " fill-opacity="1" fill-rule="nonzero"/></g><g clip-path="url(#8069cc6213)"><path fill="#00ccb3" d="M 44.140625 309.621094 L 44.140625 240.210938 L 117.84375 160.273438 L 240.160156 309.621094 L 44.140625 309.621094 " fill-opacity="1" fill-rule="nonzero"/></g><path fill="#ffd008" d="M 200.367188 120.21875 C 200.367188 104.148438 187.335938 91.121094 171.257812 91.121094 C 155.183594 91.121094 142.152344 104.148438 142.152344 120.21875 C 142.152344 136.285156 155.183594 149.3125 171.257812 149.3125 C 187.335938 149.3125 200.367188 136.285156 200.367188 120.21875 " fill-opacity="1" fill-rule="nonzero"/></svg>