<svg xmlns="http://www.w3.org/2000/svg" xmlns:xlink="http://www.w3.org/1999/xlink" width="500" zoomAndPan="magnify" viewBox="0 0 375 374.999991" height="500" preserveAspectRatio="xMidYMid meet" version="1.0"><defs><clipPath id="46c2fb606f"><path d="M 37.5 7.050781 L 337.5 7.050781 L 337.5 367.800781 L 37.5 367.800781 Z M 37.5 7.050781 " clip-rule="nonzero"/></clipPath></defs><g clip-path="url(#46c2fb606f)"><path fill="#2e2d2d" d="M 280.203125 317.730469 C 281.621094 317.730469 282.6875 318.792969 282.6875 320.214844 L 282.6875 327.316406 C 282.6875 328.738281 281.621094 329.804688 280.203125 329.804688 L 276.292969 329.804688 L 276.292969 335.839844 C 276.292969 337.261719 275.226562 338.328125 273.804688 338.328125 L 263.148438 338.328125 C 261.726562 338.328125 260.660156 337.261719 260.660156 335.839844 L 260.660156 329.804688 L 232.945312 329.804688 C 231.527344 329.804688 230.457031 328.738281 230.457031 327.316406 L 230.457031 321.28125 C 230.457031 318.082031 231.882812 316.664062 232.945312 315.597656 L 256.394531 291.089844 C 257.460938 290.027344 258.882812 288.605469 262.082031 288.605469 L 273.804688 288.605469 C 275.226562 288.605469 276.292969 289.671875 276.292969 291.089844 L 276.292969 317.730469 Z M 174.679688 335.839844 L 174.679688 291.089844 C 174.679688 289.671875 175.746094 288.605469 177.167969 288.605469 L 202.039062 288.605469 C 218.734375 288.605469 226.554688 296.417969 226.554688 306.71875 C 226.554688 317.019531 218.734375 324.832031 202.039062 324.832031 L 190.3125 324.832031 L 190.3125 335.839844 C 190.3125 337.261719 189.246094 338.328125 187.824219 338.328125 L 177.167969 338.328125 C 175.746094 338.328125 174.679688 337.261719 174.679688 335.839844 Z M 147.679688 312.402344 L 138.160156 335.839844 C 137.730469 336.90625 136.382812 338.328125 134.25 338.328125 L 125.652344 338.328125 C 123.519531 338.328125 122.171875 336.90625 121.742188 335.839844 L 112.152344 312.402344 L 111.441406 312.402344 L 111.441406 335.839844 C 111.441406 337.261719 110.375 338.328125 108.953125 338.328125 L 98.292969 338.328125 C 96.871094 338.328125 95.808594 337.261719 95.808594 335.839844 L 95.808594 291.089844 C 95.808594 289.671875 96.871094 288.605469 98.292969 288.605469 L 113.21875 288.605469 C 115.347656 288.605469 116.699219 290.027344 117.125 291.089844 L 129.5625 321.28125 L 130.269531 321.28125 L 142.707031 291.089844 C 143.132812 290.027344 144.484375 288.605469 146.613281 288.605469 L 161.539062 288.605469 C 162.960938 288.605469 164.023438 289.671875 164.023438 291.089844 L 164.023438 335.839844 C 164.023438 337.261719 162.960938 338.328125 161.539062 338.328125 L 150.878906 338.328125 C 149.457031 338.328125 148.390625 337.261719 148.390625 335.839844 L 148.390625 312.402344 Z M 108.496094 87.398438 C 113.675781 87.398438 117.871094 83.203125 117.871094 78.027344 L 117.871094 25.789062 L 318.703125 25.789062 L 318.703125 268.476562 L 56.238281 268.476562 L 56.238281 87.398438 Z M 99.121094 39.039062 L 99.121094 68.65625 L 69.492188 68.65625 Z M 328.078125 7.050781 L 108.496094 7.050781 C 108.449219 7.050781 108.398438 7.054688 108.347656 7.054688 C 108.140625 7.058594 107.929688 7.070312 107.71875 7.089844 C 107.640625 7.09375 107.558594 7.097656 107.476562 7.109375 C 107.207031 7.136719 106.933594 7.175781 106.664062 7.230469 C 106.652344 7.234375 106.636719 7.238281 106.621094 7.238281 C 106.367188 7.292969 106.113281 7.355469 105.863281 7.429688 C 105.785156 7.453125 105.707031 7.480469 105.628906 7.503906 C 105.433594 7.566406 105.242188 7.636719 105.050781 7.710938 C 104.976562 7.738281 104.90625 7.765625 104.835938 7.796875 C 104.582031 7.902344 104.332031 8.019531 104.089844 8.148438 C 104.074219 8.15625 104.0625 8.164062 104.046875 8.171875 C 103.820312 8.292969 103.597656 8.429688 103.378906 8.574219 C 103.3125 8.617188 103.242188 8.664062 103.175781 8.710938 C 103.007812 8.828125 102.84375 8.949219 102.683594 9.078125 C 102.617188 9.128906 102.554688 9.179688 102.492188 9.230469 C 102.277344 9.410156 102.066406 9.59375 101.867188 9.792969 L 40.234375 71.402344 C 40.035156 71.601562 39.851562 71.8125 39.671875 72.027344 C 39.621094 72.085938 39.570312 72.148438 39.519531 72.210938 C 39.390625 72.375 39.265625 72.542969 39.148438 72.714844 C 39.105469 72.777344 39.058594 72.84375 39.015625 72.910156 C 38.871094 73.132812 38.734375 73.359375 38.609375 73.589844 C 38.605469 73.601562 38.597656 73.609375 38.59375 73.617188 C 38.460938 73.863281 38.34375 74.117188 38.238281 74.371094 C 38.207031 74.441406 38.183594 74.511719 38.15625 74.578125 C 38.078125 74.773438 38.007812 74.96875 37.945312 75.167969 C 37.917969 75.242188 37.894531 75.316406 37.871094 75.394531 C 37.796875 75.648438 37.730469 75.90625 37.675781 76.167969 C 37.675781 76.175781 37.671875 76.1875 37.671875 76.195312 C 37.617188 76.464844 37.578125 76.738281 37.546875 77.011719 C 37.539062 77.089844 37.535156 77.167969 37.527344 77.246094 C 37.511719 77.457031 37.5 77.671875 37.496094 77.886719 C 37.496094 77.929688 37.488281 77.980469 37.488281 78.027344 L 37.488281 358.429688 C 37.488281 363.605469 41.6875 367.800781 46.863281 367.800781 L 328.078125 367.800781 C 333.253906 367.800781 337.453125 363.605469 337.453125 358.429688 L 337.453125 16.417969 C 337.453125 11.246094 333.253906 7.050781 328.078125 7.050781 " fill-opacity="1" fill-rule="nonzero"/></g><path fill="#2e2d2d" d="M 210.210938 306.71875 C 210.210938 302.8125 207.367188 299.972656 202.039062 299.972656 L 190.3125 299.972656 L 190.3125 313.46875 L 202.039062 313.46875 C 207.367188 313.46875 210.210938 310.625 210.210938 306.71875 " fill-opacity="1" fill-rule="nonzero"/><path fill="#2e2d2d" d="M 248.578125 317.019531 L 248.578125 317.730469 L 260.660156 317.730469 L 260.660156 304.941406 L 259.949219 304.941406 L 248.578125 317.019531 " fill-opacity="1" fill-rule="nonzero"/><path fill="#2e2d2d" d="M 98.992188 220.066406 C 98.992188 218.746094 100.0625 217.675781 101.382812 217.675781 L 113.753906 217.675781 C 115.070312 217.675781 116.144531 218.746094 116.144531 220.066406 L 116.144531 223.742188 C 116.144531 225.0625 115.070312 226.136719 113.753906 226.136719 L 101.382812 226.136719 C 100.0625 226.136719 98.992188 225.0625 98.992188 223.742188 Z M 98.992188 203.839844 C 98.992188 202.519531 100.0625 201.453125 101.382812 201.453125 L 113.753906 201.453125 C 115.070312 201.453125 116.144531 202.519531 116.144531 203.839844 L 116.144531 207.519531 C 116.144531 208.839844 115.070312 209.910156 113.753906 209.910156 L 101.382812 209.910156 C 100.0625 209.910156 98.992188 208.839844 98.992188 207.519531 Z M 98.992188 187.613281 C 98.992188 186.296875 100.0625 185.226562 101.382812 185.226562 L 113.753906 185.226562 C 115.070312 185.226562 116.144531 186.296875 116.144531 187.613281 L 116.144531 191.292969 C 116.144531 192.617188 115.070312 193.683594 113.753906 193.683594 L 101.382812 193.683594 C 100.0625 193.683594 98.992188 192.617188 98.992188 191.292969 Z M 98.992188 171.390625 C 98.992188 170.070312 100.0625 169 101.382812 169 L 113.753906 169 C 115.070312 169 116.144531 170.070312 116.144531 171.390625 L 116.144531 175.070312 C 116.144531 176.390625 115.070312 177.460938 113.753906 177.460938 L 101.382812 177.460938 C 100.0625 177.460938 98.992188 176.390625 98.992188 175.070312 Z M 98.992188 155.167969 C 98.992188 153.84375 100.0625 152.777344 101.382812 152.777344 L 113.753906 152.777344 C 115.070312 152.777344 116.144531 153.84375 116.144531 155.167969 L 116.144531 158.847656 C 116.144531 160.164062 115.070312 161.238281 113.753906 161.238281 L 101.382812 161.238281 C 100.0625 161.238281 98.992188 160.164062 98.992188 158.847656 Z M 98.992188 138.941406 C 98.992188 137.621094 100.0625 136.550781 101.382812 136.550781 L 113.753906 136.550781 C 115.070312 136.550781 116.144531 137.621094 116.144531 138.941406 L 116.144531 142.621094 C 116.144531 143.941406 115.070312 145.011719 113.753906 145.011719 L 101.382812 145.011719 C 100.0625 145.011719 98.992188 143.941406 98.992188 142.621094 Z M 98.992188 122.714844 C 98.992188 121.398438 100.0625 120.328125 101.382812 120.328125 L 113.753906 120.328125 C 115.070312 120.328125 116.144531 121.398438 116.144531 122.714844 L 116.144531 126.394531 C 116.144531 127.714844 115.070312 128.785156 113.753906 128.785156 L 101.382812 128.785156 C 100.0625 128.785156 98.992188 127.714844 98.992188 126.394531 Z M 120.5625 124.992188 L 254.378906 124.992188 L 254.378906 222.359375 L 120.5625 222.359375 Z M 258.796875 220.066406 C 258.796875 218.746094 259.867188 217.675781 261.1875 217.675781 L 273.558594 217.675781 C 274.878906 217.675781 275.949219 218.746094 275.949219 220.066406 L 275.949219 223.742188 C 275.949219 225.0625 274.878906 226.136719 273.558594 226.136719 L 261.1875 226.136719 C 259.867188 226.136719 258.796875 225.0625 258.796875 223.742188 Z M 258.796875 203.839844 C 258.796875 202.519531 259.867188 201.453125 261.1875 201.453125 L 273.558594 201.453125 C 274.878906 201.453125 275.949219 202.519531 275.949219 203.839844 L 275.949219 207.519531 C 275.949219 208.839844 274.878906 209.910156 273.558594 209.910156 L 261.1875 209.910156 C 259.867188 209.910156 258.796875 208.839844 258.796875 207.519531 Z M 258.796875 187.613281 C 258.796875 186.296875 259.867188 185.226562 261.1875 185.226562 L 273.558594 185.226562 C 274.878906 185.226562 275.949219 186.296875 275.949219 187.613281 L 275.949219 191.292969 C 275.949219 192.617188 274.878906 193.683594 273.558594 193.683594 L 261.1875 193.683594 C 259.867188 193.683594 258.796875 192.617188 258.796875 191.292969 Z M 258.796875 171.390625 C 258.796875 170.070312 259.867188 169 261.1875 169 L 273.558594 169 C 274.878906 169 275.949219 170.070312 275.949219 171.390625 L 275.949219 175.070312 C 275.949219 176.390625 274.878906 177.460938 273.558594 177.460938 L 261.1875 177.460938 C 259.867188 177.460938 258.796875 176.390625 258.796875 175.070312 Z M 258.796875 155.167969 C 258.796875 153.84375 259.867188 152.777344 261.1875 152.777344 L 273.558594 152.777344 C 274.878906 152.777344 275.949219 153.84375 275.949219 155.167969 L 275.949219 158.847656 C 275.949219 160.164062 274.878906 161.238281 273.558594 161.238281 L 261.1875 161.238281 C 259.867188 161.238281 258.796875 160.164062 258.796875 158.847656 Z M 258.796875 138.941406 C 258.796875 137.621094 259.867188 136.550781 261.1875 136.550781 L 273.558594 136.550781 C 274.878906 136.550781 275.949219 137.621094 275.949219 138.941406 L 275.949219 142.621094 C 275.949219 143.941406 274.878906 145.011719 273.558594 145.011719 L 261.1875 145.011719 C 259.867188 145.011719 258.796875 143.941406 258.796875 142.621094 Z M 258.796875 122.714844 C 258.796875 121.398438 259.867188 120.328125 261.1875 120.328125 L 273.558594 120.328125 C 274.878906 120.328125 275.949219 121.398438 275.949219 122.714844 L 275.949219 126.394531 C 275.949219 127.714844 274.878906 128.785156 273.558594 128.785156 L 261.1875 128.785156 C 259.867188 128.785156 258.796875 127.714844 258.796875 126.394531 Z M 98.992188 238.417969 L 98.992188 236.289062 C 98.992188 234.96875 100.0625 233.898438 101.382812 233.898438 L 113.753906 233.898438 C 115.070312 233.898438 116.144531 234.96875 116.144531 236.289062 L 116.144531 239.019531 L 120.5625 239.019531 L 120.5625 232.25 L 254.378906 232.25 L 254.378906 239.019531 L 258.796875 239.019531 L 258.796875 236.289062 C 258.796875 234.96875 259.867188 233.898438 261.1875 233.898438 L 273.558594 233.898438 C 274.878906 233.898438 275.949219 234.96875 275.949219 236.289062 L 275.949219 238.417969 C 278.394531 237.332031 280.105469 234.882812 280.105469 232.035156 L 280.105469 115.316406 C 280.105469 112.46875 278.394531 110.019531 275.949219 108.933594 L 275.949219 110.171875 C 275.949219 111.492188 274.878906 112.5625 273.558594 112.5625 L 261.1875 112.5625 C 259.867188 112.5625 258.796875 111.492188 258.796875 110.171875 L 258.796875 108.332031 L 254.378906 108.332031 L 254.378906 115.101562 L 120.5625 115.101562 L 120.5625 108.332031 L 116.144531 108.332031 L 116.144531 110.171875 C 116.144531 111.492188 115.070312 112.5625 113.753906 112.5625 L 101.382812 112.5625 C 100.0625 112.5625 98.992188 111.492188 98.992188 110.171875 L 98.992188 108.933594 C 96.546875 110.019531 94.835938 112.46875 94.835938 115.316406 L 94.835938 232.035156 C 94.835938 234.882812 96.546875 237.332031 98.992188 238.417969 " fill-opacity="1" fill-rule="nonzero"/><path fill="#2e2d2d" d="M 214.300781 169.351562 L 175.484375 146.945312 C 172.152344 145.023438 167.988281 147.429688 167.988281 151.273438 L 167.988281 196.078125 C 167.988281 199.921875 172.152344 202.324219 175.484375 200.402344 L 214.300781 178 C 217.632812 176.078125 217.632812 171.273438 214.300781 169.351562 " fill-opacity="1" fill-rule="nonzero"/></svg>