<svg xmlns="http://www.w3.org/2000/svg" xmlns:xlink="http://www.w3.org/1999/xlink" width="500" zoomAndPan="magnify" viewBox="0 0 375 374.999991" height="500" preserveAspectRatio="xMidYMid meet" version="1.0"><defs><clipPath id="e51e3d1a39"><path d="M 81.847656 43 L 304 43 L 304 373 L 81.847656 373 Z M 81.847656 43 " clip-rule="nonzero"/></clipPath><clipPath id="6857181238"><path d="M 105.03125 84.519531 L 282.78125 84.519531 L 282.78125 262.269531 L 105.03125 262.269531 Z M 105.03125 84.519531 " clip-rule="nonzero"/></clipPath><clipPath id="2ef53b759e"><path d="M 141 120 L 278 120 L 278 262.269531 L 141 262.269531 Z M 141 120 " clip-rule="nonzero"/></clipPath><clipPath id="ed171525aa"><path d="M 88.796875 20.441406 L 305.765625 20.441406 L 305.765625 279.191406 L 88.796875 279.191406 Z M 88.796875 20.441406 " clip-rule="nonzero"/></clipPath><clipPath id="6c267d29bb"><path d="M 100.238281 39.6875 L 285 39.6875 L 285 279.191406 L 100.238281 279.191406 Z M 100.238281 39.6875 " clip-rule="nonzero"/></clipPath><clipPath id="9f58b2fcc6"><path d="M 102 20.441406 L 305.765625 20.441406 L 305.765625 259 L 102 259 Z M 102 20.441406 " clip-rule="nonzero"/></clipPath></defs><g clip-path="url(#e51e3d1a39)"><path fill="#92acef" d="M 302.179688 135.179688 C 293.832031 86.132812 252.714844 47.9375 203.109375 43.484375 C 137.222656 37.5 81.914062 89.261719 81.914062 153.964844 C 81.914062 168.226562 84.695312 181.796875 89.636719 194.386719 L 89.566406 194.386719 L 89.703125 194.667969 C 92.277344 201.136719 155.800781 318.367188 181.890625 366.304688 C 186.621094 375 199.144531 375 203.875 366.304688 C 229.894531 318.367188 293.484375 201.136719 296.058594 194.667969 L 296.199219 194.386719 L 296.128906 194.386719 C 303.085938 176.4375 305.800781 156.332031 302.179688 135.179688 Z M 192.882812 217 C 157.679688 217 129.082031 188.472656 129.082031 153.199219 C 129.082031 117.925781 157.609375 89.402344 192.882812 89.402344 C 228.15625 89.402344 256.679688 117.925781 256.679688 153.199219 C 256.679688 188.472656 228.085938 217 192.882812 217 Z M 192.882812 217 " fill-opacity="1" fill-rule="nonzero"/></g><g clip-path="url(#6857181238)"><path fill="#4ab8a1" d="M 282.78125 173.394531 C 282.78125 174.847656 282.746094 176.304688 282.675781 177.757812 C 282.605469 179.207031 282.496094 180.660156 282.355469 182.105469 C 282.210938 183.554688 282.035156 184.996094 281.820312 186.4375 C 281.605469 187.875 281.359375 189.308594 281.074219 190.734375 C 280.792969 192.160156 280.472656 193.578125 280.117188 194.988281 C 279.765625 196.402344 279.378906 197.800781 278.957031 199.195312 C 278.535156 200.585938 278.078125 201.964844 277.585938 203.335938 C 277.097656 204.707031 276.574219 206.0625 276.015625 207.40625 C 275.460938 208.75 274.871094 210.078125 274.25 211.394531 C 273.628906 212.707031 272.972656 214.007812 272.289062 215.289062 C 271.601562 216.574219 270.886719 217.839844 270.136719 219.085938 C 269.390625 220.332031 268.613281 221.5625 267.804688 222.769531 C 266.996094 223.980469 266.160156 225.167969 265.292969 226.335938 C 264.425781 227.507812 263.53125 228.652344 262.609375 229.777344 C 261.6875 230.902344 260.734375 232.003906 259.757812 233.078125 C 258.78125 234.15625 257.78125 235.210938 256.75 236.238281 C 255.722656 237.269531 254.671875 238.269531 253.59375 239.246094 C 252.515625 240.222656 251.414062 241.171875 250.289062 242.097656 C 249.164062 243.019531 248.019531 243.914062 246.851562 244.78125 C 245.683594 245.648438 244.492188 246.484375 243.285156 247.292969 C 242.074219 248.101562 240.847656 248.878906 239.597656 249.625 C 238.351562 250.375 237.085938 251.089844 235.804688 251.777344 C 234.519531 252.460938 233.222656 253.117188 231.90625 253.738281 C 230.589844 254.359375 229.261719 254.949219 227.917969 255.503906 C 226.574219 256.0625 225.21875 256.585938 223.847656 257.074219 C 222.480469 257.566406 221.097656 258.019531 219.707031 258.441406 C 218.316406 258.867188 216.914062 259.253906 215.503906 259.605469 C 214.089844 259.960938 212.671875 260.277344 211.246094 260.5625 C 209.820312 260.847656 208.386719 261.09375 206.949219 261.308594 C 205.507812 261.523438 204.066406 261.699219 202.617188 261.84375 C 201.171875 261.984375 199.722656 262.089844 198.269531 262.164062 C 196.816406 262.234375 195.363281 262.269531 193.90625 262.269531 C 192.453125 262.269531 191 262.234375 189.546875 262.164062 C 188.09375 262.089844 186.644531 261.984375 185.195312 261.84375 C 183.75 261.699219 182.304688 261.523438 180.867188 261.308594 C 179.429688 261.09375 177.996094 260.847656 176.570312 260.5625 C 175.140625 260.277344 173.722656 259.960938 172.3125 259.605469 C 170.902344 259.253906 169.5 258.867188 168.109375 258.441406 C 166.714844 258.019531 165.335938 257.566406 163.964844 257.074219 C 162.597656 256.585938 161.242188 256.0625 159.898438 255.503906 C 158.550781 254.949219 157.222656 254.359375 155.910156 253.738281 C 154.59375 253.117188 153.292969 252.460938 152.011719 251.777344 C 150.730469 251.089844 149.464844 250.375 148.214844 249.625 C 146.96875 248.878906 145.742188 248.101562 144.53125 247.292969 C 143.320312 246.484375 142.132812 245.648438 140.964844 244.78125 C 139.796875 243.914062 138.648438 243.019531 137.527344 242.097656 C 136.402344 241.171875 135.300781 240.222656 134.222656 239.246094 C 133.144531 238.269531 132.09375 237.269531 131.0625 236.238281 C 130.035156 235.210938 129.03125 234.15625 128.054688 233.078125 C 127.078125 232.003906 126.128906 230.902344 125.207031 229.777344 C 124.285156 228.652344 123.390625 227.507812 122.523438 226.335938 C 121.65625 225.167969 120.820312 223.980469 120.011719 222.769531 C 119.203125 221.5625 118.425781 220.332031 117.675781 219.085938 C 116.929688 217.839844 116.210938 216.574219 115.527344 215.289062 C 114.839844 214.007812 114.1875 212.707031 113.566406 211.394531 C 112.945312 210.078125 112.355469 208.75 111.796875 207.40625 C 111.242188 206.0625 110.71875 204.707031 110.226562 203.335938 C 109.738281 201.964844 109.28125 200.585938 108.859375 199.195312 C 108.4375 197.800781 108.050781 196.402344 107.695312 194.988281 C 107.34375 193.578125 107.023438 192.160156 106.738281 190.734375 C 106.457031 189.308594 106.207031 187.875 105.996094 186.4375 C 105.78125 184.996094 105.601562 183.554688 105.460938 182.105469 C 105.316406 180.660156 105.210938 179.207031 105.140625 177.757812 C 105.066406 176.304688 105.03125 174.847656 105.03125 173.394531 C 105.03125 171.941406 105.066406 170.488281 105.140625 169.035156 C 105.210938 167.582031 105.316406 166.132812 105.460938 164.683594 C 105.601562 163.238281 105.78125 161.792969 105.996094 160.355469 C 106.207031 158.914062 106.457031 157.484375 106.738281 156.054688 C 107.023438 154.628906 107.34375 153.210938 107.695312 151.800781 C 108.050781 150.390625 108.4375 148.988281 108.859375 147.597656 C 109.28125 146.203125 109.738281 144.824219 110.226562 143.453125 C 110.71875 142.085938 111.242188 140.726562 111.796875 139.382812 C 112.355469 138.039062 112.945312 136.710938 113.566406 135.394531 C 114.1875 134.082031 114.839844 132.78125 115.527344 131.5 C 116.210938 130.21875 116.929688 128.953125 117.675781 127.703125 C 118.425781 126.457031 119.203125 125.226562 120.011719 124.019531 C 120.820312 122.808594 121.65625 121.621094 122.523438 120.453125 C 123.390625 119.285156 124.285156 118.136719 125.207031 117.011719 C 126.128906 115.890625 127.078125 114.789062 128.054688 113.710938 C 129.03125 112.632812 130.035156 111.578125 131.0625 110.550781 C 132.09375 109.523438 133.144531 108.519531 134.222656 107.542969 C 135.300781 106.566406 136.402344 105.617188 137.527344 104.695312 C 138.648438 103.769531 139.796875 102.875 140.964844 102.011719 C 142.132812 101.144531 143.320312 100.304688 144.53125 99.5 C 145.742188 98.691406 146.96875 97.914062 148.214844 97.164062 C 149.464844 96.417969 150.730469 95.699219 152.011719 95.015625 C 153.292969 94.328125 154.59375 93.675781 155.910156 93.054688 C 157.222656 92.429688 158.550781 91.84375 159.898438 91.285156 C 161.242188 90.730469 162.597656 90.207031 163.964844 89.714844 C 165.335938 89.226562 166.714844 88.769531 168.109375 88.347656 C 169.5 87.925781 170.902344 87.535156 172.3125 87.183594 C 173.722656 86.832031 175.140625 86.511719 176.570312 86.226562 C 177.996094 85.945312 179.429688 85.695312 180.867188 85.480469 C 182.304688 85.269531 183.75 85.089844 185.195312 84.949219 C 186.644531 84.804688 188.09375 84.699219 189.546875 84.628906 C 191 84.554688 192.453125 84.519531 193.90625 84.519531 C 195.363281 84.519531 196.816406 84.554688 198.269531 84.628906 C 199.722656 84.699219 201.171875 84.804688 202.617188 84.949219 C 204.066406 85.089844 205.507812 85.269531 206.949219 85.480469 C 208.386719 85.695312 209.820312 85.945312 211.246094 86.226562 C 212.671875 86.511719 214.089844 86.832031 215.503906 87.183594 C 216.914062 87.535156 218.316406 87.925781 219.707031 88.347656 C 221.097656 88.769531 222.480469 89.226562 223.847656 89.714844 C 225.21875 90.207031 226.574219 90.730469 227.917969 91.285156 C 229.261719 91.84375 230.589844 92.429688 231.90625 93.054688 C 233.222656 93.675781 234.519531 94.328125 235.804688 95.015625 C 237.085938 95.699219 238.351562 96.417969 239.597656 97.164062 C 240.847656 97.914062 242.074219 98.691406 243.285156 99.5 C 244.492188 100.304688 245.683594 101.144531 246.851562 102.011719 C 248.019531 102.875 249.164062 103.769531 250.289062 104.695312 C 251.414062 105.617188 252.515625 106.566406 253.59375 107.542969 C 254.671875 108.519531 255.722656 109.523438 256.75 110.550781 C 257.78125 111.578125 258.78125 112.632812 259.757812 113.710938 C 260.734375 114.789062 261.6875 115.890625 262.609375 117.011719 C 263.53125 118.136719 264.425781 119.285156 265.292969 120.453125 C 266.160156 121.621094 266.996094 122.808594 267.804688 124.019531 C 268.613281 125.226562 269.390625 126.457031 270.136719 127.703125 C 270.886719 128.953125 271.601562 130.21875 272.289062 131.5 C 272.972656 132.78125 273.628906 134.082031 274.25 135.394531 C 274.871094 136.710938 275.460938 138.039062 276.015625 139.382812 C 276.574219 140.726562 277.097656 142.085938 277.585938 143.453125 C 278.078125 144.824219 278.535156 146.203125 278.957031 147.597656 C 279.378906 148.988281 279.765625 150.390625 280.117188 151.800781 C 280.472656 153.210938 280.792969 154.628906 281.074219 156.054688 C 281.359375 157.484375 281.605469 158.914062 281.820312 160.355469 C 282.035156 161.792969 282.210938 163.238281 282.355469 164.683594 C 282.496094 166.132812 282.605469 167.582031 282.675781 169.035156 C 282.746094 170.488281 282.78125 171.941406 282.78125 173.394531 Z M 282.78125 173.394531 " fill-opacity="1" fill-rule="nonzero"/></g><g clip-path="url(#2ef53b759e)"><path fill="#43a691" d="M 243.898438 120.625 L 171.6875 120.625 L 171.6875 126.179688 L 166.132812 126.179688 L 166.132812 131.734375 L 160.578125 131.734375 L 160.578125 137.289062 L 155.023438 137.289062 L 155.023438 142.84375 L 149.46875 142.84375 L 149.46875 148.398438 L 143.914062 148.398438 L 143.914062 180.339844 L 141.136719 183.117188 L 141.136719 224.777344 L 152.058594 251.804688 C 164.53125 258.476562 178.773438 262.269531 193.90625 262.269531 C 232.34375 262.269531 265.074219 237.867188 277.472656 203.714844 Z M 243.898438 120.625 " fill-opacity="1" fill-rule="nonzero"/></g><path fill="#cc803d" d="M 141.136719 224.777344 L 174.464844 191.449219 L 174.464844 149.789062 L 141.136719 183.117188 Z M 141.136719 224.777344 " fill-opacity="1" fill-rule="nonzero"/><path fill="#cc803d" d="M 174.464844 149.789062 L 246.675781 149.789062 L 246.675781 191.449219 L 174.464844 191.449219 Z M 174.464844 149.789062 " fill-opacity="1" fill-rule="nonzero"/><path fill="#ffffff" d="M 171.6875 120.625 L 243.898438 120.625 L 243.898438 181.726562 L 171.6875 181.726562 Z M 171.6875 120.625 " fill-opacity="1" fill-rule="nonzero"/><path fill="#fff8e6" d="M 174.464844 123.402344 L 241.121094 123.402344 L 241.121094 178.949219 L 174.464844 178.949219 Z M 174.464844 123.402344 " fill-opacity="1" fill-rule="nonzero"/><path fill="#ffffff" d="M 166.132812 126.179688 L 238.34375 126.179688 L 238.34375 187.28125 L 166.132812 187.28125 Z M 166.132812 126.179688 " fill-opacity="1" fill-rule="nonzero"/><path fill="#fff8e6" d="M 168.910156 128.957031 L 235.566406 128.957031 L 235.566406 184.503906 L 168.910156 184.503906 Z M 168.910156 128.957031 " fill-opacity="1" fill-rule="nonzero"/><path fill="#ffffff" d="M 160.578125 131.734375 L 232.789062 131.734375 L 232.789062 192.835938 L 160.578125 192.835938 Z M 160.578125 131.734375 " fill-opacity="1" fill-rule="nonzero"/><path fill="#fff8e6" d="M 163.355469 134.511719 L 230.011719 134.511719 L 230.011719 190.058594 L 163.355469 190.058594 Z M 163.355469 134.511719 " fill-opacity="1" fill-rule="nonzero"/><path fill="#ffffff" d="M 155.023438 137.289062 L 227.234375 137.289062 L 227.234375 198.390625 L 155.023438 198.390625 Z M 155.023438 137.289062 " fill-opacity="1" fill-rule="nonzero"/><path fill="#fff8e6" d="M 157.800781 140.066406 L 224.457031 140.066406 L 224.457031 195.613281 L 157.800781 195.613281 Z M 157.800781 140.066406 " fill-opacity="1" fill-rule="nonzero"/><path fill="#ffffff" d="M 149.46875 142.84375 L 221.679688 142.84375 L 221.679688 203.945312 L 149.46875 203.945312 Z M 149.46875 142.84375 " fill-opacity="1" fill-rule="nonzero"/><path fill="#fff8e6" d="M 152.246094 145.621094 L 218.902344 145.621094 L 218.902344 201.167969 L 152.246094 201.167969 Z M 152.246094 145.621094 " fill-opacity="1" fill-rule="nonzero"/><path fill="#ffffff" d="M 216.125 209.5 L 143.914062 209.5 L 143.914062 148.398438 L 202.238281 148.398438 L 216.125 162.285156 Z M 216.125 209.5 " fill-opacity="1" fill-rule="nonzero"/><path fill="#fff8e6" d="M 146.691406 206.722656 L 146.691406 151.175781 L 203.628906 151.175781 L 213.347656 160.898438 L 213.347656 206.722656 Z M 146.691406 206.722656 " fill-opacity="1" fill-rule="nonzero"/><path fill="#f2ecdb" d="M 213.347656 160.898438 L 203.628906 151.175781 L 202.238281 151.175781 L 202.238281 162.285156 L 213.347656 189.78125 Z M 213.347656 160.898438 " fill-opacity="1" fill-rule="nonzero"/><path fill="#f2c95f" d="M 213.347656 224.777344 L 246.675781 191.449219 L 246.675781 149.789062 L 213.347656 183.117188 Z M 213.347656 224.777344 " fill-opacity="1" fill-rule="nonzero"/><path fill="#ffd464" d="M 141.136719 183.117188 L 141.136719 224.777344 L 213.347656 224.777344 L 213.347656 183.117188 Z M 186.964844 195.613281 L 167.523438 195.613281 C 165.988281 195.613281 164.746094 194.371094 164.746094 192.835938 C 164.746094 191.304688 165.988281 190.058594 167.523438 190.058594 L 186.964844 190.058594 C 188.496094 190.058594 189.742188 191.304688 189.742188 192.835938 C 189.742188 194.371094 188.496094 195.613281 186.964844 195.613281 Z M 186.964844 195.613281 " fill-opacity="1" fill-rule="nonzero"/><path fill="#ffffff" d="M 202.238281 162.285156 L 216.125 162.285156 L 202.238281 148.398438 Z M 202.238281 162.285156 " fill-opacity="1" fill-rule="nonzero"/><g clip-path="url(#ed171525aa)"><path fill="#e1e1e1" d="M 282.578125 278.484375 L 115.28125 267.605469 L 175.828125 267.394531 L 175.832031 267.398438 C 175.839844 267.398438 175.84375 267.394531 175.84375 267.394531 L 250.339844 267.132812 C 250.363281 267.324219 250.382812 267.507812 250.398438 267.699219 C 250.816406 267.652344 251.230469 267.605469 251.648438 267.558594 C 251.589844 267.421875 251.542969 267.199219 251.476562 267.125 L 275.019531 267.046875 L 276.699219 267.046875 C 278.765625 267.046875 280.75 266.671875 282.578125 265.984375 Z M 135.917969 20.445312 L 134.917969 32.160156 L 123.65625 31.199219 L 121.816406 52.738281 L 95.347656 53.335938 L 88.796875 267.699219 L 100.53125 267.65625 L 283.050781 279.519531 L 283.082031 279.519531 C 283.207031 279.519531 283.332031 279.476562 283.425781 279.382812 C 283.527344 279.292969 283.582031 279.15625 283.582031 279.019531 L 283.582031 265.570312 C 289.433594 262.9375 293.503906 257.070312 293.503906 250.246094 L 293.503906 178.304688 L 305.765625 34.972656 L 135.917969 20.445312 " fill-opacity="1" fill-rule="nonzero"/></g><g clip-path="url(#6c267d29bb)"><path fill="#1a1e2d" d="M 237.347656 42.160156 C 242 42.160156 242.5625 46.664062 242.613281 47.175781 C 242.671875 47.820312 243.246094 48.300781 243.886719 48.238281 C 244.53125 48.183594 245.011719 47.613281 244.953125 46.964844 C 244.816406 45.382812 243.996094 42.90625 241.988281 41.320312 C 240.851562 40.421875 239.339844 39.804688 237.347656 39.804688 C 235.914062 39.804688 234.71875 40.113281 233.726562 40.613281 C 230.730469 42.117188 229.632812 45.359375 229.632812 47.070312 L 229.632812 82.21875 C 229.632812 82.230469 229.632812 82.246094 229.632812 82.261719 C 229.738281 84.832031 231.476562 89.695312 237.347656 89.695312 C 239.515625 89.695312 241.292969 89.011719 242.628906 87.675781 C 245.023438 85.273438 245.035156 81.625 245.035156 81.476562 L 245.050781 65.707031 L 245.058594 56.335938 C 245.058594 55.6875 244.53125 55.160156 243.882812 55.160156 C 243.882812 55.160156 243.882812 55.160156 243.878906 55.160156 C 243.230469 55.160156 242.707031 55.683594 242.707031 56.335938 L 242.699219 65.871094 L 242.683594 81.476562 C 242.679688 82.074219 242.519531 87.339844 237.347656 87.339844 C 232.429688 87.339844 232.019531 82.792969 231.984375 82.1875 L 231.984375 47.070312 C 231.984375 45.757812 233.257812 42.160156 237.347656 42.160156 Z M 200.8125 90.015625 C 200.816406 90.015625 200.816406 90.015625 200.820312 90.015625 L 230.308594 89.273438 C 230.492188 89.269531 230.636719 89.113281 230.632812 88.929688 C 230.628906 88.746094 230.480469 88.601562 230.296875 88.601562 C 230.296875 88.601562 230.292969 88.601562 230.289062 88.601562 L 200.804688 89.34375 C 200.617188 89.347656 200.472656 89.503906 200.476562 89.6875 C 200.480469 89.871094 200.632812 90.015625 200.8125 90.015625 Z M 200.355469 94.773438 C 200.359375 94.773438 200.359375 94.773438 200.363281 94.773438 L 233.628906 93.699219 C 233.8125 93.691406 233.957031 93.539062 233.953125 93.355469 C 233.945312 93.171875 233.796875 93.027344 233.617188 93.027344 C 233.613281 93.027344 233.609375 93.027344 233.605469 93.027344 L 200.339844 94.101562 C 200.15625 94.105469 200.011719 94.261719 200.019531 94.445312 C 200.023438 94.628906 200.171875 94.773438 200.355469 94.773438 Z M 237.941406 101.179688 L 200.117188 97.859375 C 199.9375 97.84375 199.769531 97.980469 199.753906 98.167969 C 199.738281 98.351562 199.875 98.515625 200.058594 98.53125 L 237.882812 101.847656 C 237.894531 101.851562 237.90625 101.851562 237.914062 101.851562 C 238.085938 101.851562 238.234375 101.71875 238.246094 101.542969 C 238.265625 101.359375 238.128906 101.195312 237.941406 101.179688 Z M 191.003906 133.589844 L 191 133.589844 L 261.914062 137.359375 L 253.175781 66.191406 L 257.785156 131.851562 Z M 277.035156 231.625 C 277.3125 231.625 277.539062 231.398438 277.539062 231.121094 L 277.539062 165.597656 C 277.539062 165.320312 277.3125 165.09375 277.035156 165.09375 C 276.757812 165.09375 276.53125 165.320312 276.53125 165.597656 L 276.53125 231.121094 C 276.53125 231.398438 276.757812 231.625 277.035156 231.625 Z M 280.394531 239.523438 C 280.394531 239.800781 280.621094 240.027344 280.898438 240.027344 C 281.179688 240.027344 281.402344 239.800781 281.402344 239.523438 L 281.402344 165.589844 C 281.402344 165.3125 281.179688 165.085938 280.898438 165.085938 C 280.621094 165.085938 280.394531 165.3125 280.394531 165.589844 Z M 284.933594 165.589844 C 284.933594 165.3125 284.707031 165.085938 284.429688 165.085938 C 284.148438 165.085938 283.925781 165.3125 283.925781 165.589844 L 283.925781 249.9375 C 283.925781 250.21875 284.148438 250.445312 284.429688 250.445312 C 284.707031 250.445312 284.933594 250.21875 284.933594 249.9375 Z M 283.582031 265.570312 L 283.582031 279.019531 C 283.582031 279.15625 283.527344 279.292969 283.425781 279.382812 C 283.332031 279.476562 283.207031 279.519531 283.082031 279.519531 L 283.050781 279.519531 L 100.53125 267.65625 L 115.28125 267.605469 L 282.578125 278.484375 L 282.578125 265.984375 C 282.917969 265.859375 283.257812 265.71875 283.582031 265.570312 " fill-opacity="1" fill-rule="nonzero"/></g><g clip-path="url(#9f58b2fcc6)"><path fill="#f14975" d="M 102.511719 258.960938 C 102.515625 258.960938 102.523438 258.960938 102.527344 258.960938 C 102.796875 258.960938 103.019531 258.746094 103.03125 258.46875 L 104.269531 208.632812 C 104.199219 208.523438 104.15625 208.421875 104.171875 208.363281 C 104.203125 208.265625 104.246094 208.167969 104.285156 208.074219 L 104.511719 198.9375 C 104.453125 199.054688 104.394531 199.160156 104.332031 199.277344 C 104.019531 199.089844 103.757812 198.929688 103.507812 198.78125 L 102.023438 258.445312 C 102.011719 258.722656 102.234375 258.953125 102.511719 258.960938 Z M 104.558594 196.414062 C 104.5625 196.417969 104.570312 196.421875 104.574219 196.429688 L 106.152344 133.023438 C 105.820312 133.042969 105.480469 133.039062 105.144531 133.015625 L 103.523438 198.097656 C 103.886719 197.25 104.214844 196.695312 104.558594 196.414062 Z M 107.976562 59.851562 C 107.984375 59.570312 107.761719 59.339844 107.484375 59.335938 C 107.199219 59.320312 106.972656 59.546875 106.964844 59.824219 L 105.167969 132 C 105.480469 131.898438 105.816406 131.792969 106.183594 131.679688 Z M 238.25 101.542969 C 238.265625 101.355469 238.128906 101.195312 237.945312 101.179688 L 200.117188 97.859375 C 199.933594 97.84375 199.773438 97.976562 199.757812 98.164062 C 199.738281 98.347656 199.875 98.511719 200.0625 98.527344 L 237.886719 101.847656 C 237.894531 101.851562 237.898438 101.851562 237.914062 101.851562 C 238.085938 101.851562 238.234375 101.714844 238.25 101.542969 Z M 200.015625 94.445312 C 200.023438 94.628906 200.167969 94.773438 200.355469 94.773438 C 200.355469 94.773438 200.359375 94.773438 200.367188 94.773438 L 233.625 93.699219 C 233.808594 93.691406 233.957031 93.539062 233.953125 93.355469 C 233.945312 93.167969 233.800781 93.027344 233.613281 93.027344 C 233.613281 93.027344 233.609375 93.027344 233.601562 93.027344 L 200.34375 94.097656 C 200.160156 94.105469 200.011719 94.261719 200.015625 94.445312 Z M 200.472656 89.6875 C 200.480469 89.871094 200.632812 90.011719 200.8125 90.011719 C 200.816406 90.011719 200.816406 90.011719 200.824219 90.011719 L 230.308594 89.273438 C 230.492188 89.265625 230.636719 89.113281 230.632812 88.929688 C 230.628906 88.746094 230.480469 88.601562 230.296875 88.601562 L 230.289062 88.601562 L 200.808594 89.34375 C 200.617188 89.347656 200.472656 89.5 200.472656 89.6875 Z M 257.789062 131.851562 L 191 133.589844 L 189.183594 133.636719 L 186.726562 69.800781 L 229.632812 66.785156 L 229.632812 82.21875 C 229.632812 82.234375 229.632812 82.25 229.636719 82.265625 C 229.734375 84.832031 231.476562 89.691406 237.347656 89.691406 C 239.519531 89.691406 241.292969 89.011719 242.628906 87.675781 C 245.023438 85.273438 245.035156 81.625 245.035156 81.476562 L 245.050781 65.703125 L 253.097656 65.144531 L 253.175781 66.195312 Z M 237.347656 87.339844 C 242.519531 87.339844 242.679688 82.074219 242.683594 81.476562 L 242.699219 65.871094 L 231.984375 66.621094 L 231.984375 82.1875 C 232.019531 82.792969 232.429688 87.339844 237.347656 87.339844 Z M 233.726562 40.613281 L 134.914062 32.160156 L 135.917969 20.445312 L 305.761719 34.972656 L 293.503906 178.304688 L 293.503906 169.394531 C 293.503906 162.816406 289.71875 157.121094 284.207031 154.363281 L 293.503906 45.726562 L 241.988281 41.320312 C 240.851562 40.421875 239.339844 39.804688 237.347656 39.804688 C 235.914062 39.804688 234.71875 40.113281 233.726562 40.613281 " fill-opacity="1" fill-rule="nonzero"/></g><path fill="#f7cd34" d="M 173.722656 84.882812 C 173.578125 84.90625 173.433594 84.929688 173.292969 84.953125 C 173.34375 85.222656 173.394531 85.492188 173.445312 85.761719 C 173.578125 85.738281 173.714844 85.71875 173.847656 85.695312 C 173.808594 85.425781 173.765625 85.15625 173.722656 84.882812 Z M 103.359375 56.84375 C 103.503906 56.835938 103.765625 56.835938 103.765625 56.824219 C 103.777344 56.542969 103.757812 56.265625 103.746094 55.984375 C 103.605469 55.992188 103.464844 55.996094 103.320312 56.003906 C 103.335938 56.285156 103.347656 56.566406 103.359375 56.84375 Z M 125.53125 91.605469 C 125.449219 91.578125 125.203125 91.820312 125.164062 91.96875 C 125.140625 92.074219 125.359375 92.230469 125.511719 92.417969 C 125.710938 92.246094 125.847656 92.128906 125.988281 92.011719 C 125.839844 91.867188 125.707031 91.664062 125.53125 91.605469 Z M 289.644531 203.808594 C 289.496094 203.734375 289.34375 203.65625 289.191406 203.582031 C 289.074219 203.957031 288.957031 204.328125 288.84375 204.703125 C 288.957031 204.746094 289.074219 204.789062 289.1875 204.832031 C 289.339844 204.492188 289.492188 204.152344 289.644531 203.808594 Z M 142.46875 128.832031 C 142.46875 128.476562 142.46875 128.117188 142.46875 127.761719 C 142.367188 127.761719 142.265625 127.761719 142.164062 127.761719 C 142.164062 128.117188 142.164062 128.476562 142.164062 128.832031 C 142.265625 128.832031 142.367188 128.832031 142.46875 128.832031 Z M 181.007812 157.382812 C 181.167969 157.367188 181.324219 157.347656 181.480469 157.328125 C 181.433594 156.964844 181.382812 156.601562 181.332031 156.238281 C 181.179688 156.257812 181.03125 156.277344 180.878906 156.296875 C 180.921875 156.65625 180.964844 157.023438 181.007812 157.382812 Z M 283.726562 257.296875 C 283.75 257.453125 284.039062 257.699219 284.175781 257.679688 C 284.34375 257.652344 284.574219 257.402344 284.597656 257.226562 C 284.617188 257.046875 284.425781 256.839844 284.253906 256.507812 C 283.9375 256.957031 283.703125 257.144531 283.726562 257.296875 Z M 116.417969 196.085938 C 116.417969 195.761719 116.417969 195.4375 116.417969 195.113281 C 116.273438 195.109375 116.125 195.105469 115.980469 195.101562 C 115.980469 195.425781 115.96875 195.746094 115.996094 196.066406 C 116 196.085938 116.273438 196.082031 116.417969 196.085938 Z M 183.949219 89.054688 C 183.945312 89.019531 183.683594 89.015625 183.539062 89 C 183.503906 89.285156 183.472656 89.574219 183.4375 89.863281 C 183.613281 89.878906 183.792969 89.890625 183.96875 89.90625 C 183.96875 89.621094 183.984375 89.335938 183.949219 89.054688 Z M 197.476562 146.34375 C 197.316406 146.332031 197.15625 146.320312 197 146.308594 C 196.980469 146.675781 196.957031 147.039062 196.933594 147.402344 C 197.066406 147.414062 197.203125 147.421875 197.335938 147.429688 C 197.382812 147.066406 197.429688 146.703125 197.476562 146.34375 Z M 134.371094 87.722656 C 134.363281 87.867188 134.628906 88.15625 134.761719 88.152344 C 134.9375 88.140625 135.207031 87.929688 135.242188 87.765625 C 135.269531 87.617188 135.027344 87.417969 134.839844 87.152344 C 134.628906 87.394531 134.386719 87.550781 134.371094 87.722656 Z M 251.441406 142.261719 C 251.4375 142.246094 251.050781 142.234375 251.050781 142.25 C 251.011719 142.535156 251.003906 142.824219 250.988281 143.117188 C 251.144531 143.117188 251.300781 143.121094 251.457031 143.125 C 251.457031 142.835938 251.46875 142.546875 251.441406 142.261719 Z M 197.292969 246.148438 C 197.335938 245.753906 197.375 245.359375 197.417969 244.960938 C 197.273438 244.949219 197.132812 244.933594 196.984375 244.917969 C 196.945312 245.3125 196.898438 245.707031 196.855469 246.105469 C 197 246.117188 197.148438 246.136719 197.292969 246.148438 Z M 130.414062 158.085938 C 130.070312 158.222656 129.726562 158.359375 129.386719 158.496094 C 129.480469 158.664062 129.574219 158.832031 129.671875 159 C 129.980469 158.824219 130.289062 158.652344 130.597656 158.480469 C 130.535156 158.347656 130.472656 158.214844 130.414062 158.085938 Z M 239.40625 162.367188 C 239.574219 162.394531 239.777344 162.175781 240.054688 162.015625 C 239.804688 161.785156 239.652344 161.53125 239.476562 161.515625 C 239.328125 161.503906 239.03125 161.753906 239.023438 161.90625 C 239.007812 162.058594 239.246094 162.34375 239.40625 162.367188 Z M 229.621094 233.921875 C 229.472656 233.898438 229.324219 233.871094 229.175781 233.847656 C 229.125 234.160156 229.070312 234.476562 229.046875 234.792969 C 229.042969 234.804688 229.429688 234.871094 229.433594 234.863281 C 229.511719 234.554688 229.566406 234.238281 229.621094 233.921875 Z M 264.824219 131.816406 C 264.691406 131.828125 264.558594 131.839844 264.429688 131.855469 C 264.445312 132.148438 264.464844 132.441406 264.484375 132.734375 C 264.648438 132.710938 264.816406 132.6875 264.984375 132.660156 C 264.933594 132.382812 264.878906 132.097656 264.824219 131.816406 Z M 113.585938 124.441406 C 113.519531 124.757812 113.457031 125.070312 113.394531 125.386719 C 113.574219 125.417969 113.75 125.445312 113.929688 125.476562 C 113.953125 125.164062 113.992188 124.847656 113.984375 124.53125 C 113.984375 124.5 113.726562 124.472656 113.585938 124.441406 Z M 206.410156 228.210938 C 206.34375 228.5 206.308594 228.796875 206.265625 229.09375 C 206.433594 229.117188 206.601562 229.144531 206.769531 229.167969 C 206.785156 228.867188 206.8125 228.566406 206.800781 228.265625 C 206.800781 228.242188 206.410156 228.199219 206.410156 228.210938 Z M 129.464844 225.449219 C 129.566406 225.445312 129.667969 225.441406 129.769531 225.4375 C 129.769531 225.003906 129.769531 224.574219 129.769531 224.140625 C 129.644531 224.136719 129.519531 224.136719 129.394531 224.132812 C 129.417969 224.574219 129.441406 225.011719 129.464844 225.449219 Z M 196.472656 223.648438 C 196.839844 223.679688 197.203125 223.714844 197.570312 223.75 C 197.59375 223.625 197.613281 223.5 197.636719 223.375 C 197.265625 223.289062 196.902344 223.203125 196.535156 223.117188 C 196.515625 223.296875 196.492188 223.472656 196.472656 223.648438 Z M 260.113281 89.46875 C 260.171875 89.585938 260.226562 89.703125 260.285156 89.816406 C 260.664062 89.65625 261.042969 89.492188 261.417969 89.328125 C 261.355469 89.1875 261.285156 89.046875 261.222656 88.90625 C 260.851562 89.09375 260.484375 89.285156 260.113281 89.46875 Z M 275.527344 260.371094 C 275.652344 260.378906 275.777344 260.378906 275.90625 260.386719 C 275.925781 260.101562 275.960938 259.820312 275.945312 259.539062 C 275.945312 259.519531 275.628906 259.511719 275.457031 259.496094 C 275.480469 259.789062 275.503906 260.082031 275.527344 260.371094 Z M 200.605469 174.996094 C 200.796875 174.980469 200.976562 174.800781 201.273438 174.625 C 200.996094 174.421875 200.820312 174.191406 200.648438 174.195312 C 200.507812 174.195312 200.3125 174.460938 200.257812 174.640625 C 200.230469 174.726562 200.492188 175.007812 200.605469 174.996094 Z M 265.050781 253.695312 C 265.050781 253.859375 265.050781 254.019531 265.046875 254.179688 C 265.316406 254.179688 265.589844 254.179688 265.863281 254.179688 C 265.839844 254.007812 265.839844 253.695312 265.785156 253.683594 C 265.550781 253.640625 265.296875 253.683594 265.050781 253.695312 Z M 267.199219 100.539062 C 266.710938 100.128906 266.546875 99.992188 266.382812 99.855469 C 266.261719 100.03125 266.042969 100.214844 266.046875 100.386719 C 266.050781 100.539062 266.292969 100.792969 266.453125 100.816406 C 266.652344 100.839844 266.875 100.671875 267.199219 100.539062 Z M 137.46875 197.855469 C 137.511719 197.5 137.558594 197.140625 137.597656 196.785156 C 137.4375 196.761719 137.277344 196.734375 137.113281 196.710938 C 137.035156 197.054688 136.964844 197.398438 136.886719 197.746094 C 137.082031 197.78125 137.277344 197.820312 137.46875 197.855469 Z M 124.320312 258.382812 C 124.382812 258.75 124.445312 259.113281 124.507812 259.476562 C 124.636719 259.457031 124.769531 259.441406 124.898438 259.421875 C 124.871094 259.054688 124.84375 258.683594 124.820312 258.3125 C 124.65625 258.339844 124.488281 258.359375 124.320312 258.382812 Z M 136.984375 165.296875 C 137.023438 165.472656 137.269531 165.722656 137.433594 165.730469 C 137.589844 165.742188 137.757812 165.46875 137.996094 165.253906 C 137.722656 165.070312 137.539062 164.851562 137.351562 164.851562 C 137.21875 164.851562 136.960938 165.167969 136.984375 165.296875 Z M 237.722656 154.847656 C 237.898438 154.863281 238.09375 154.648438 238.480469 154.40625 C 238.195312 154.214844 238.019531 153.996094 237.835938 153.996094 C 237.675781 153.992188 237.402344 154.21875 237.382812 154.367188 C 237.363281 154.523438 237.585938 154.832031 237.722656 154.847656 Z M 264.929688 165.734375 C 264.921875 165.707031 264.59375 165.785156 264.417969 165.8125 C 264.484375 166.097656 264.554688 166.378906 264.621094 166.664062 C 264.785156 166.632812 264.945312 166.601562 265.109375 166.570312 C 265.054688 166.289062 265.019531 166.003906 264.929688 165.734375 Z M 237.539062 261.023438 C 237.539062 261.390625 237.539062 261.757812 237.539062 262.125 C 237.683594 262.121094 237.828125 262.117188 237.972656 262.109375 C 237.945312 261.742188 237.917969 261.371094 237.890625 261.003906 C 237.773438 261.011719 237.65625 261.015625 237.539062 261.023438 Z M 164.796875 71.566406 C 164.824219 71.367188 164.621094 71.140625 164.429688 70.734375 C 164.121094 71.308594 163.914062 71.519531 163.941406 71.6875 C 163.972656 71.863281 164.230469 72 164.390625 72.15625 C 164.535156 71.960938 164.773438 71.773438 164.796875 71.566406 Z M 130.945312 70.382812 C 131.328125 70.285156 131.710938 70.1875 132.09375 70.089844 C 132.058594 69.949219 132.019531 69.808594 131.984375 69.667969 C 131.601562 69.765625 131.21875 69.863281 130.835938 69.96875 C 130.871094 70.105469 130.910156 70.242188 130.945312 70.382812 Z M 270.902344 237.277344 C 270.726562 237.28125 270.546875 237.285156 270.371094 237.289062 C 270.371094 237.582031 270.371094 237.878906 270.371094 238.171875 C 270.546875 238.164062 270.875 238.179688 270.878906 238.144531 C 270.917969 237.859375 270.902344 237.566406 270.902344 237.277344 Z M 143.238281 220.015625 C 143.34375 219.636719 143.457031 219.253906 143.5625 218.875 C 143.386719 218.847656 143.207031 218.820312 143.027344 218.792969 C 142.964844 219.175781 142.902344 219.558594 142.839844 219.941406 C 142.972656 219.96875 143.105469 219.992188 143.238281 220.015625 Z M 237.894531 215.324219 C 237.761719 215.316406 237.628906 215.308594 237.492188 215.300781 C 237.453125 215.625 237.414062 215.949219 237.375 216.269531 C 237.550781 216.300781 237.722656 216.328125 237.894531 216.359375 C 237.894531 216.015625 237.894531 215.667969 237.894531 215.324219 Z M 140.558594 239.160156 C 140.695312 239.160156 140.835938 239.160156 140.976562 239.160156 C 141.011719 238.882812 141.074219 238.601562 141.054688 238.328125 C 141.046875 238.285156 140.664062 238.269531 140.457031 238.242188 C 140.492188 238.546875 140.523438 238.851562 140.558594 239.160156 Z M 269.609375 146.949219 C 269.542969 147.308594 269.476562 147.664062 269.414062 148.019531 C 269.578125 148.050781 269.738281 148.082031 269.902344 148.113281 C 269.976562 147.757812 270.046875 147.40625 270.121094 147.050781 C 269.949219 147.015625 269.777344 146.984375 269.609375 146.949219 Z M 191.609375 208.117188 C 191.429688 208.105469 191.253906 208.09375 191.078125 208.082031 C 191.058594 208.378906 191.042969 208.667969 191.023438 208.964844 C 191.191406 208.980469 191.355469 208.992188 191.519531 209.003906 C 191.550781 208.707031 191.578125 208.414062 191.609375 208.117188 Z M 153.988281 74.832031 C 154.058594 75.222656 154.105469 75.621094 154.105469 76.027344 C 154.105469 76.113281 154.09375 76.199219 154.089844 76.289062 C 154.25 76.261719 154.40625 76.234375 154.566406 76.207031 C 154.5 75.730469 154.433594 75.25 154.367188 74.773438 C 154.242188 74.792969 154.113281 74.8125 153.988281 74.832031 Z M 174.4375 72.738281 C 174.28125 73.027344 174.121094 73.316406 173.964844 73.605469 C 174.117188 73.691406 174.273438 73.777344 174.425781 73.867188 C 174.578125 73.605469 174.757812 73.351562 174.855469 73.066406 C 174.875 73.015625 174.585938 72.851562 174.4375 72.738281 Z M 127.058594 76.84375 C 127.035156 76.917969 127.464844 77.257812 127.503906 77.230469 C 127.730469 77.058594 127.953125 76.839844 128.070312 76.589844 C 128.105469 76.511719 127.816406 76.28125 127.589844 76.019531 C 127.359375 76.351562 127.148438 76.578125 127.058594 76.84375 Z M 191.695312 258.101562 C 191.738281 258.222656 191.777344 258.339844 191.816406 258.457031 C 192.257812 258.328125 192.699219 258.199219 193.136719 258.066406 C 193.085938 257.910156 193.035156 257.753906 192.988281 257.59375 C 192.558594 257.761719 192.125 257.933594 191.695312 258.101562 Z M 129.5625 59.871094 C 130.011719 59.980469 130.460938 60.09375 130.90625 60.203125 C 130.941406 60.042969 130.976562 59.878906 131.011719 59.71875 C 130.558594 59.636719 130.105469 59.554688 129.652344 59.472656 C 129.621094 59.605469 129.59375 59.738281 129.5625 59.871094 Z M 210.976562 169.042969 C 210.808594 169.027344 210.5 168.976562 210.496094 169 C 210.414062 169.3125 210.378906 169.636719 210.335938 169.953125 C 210.496094 169.984375 210.652344 170.007812 210.808594 170.035156 C 210.867188 169.703125 210.921875 169.375 210.976562 169.042969 Z M 248.964844 175.878906 C 248.957031 175.839844 248.578125 175.890625 248.367188 175.894531 C 248.425781 176.191406 248.484375 176.484375 248.542969 176.78125 C 248.707031 176.765625 248.871094 176.75 249.039062 176.738281 C 249.023438 176.449219 249.03125 176.152344 248.964844 175.878906 Z M 136.910156 65.476562 C 137.09375 65.507812 137.277344 65.542969 137.464844 65.570312 C 137.488281 65.1875 137.511719 64.804688 137.535156 64.417969 C 137.394531 64.402344 137.257812 64.386719 137.121094 64.367188 C 137.050781 64.738281 136.980469 65.109375 136.910156 65.476562 Z M 164.273438 190.707031 C 164.6875 190.8125 165.097656 190.917969 165.507812 191.023438 C 165.550781 190.863281 165.589844 190.703125 165.632812 190.539062 C 165.222656 190.433594 164.808594 190.324219 164.398438 190.214844 C 164.355469 190.378906 164.316406 190.542969 164.273438 190.707031 Z M 234.191406 261.132812 L 234.191406 262.09375 C 234.328125 262.097656 234.464844 262.105469 234.601562 262.113281 C 234.636719 261.753906 234.671875 261.398438 234.707031 261.035156 C 234.679688 261.035156 234.652344 261.035156 234.625 261.035156 C 234.480469 261.074219 234.339844 261.109375 234.191406 261.132812 Z M 227.304688 183.382812 C 227.539062 183.359375 227.757812 183.199219 228.148438 183.027344 C 227.816406 182.777344 227.601562 182.507812 227.472656 182.542969 C 227.253906 182.601562 227.089844 182.855469 226.902344 183.027344 C 227.039062 183.15625 227.183594 183.390625 227.304688 183.382812 Z M 122.515625 55.324219 C 122.472656 55.007812 122.449219 54.6875 122.363281 54.378906 C 122.355469 54.347656 122.03125 54.394531 121.851562 54.40625 C 121.878906 54.722656 121.90625 55.039062 121.933594 55.359375 C 122.128906 55.351562 122.320312 55.335938 122.515625 55.324219 Z M 270.222656 73.148438 C 270.242188 73.320312 270.265625 73.5 270.285156 73.671875 C 270.679688 73.597656 271.078125 73.523438 271.472656 73.449219 C 271.441406 73.308594 271.40625 73.039062 271.382812 73.039062 C 270.996094 73.054688 270.609375 73.105469 270.222656 73.148438 Z M 272.894531 121.304688 C 273.824219 120.691406 273.824219 120.691406 272.824219 120.070312 C 272.851562 120.53125 272.867188 120.867188 272.894531 121.304688 Z M 134.445312 218.757812 C 134.738281 218.792969 135.042969 218.777344 135.34375 218.777344 C 135.347656 218.613281 135.351562 218.445312 135.355469 218.285156 C 135.042969 218.269531 134.734375 218.253906 134.421875 218.238281 C 134.429688 218.417969 134.414062 218.75 134.445312 218.757812 Z M 171.644531 153.058594 C 171.644531 153.425781 171.644531 153.796875 171.644531 154.160156 C 171.828125 154.164062 172.011719 154.164062 172.199219 154.164062 C 172.164062 153.789062 172.136719 153.410156 172.101562 153.035156 C 171.949219 153.042969 171.796875 153.050781 171.644531 153.058594 Z M 106.011719 164.203125 C 106.179688 164.148438 106.351562 164.089844 106.519531 164.035156 C 106.425781 163.722656 106.335938 163.40625 106.242188 163.089844 C 106.054688 163.160156 105.703125 163.269531 105.710938 163.292969 C 105.78125 163.601562 105.90625 163.902344 106.011719 164.203125 Z M 165.375 103.539062 C 165.375 103.160156 165.375 102.785156 165.375 102.40625 C 165.191406 102.414062 165.007812 102.421875 164.824219 102.429688 C 164.863281 102.808594 164.902344 103.179688 164.945312 103.558594 C 165.089844 103.550781 165.230469 103.542969 165.375 103.539062 Z M 265.742188 243.378906 C 265.59375 243.722656 265.492188 244.089844 265.382812 244.449219 C 265.539062 244.507812 265.699219 244.566406 265.855469 244.625 C 266.011719 244.265625 266.171875 243.910156 266.332031 243.550781 C 266.125 243.488281 265.75 243.355469 265.742188 243.378906 Z M 260.019531 58.808594 C 260.035156 58.496094 260.097656 58.167969 260.03125 57.871094 C 260.015625 57.796875 259.589844 57.8125 259.347656 57.789062 C 259.382812 58.125 259.417969 58.457031 259.453125 58.792969 C 259.640625 58.800781 259.832031 58.804688 260.019531 58.808594 Z M 248.984375 242.507812 C 249.046875 242.347656 249.113281 242.183594 249.175781 242.019531 C 248.820312 241.878906 248.46875 241.730469 248.105469 241.625 C 248.078125 241.617188 247.960938 241.929688 247.886719 242.09375 C 248.253906 242.230469 248.617188 242.371094 248.984375 242.507812 Z M 199.148438 242.519531 C 199.21875 242.355469 199.292969 242.1875 199.363281 242.023438 C 199.003906 241.886719 198.648438 241.742188 198.277344 241.628906 C 198.253906 241.625 198.152344 241.875 198.085938 242.007812 C 198.441406 242.179688 198.796875 242.351562 199.148438 242.519531 Z M 251.027344 173.273438 C 250.695312 173.375 250.359375 173.464844 250.046875 173.609375 C 250.007812 173.625 250.101562 173.9375 250.132812 174.113281 C 250.480469 174.03125 250.832031 173.949219 251.179688 173.871094 C 251.128906 173.671875 251.078125 173.472656 251.027344 173.273438 Z M 126.707031 98.226562 C 126.699219 98.003906 126.6875 97.777344 126.679688 97.554688 C 126.351562 97.601562 126.015625 97.621094 125.710938 97.722656 C 125.632812 97.75 125.648438 98.050781 125.621094 98.226562 C 125.984375 98.226562 126.347656 98.226562 126.707031 98.226562 Z M 107.472656 166.960938 C 107.480469 166.78125 107.179688 166.582031 106.941406 166.304688 C 106.738281 166.585938 106.484375 166.796875 106.519531 166.921875 C 106.582031 167.152344 106.824219 167.328125 106.988281 167.527344 C 107.160156 167.339844 107.457031 167.160156 107.472656 166.960938 Z M 216.226562 194.566406 C 216.238281 194.738281 216.246094 194.914062 216.25 195.085938 C 216.628906 195.0625 217.011719 195.050781 217.382812 194.988281 C 217.417969 194.984375 217.398438 194.65625 217.402344 194.480469 C 217.011719 194.507812 216.617188 194.535156 216.226562 194.566406 Z M 167.902344 190.871094 C 167.902344 190.257812 167.902344 189.644531 167.902344 189.035156 C 167.824219 189.03125 167.742188 189.03125 167.660156 189.03125 C 167.660156 189.648438 167.660156 190.265625 167.660156 190.882812 C 167.742188 190.878906 167.824219 190.875 167.902344 190.871094 Z M 184.328125 250.816406 C 184.683594 250.882812 185.054688 250.886719 185.417969 250.910156 C 185.433594 250.738281 185.449219 250.570312 185.464844 250.398438 C 185.085938 250.34375 184.703125 250.285156 184.320312 250.230469 C 184.320312 250.433594 184.289062 250.804688 184.328125 250.816406 Z M 208.464844 235.515625 C 208.445312 235.039062 208.402344 234.558594 208.359375 234.082031 C 208.183594 234.101562 208.003906 234.121094 207.828125 234.144531 C 207.894531 234.617188 207.960938 235.089844 208.050781 235.558594 C 208.050781 235.570312 208.464844 235.523438 208.464844 235.515625 Z M 123.199219 184.109375 C 123.125 185.128906 123.28125 185.210938 124.613281 184.679688 C 123.96875 184.421875 123.601562 184.269531 123.199219 184.109375 Z M 263.730469 262.75 C 263.730469 263.246094 263.730469 263.742188 263.730469 264.238281 C 263.820312 264.234375 263.910156 264.234375 264 264.230469 C 264 263.734375 264 263.242188 264 262.746094 C 263.910156 262.75 263.820312 262.75 263.730469 262.75 Z M 224.664062 218.246094 C 224.320312 218.097656 224.070312 217.890625 223.910156 217.945312 C 223.648438 218.035156 223.445312 218.296875 223.21875 218.484375 C 223.410156 218.664062 223.589844 218.972656 223.792969 218.988281 C 223.96875 219 224.171875 218.683594 224.664062 218.246094 Z M 258.039062 56.367188 C 257.664062 56.320312 257.289062 56.265625 256.914062 56.253906 C 256.886719 56.253906 256.847656 56.578125 256.816406 56.75 C 257.210938 56.804688 257.601562 56.859375 257.996094 56.917969 C 258.011719 56.734375 258.027344 56.550781 258.039062 56.367188 Z M 163.6875 245.777344 C 163.296875 245.867188 162.902344 245.9375 162.527344 246.070312 C 162.476562 246.089844 162.53125 246.40625 162.535156 246.585938 C 162.957031 246.519531 163.378906 246.453125 163.800781 246.390625 C 163.761719 246.183594 163.726562 245.980469 163.6875 245.777344 Z M 230.738281 232.03125 C 230.671875 232.460938 230.601562 232.886719 230.53125 233.3125 C 230.734375 233.34375 230.933594 233.371094 231.136719 233.398438 C 231.1875 232.964844 231.242188 232.539062 231.289062 232.105469 C 231.109375 232.082031 230.921875 232.054688 230.738281 232.03125 Z M 208.578125 184.910156 C 208.480469 184.417969 208.382812 183.925781 208.285156 183.429688 C 208.097656 183.464844 207.914062 183.503906 207.726562 183.539062 C 207.851562 184.039062 207.972656 184.535156 208.09375 185.03125 C 208.253906 184.992188 208.417969 184.953125 208.578125 184.910156 Z M 219.753906 62.996094 C 220.382812 64.085938 220.382812 64.085938 221.292969 62.996094 C 220.703125 62.996094 220.273438 62.996094 219.753906 62.996094 Z M 138.515625 120.859375 C 138.425781 120.355469 138.332031 119.851562 138.238281 119.347656 C 138.046875 119.390625 137.859375 119.429688 137.667969 119.472656 C 137.785156 119.972656 137.90625 120.472656 138.023438 120.972656 C 138.1875 120.933594 138.351562 120.898438 138.515625 120.859375 Z M 237.570312 206.917969 C 237.667969 206.917969 237.761719 206.917969 237.859375 206.917969 C 237.859375 206.414062 237.859375 205.910156 237.859375 205.40625 C 237.761719 205.40625 237.667969 205.40625 237.570312 205.40625 C 237.570312 205.910156 237.570312 206.414062 237.570312 206.917969 Z M 251.476562 267.125 C 251.464844 267.117188 251.453125 267.101562 251.445312 267.101562 C 251.078125 267.046875 250.707031 267.074219 250.332031 267.074219 C 250.332031 267.097656 250.339844 267.117188 250.339844 267.132812 C 250.363281 267.324219 250.382812 267.507812 250.398438 267.699219 C 250.816406 267.652344 251.230469 267.605469 251.648438 267.558594 C 251.589844 267.421875 251.542969 267.199219 251.476562 267.125 Z M 214.308594 253.675781 C 214.25 253.6875 214.265625 254.109375 214.242188 254.34375 C 214.648438 254.285156 215.050781 254.234375 215.457031 254.179688 C 215.445312 254.003906 215.433594 253.824219 215.421875 253.644531 C 215.050781 253.644531 214.671875 253.613281 214.308594 253.675781 Z M 171.527344 109.164062 C 171.273438 109.257812 171.035156 109.488281 170.882812 109.722656 C 170.839844 109.792969 171.117188 110.0625 171.550781 110.65625 C 171.757812 110.214844 171.96875 109.929688 172 109.628906 C 172.011719 109.476562 171.625 109.125 171.527344 109.164062 Z M 241.566406 258.503906 C 242.300781 258.398438 242.761719 258.328125 243.453125 258.230469 C 242.667969 257.375 242.195312 257.328125 241.566406 258.503906 Z M 175.523438 90.636719 C 175.160156 90.703125 174.785156 90.742188 174.4375 90.863281 C 174.371094 90.890625 174.433594 91.257812 174.433594 91.464844 C 174.832031 91.375 175.226562 91.28125 175.625 91.191406 C 175.589844 91.003906 175.558594 90.820312 175.523438 90.636719 Z M 156.773438 76.273438 C 156.605469 76.308594 156.433594 76.347656 156.265625 76.386719 C 156.375 76.90625 156.484375 77.429688 156.59375 77.949219 C 156.746094 77.914062 156.90625 77.886719 157.058594 77.851562 C 156.964844 77.328125 156.867188 76.800781 156.773438 76.273438 Z M 119.441406 255.082031 C 119.550781 255.082031 119.660156 255.082031 119.765625 255.082031 C 119.765625 254.527344 119.765625 253.972656 119.765625 253.417969 C 119.660156 253.425781 119.550781 253.433594 119.441406 253.441406 C 119.441406 253.988281 119.441406 254.535156 119.441406 255.082031 Z M 183.53125 261.847656 C 183.660156 261.839844 183.792969 261.835938 183.921875 261.828125 C 183.921875 261.273438 183.921875 260.714844 183.921875 260.160156 C 183.761719 260.164062 183.605469 260.167969 183.449219 260.171875 C 183.476562 260.730469 183.503906 261.289062 183.53125 261.847656 Z M 272.496094 59.410156 C 272.382812 59.417969 272.265625 59.425781 272.152344 59.4375 C 272.152344 60.007812 272.152344 60.578125 272.152344 61.148438 C 272.265625 61.148438 272.382812 61.148438 272.496094 61.144531 C 272.496094 60.566406 272.496094 59.984375 272.496094 59.410156 Z M 131.789062 190.203125 C 131.859375 190.757812 131.925781 191.3125 131.992188 191.867188 C 132.191406 191.84375 132.390625 191.816406 132.589844 191.792969 C 132.515625 191.238281 132.441406 190.683594 132.367188 190.128906 C 132.175781 190.152344 131.984375 190.179688 131.789062 190.203125 Z M 266.804688 264.308594 C 266.90625 264.886719 267 265.460938 267.125 266.027344 C 267.125 266.039062 267.609375 265.964844 267.609375 265.953125 C 267.554688 265.371094 267.472656 264.789062 267.390625 264.207031 C 267.199219 264.242188 267 264.277344 266.804688 264.308594 Z M 134.703125 223.960938 C 134.808594 223.1875 134.871094 222.753906 134.933594 222.316406 C 134.542969 222.375 134.15625 222.4375 133.523438 222.535156 C 133.980469 223.085938 134.199219 223.351562 134.703125 223.960938 Z M 182.007812 212.527344 C 182.554688 212.730469 183.105469 212.933594 183.65625 213.140625 C 183.703125 212.9375 183.75 212.734375 183.800781 212.535156 C 183.25 212.378906 182.699219 212.222656 182.148438 212.066406 C 182.101562 212.21875 182.054688 212.371094 182.007812 212.527344 Z M 218.980469 265.230469 C 219.085938 265.226562 219.195312 265.226562 219.304688 265.222656 C 219.304688 264.632812 219.304688 264.042969 219.304688 263.453125 C 219.195312 263.453125 219.085938 263.453125 218.980469 263.453125 C 218.980469 264.046875 218.980469 264.636719 218.980469 265.230469 Z M 270.652344 106.035156 C 270.699219 106.273438 270.769531 106.71875 270.796875 106.71875 C 271.222656 106.683594 271.644531 106.589844 272.066406 106.507812 C 272.03125 106.296875 272 106.089844 271.964844 105.878906 C 271.527344 105.929688 271.089844 105.980469 270.652344 106.035156 Z M 114.402344 146.3125 C 114.277344 146.324219 114.152344 146.332031 114.03125 146.34375 C 114.03125 146.957031 114.03125 147.574219 114.03125 148.191406 C 114.152344 148.191406 114.277344 148.191406 114.402344 148.191406 C 114.402344 147.566406 114.402344 146.941406 114.402344 146.3125 Z M 186.109375 103.988281 C 186.238281 103.996094 186.371094 104 186.5 104.003906 C 186.5625 103.460938 186.625 102.921875 186.6875 102.378906 C 185.515625 102.886719 185.765625 103.4375 186.109375 103.988281 Z M 124.042969 220.566406 C 124.085938 220.015625 124.140625 219.476562 124.15625 218.933594 C 124.15625 218.914062 123.8125 218.886719 123.625 218.863281 C 123.644531 219.410156 123.660156 219.953125 123.683594 220.5 C 123.683594 220.507812 123.753906 220.515625 124.042969 220.566406 Z M 257.578125 142.863281 C 257.46875 142.308594 257.359375 141.753906 257.246094 141.199219 C 257.0625 141.230469 256.878906 141.269531 256.691406 141.304688 C 256.789062 141.863281 256.886719 142.421875 256.988281 142.976562 C 257.183594 142.941406 257.382812 142.902344 257.578125 142.863281 Z M 280.277344 189.054688 C 280.074219 188.359375 279.933594 187.875 279.792969 187.394531 C 279.625 187.414062 279.464844 187.433594 279.300781 187.449219 C 279.277344 187.933594 279.21875 188.421875 279.269531 188.898438 C 279.273438 188.964844 279.796875 188.984375 280.277344 189.054688 Z M 171.011719 219.027344 C 171.125 219.054688 171.238281 219.085938 171.351562 219.121094 C 171.644531 218.890625 171.941406 218.664062 172.296875 218.386719 C 171.933594 218.003906 171.664062 217.722656 171.113281 217.140625 C 171.066406 218.007812 171.039062 218.519531 171.011719 219.027344 Z M 275.042969 228.871094 C 275.042969 228.214844 275.042969 227.558594 275.042969 226.902344 C 274.878906 226.90625 274.714844 226.914062 274.546875 226.925781 C 274.589844 227.585938 274.632812 228.242188 274.675781 228.902344 C 274.796875 228.890625 274.921875 228.882812 275.042969 228.871094 Z M 168.367188 253.730469 C 168.574219 253.136719 168.742188 252.640625 168.917969 252.140625 C 168.644531 252.171875 168.3125 252.113281 168.113281 252.25 C 167.578125 252.609375 167.308594 253.0625 168.367188 253.730469 Z M 112.042969 260.410156 C 112.128906 260.246094 112.210938 260.082031 112.292969 259.917969 C 111.664062 259.679688 111.035156 259.445312 110.402344 259.210938 C 110.511719 260.519531 111.429688 260.160156 112.042969 260.410156 Z M 120.054688 261.273438 C 120.378906 261.996094 120.585938 262.453125 120.789062 262.910156 C 120.980469 262.878906 121.164062 262.847656 121.351562 262.820312 C 121.273438 262.355469 121.253906 261.867188 121.078125 261.445312 C 121.023438 261.308594 120.546875 261.347656 120.054688 261.273438 Z M 205.871094 185.980469 C 205.871094 185.378906 205.871094 184.777344 205.871094 183.863281 C 204.828125 184.738281 205.3125 185.359375 205.871094 185.980469 Z M 186.582031 56.003906 C 186.515625 55.476562 186.453125 54.953125 186.371094 54.425781 C 186.363281 54.375 186.257812 54.335938 186.195312 54.289062 C 186.070312 54.304688 185.945312 54.316406 185.820312 54.328125 C 185.886719 54.902344 185.949219 55.472656 186.042969 56.035156 C 186.046875 56.058594 186.398438 56.019531 186.582031 56.003906 Z M 182.453125 80.925781 C 182.203125 80.722656 182.042969 80.59375 181.886719 80.464844 C 181.613281 80.9375 181.316406 81.402344 181.09375 81.898438 C 181.050781 82 181.304688 82.230469 181.417969 82.398438 C 181.742188 81.9375 182.070312 81.472656 182.453125 80.925781 Z M 179.863281 70.441406 C 179.347656 70.304688 178.648438 69.90625 178.519531 71.335938 C 179.246094 71.199219 179.808594 71.09375 180.375 70.988281 C 180.207031 70.800781 180.066406 70.496094 179.863281 70.441406 Z M 143.40625 241.765625 C 143.558594 241.792969 143.710938 241.824219 143.863281 241.851562 C 144.117188 241.570312 144.371094 241.292969 144.621094 241.007812 C 144.601562 240.855469 144.582031 240.703125 144.5625 240.554688 C 144.082031 240.511719 143.601562 240.464844 143.121094 240.421875 C 143.214844 240.871094 143.3125 241.316406 143.40625 241.765625 Z M 149.15625 168.460938 C 147.691406 169.324219 147.675781 169.621094 149.019531 170.5 C 149.066406 169.78125 149.101562 169.238281 149.15625 168.460938 Z M 164.757812 156.9375 C 164.292969 158.203125 164.332031 158.542969 164.980469 159.003906 C 165.527344 157.554688 165.496094 157.273438 164.757812 156.9375 Z M 145.332031 259.089844 C 145.417969 258.59375 145.550781 258.109375 145.742188 257.652344 C 145.632812 257.5625 145.511719 257.476562 145.367188 257.386719 C 144.773438 258.007812 144.570312 258.558594 145.332031 259.089844 Z M 173.433594 249.640625 C 173.390625 249.773438 173.683594 250.027344 173.824219 250.222656 C 174.113281 249.867188 174.398438 249.511719 174.765625 249.0625 C 174.476562 248.707031 174.300781 248.492188 174.128906 248.277344 C 173.886719 248.730469 173.601562 249.164062 173.433594 249.640625 Z M 274.546875 163.78125 C 274.496094 164.484375 274.328125 165.242188 275.390625 165.636719 C 275.355469 165.097656 275.34375 164.550781 275.273438 164.015625 C 275.25 163.863281 275.074219 163.6875 274.921875 163.609375 C 274.839844 163.570312 274.550781 163.707031 274.546875 163.78125 Z M 240.839844 185.167969 C 240.4375 183.871094 240.359375 183.84375 239.136719 184.621094 C 239.496094 185.476562 239.925781 186.027344 240.839844 185.167969 Z M 117.828125 148.277344 C 117.90625 148.742188 118.171875 149.175781 118.367188 149.625 C 118.601562 149.535156 118.835938 149.449219 119.070312 149.363281 C 118.941406 148.828125 118.8125 148.296875 118.683594 147.761719 C 118.382812 147.9375 117.808594 148.15625 117.828125 148.277344 Z M 149.859375 181.382812 C 149.453125 180.925781 149.035156 180.382812 148.375 181.078125 C 148.203125 181.261719 148.265625 181.65625 148.21875 181.957031 C 148.761719 181.929688 149.304688 181.898438 149.851562 181.871094 C 149.855469 181.707031 149.859375 181.546875 149.859375 181.382812 Z M 211.734375 256.875 C 211.9375 257.023438 212.332031 256.914062 212.636719 256.921875 C 212.515625 256.367188 212.390625 255.816406 212.269531 255.265625 C 211.480469 255.820312 210.949219 256.300781 211.734375 256.875 Z M 120.898438 88.023438 C 121.265625 88.550781 121.539062 89.132812 121.675781 89.101562 C 122.21875 88.984375 122.71875 88.671875 123.238281 88.429688 C 123.179688 88.292969 123.125 88.15625 123.066406 88.023438 C 122.460938 88.023438 121.855469 88.023438 120.898438 88.023438 Z M 247.035156 59.535156 C 247.253906 59.695312 247.65625 59.601562 247.972656 59.621094 C 247.871094 59.089844 247.765625 58.550781 247.660156 58.015625 C 247.488281 58.039062 247.316406 58.058594 247.148438 58.085938 C 246.851562 58.535156 246.269531 58.984375 247.035156 59.535156 Z M 152.695312 214.886719 C 152.886719 214.972656 153.078125 215.058594 153.265625 215.148438 C 153.683594 214.6875 154.105469 214.226562 154.523438 213.761719 C 154.023438 213.796875 153.488281 213.730469 153.050781 213.910156 C 152.835938 214 152.808594 214.546875 152.695312 214.886719 Z M 259.507812 251.894531 C 259.519531 251.679688 259.535156 251.464844 259.546875 251.25 C 258.992188 251.128906 258.445312 251.003906 257.894531 250.878906 C 257.914062 251.234375 257.890625 251.890625 257.949219 251.894531 C 258.460938 251.960938 258.988281 251.910156 259.507812 251.894531 Z M 220.816406 140.355469 C 220.792969 140.144531 220.773438 139.933594 220.75 139.722656 C 220.167969 139.710938 219.585938 139.699219 219 139.6875 C 219.078125 140.035156 219.15625 140.378906 219.230469 140.726562 C 219.757812 140.601562 220.289062 140.480469 220.816406 140.355469 Z M 239.429688 194.628906 C 239.207031 194.617188 238.984375 194.609375 238.765625 194.597656 C 238.691406 195.171875 238.617188 195.742188 238.542969 196.3125 C 238.867188 196.324219 239.195312 196.339844 239.519531 196.351562 C 239.492188 195.777344 239.460938 195.203125 239.429688 194.628906 Z M 159.613281 233.65625 C 159.359375 233.117188 158.996094 232.628906 158.675781 232.117188 C 158.546875 232.121094 158.414062 232.125 158.289062 232.132812 C 158.289062 232.441406 158.179688 232.8125 158.308594 233.050781 C 158.566406 233.515625 158.953125 233.90625 159.289062 234.332031 C 159.40625 234.101562 159.679688 233.800781 159.613281 233.65625 Z M 247.785156 199.390625 C 247.789062 199.511719 248.378906 199.609375 248.703125 199.714844 C 248.734375 199.167969 248.765625 198.625 248.800781 198.078125 C 248.542969 198.046875 248.285156 198.007812 248.03125 197.972656 C 247.933594 198.449219 247.765625 198.921875 247.785156 199.390625 Z M 133.8125 128.679688 C 134.167969 128.734375 134.527344 128.789062 134.882812 128.84375 C 134.882812 128.292969 134.882812 127.738281 134.882812 127.1875 C 134.625 127.152344 134.367188 127.113281 134.109375 127.082031 C 134.007812 127.613281 133.910156 128.148438 133.8125 128.679688 Z M 255.511719 215.757812 C 255.277344 215.730469 255.046875 215.703125 254.816406 215.671875 C 254.703125 216.171875 254.554688 216.664062 254.523438 217.167969 C 254.519531 217.230469 255.164062 217.328125 255.511719 217.414062 C 255.511719 216.859375 255.511719 216.308594 255.511719 215.757812 Z M 115.238281 260.226562 C 115.027344 260.128906 114.65625 260.375 114.359375 260.464844 C 114.578125 260.972656 114.796875 261.480469 115.085938 262.160156 C 115.902344 261.203125 116.0625 260.613281 115.238281 260.226562 Z M 219.601562 256.542969 C 220.460938 257.445312 220.636719 257.40625 221.429688 256.214844 C 220.6875 255.28125 220.121094 255.542969 219.601562 256.542969 Z M 192.816406 251.035156 C 192.960938 251.554688 193.105469 252.078125 193.25 252.597656 C 193.503906 252.550781 193.757812 252.5 194.015625 252.453125 C 193.960938 251.976562 193.96875 251.476562 193.808594 251.039062 C 193.765625 250.929688 193.164062 251.03125 192.816406 251.035156 Z M 174.125 98.460938 C 174.464844 98.226562 174.710938 98.054688 174.960938 97.882812 C 174.566406 97.679688 174.195312 97.363281 173.78125 97.3125 C 173.449219 97.269531 173.078125 97.539062 172.722656 97.671875 C 173.160156 97.917969 173.605469 98.167969 174.125 98.460938 Z M 122.578125 175.390625 C 122.492188 175.042969 122.4375 174.691406 122.40625 174.332031 C 122.261719 174.410156 122.125 174.496094 121.996094 174.59375 C 121.890625 174.671875 122.144531 175.226562 122.238281 175.59375 C 122.359375 175.523438 122.472656 175.453125 122.578125 175.390625 Z M 279.421875 211.429688 C 279 210.746094 278.660156 210.195312 278.320312 209.640625 C 278.15625 210.019531 277.898438 210.382812 277.839844 210.777344 C 277.699219 211.683594 278.246094 211.753906 279.421875 211.429688 Z M 236.925781 201.074219 C 236.898438 200.824219 236.871094 200.570312 236.839844 200.320312 C 236.246094 200.320312 235.648438 200.320312 235.054688 200.320312 C 235.113281 200.664062 235.1875 201.3125 235.234375 201.308594 C 235.800781 201.289062 236.363281 201.167969 236.925781 201.074219 Z M 115.433594 182.636719 C 115.652344 182.105469 115.683594 181.5 115.789062 180.925781 C 115.476562 180.992188 114.996094 180.960938 114.886719 181.148438 C 114.605469 181.613281 114.492188 182.179688 114.3125 182.703125 C 114.386719 182.808594 114.457031 182.917969 114.53125 183.027344 C 114.84375 182.902344 115.34375 182.851562 115.433594 182.636719 Z M 272.472656 117.789062 C 272.554688 117.550781 272.746094 117.28125 272.695312 117.074219 C 272.574219 116.578125 272.34375 116.113281 272.117188 115.539062 C 271.722656 115.714844 271.417969 115.851562 271.019531 116.03125 C 271.339844 116.632812 271.535156 117.082031 271.816406 117.464844 C 271.945312 117.640625 272.25 117.683594 272.472656 117.789062 Z M 263.59375 145.175781 C 264.09375 144.976562 264.601562 144.800781 265.085938 144.566406 C 265.347656 144.4375 265.554688 144.203125 265.863281 143.953125 C 265.621094 143.746094 265.421875 143.496094 265.351562 143.53125 C 264.675781 143.84375 264.015625 144.199219 263.378906 144.582031 C 263.34375 144.601562 263.515625 144.96875 263.59375 145.175781 Z M 288.191406 216.976562 C 288.335938 216.777344 288.644531 216.53125 288.605469 216.382812 C 288.433594 215.75 288.15625 215.144531 287.917969 214.527344 C 287.785156 214.539062 287.652344 214.550781 287.519531 214.5625 C 287.378906 214.800781 287.0625 215.121094 287.128906 215.253906 C 287.421875 215.855469 287.828125 216.40625 288.191406 216.976562 Z M 153.097656 218.980469 C 153.609375 219.910156 154.054688 220.03125 154.453125 219.3125 C 154.691406 218.878906 155.71875 218.457031 154.847656 217.941406 C 154.5625 217.777344 153.691406 218.613281 153.097656 218.980469 Z M 217.375 178.339844 C 217.414062 178.207031 217.449219 178.070312 217.480469 177.9375 C 216.929688 177.753906 216.375 177.570312 215.828125 177.390625 C 215.789062 177.773438 215.582031 178.273438 215.75 178.519531 C 216.394531 179.453125 216.851562 178.558594 217.375 178.339844 Z M 251.109375 55.257812 C 249.90625 56.339844 249.890625 56.484375 250.84375 57.414062 C 252.046875 56.722656 252.054688 56.671875 251.109375 55.257812 Z M 141.363281 97.835938 C 140.34375 97.449219 139.390625 97.085938 138.4375 96.722656 C 138.402344 96.828125 138.363281 96.941406 138.328125 97.050781 C 139.296875 98.246094 140.664062 98.699219 141.363281 97.835938 Z M 155.972656 241.320312 C 156.4375 240.921875 156.761719 240.648438 157.082031 240.371094 C 156.71875 240.191406 156.347656 239.863281 155.988281 239.871094 C 155.621094 239.882812 155.257812 240.222656 154.894531 240.417969 C 155.195312 240.667969 155.496094 240.917969 155.972656 241.320312 Z M 264.195312 190.339844 C 264.128906 189.8125 264.113281 189.277344 263.980469 188.769531 C 263.90625 188.476562 263.644531 188.234375 263.355469 187.800781 C 263.058594 188.1875 262.746094 188.433594 262.789062 188.566406 C 262.980469 189.167969 263.25 189.753906 263.554688 190.308594 C 263.609375 190.40625 263.972656 190.332031 264.195312 190.339844 Z M 205.816406 153.425781 C 205.839844 153.359375 205.859375 153.285156 205.878906 153.207031 C 205.644531 152.757812 205.480469 152.269531 205.394531 151.757812 C 205.15625 152.167969 204.910156 152.570312 204.773438 153.011719 C 204.699219 153.25 205.03125 153.617188 205.175781 153.921875 C 205.398438 153.761719 205.730469 153.644531 205.816406 153.425781 Z M 265.84375 178 C 265.84375 177.785156 265.644531 177.441406 265.46875 177.394531 C 265.289062 177.34375 264.90625 177.519531 264.824219 177.699219 C 264.585938 178.199219 264.453125 178.746094 264.253906 179.355469 C 265.46875 179.789062 265.855469 179.433594 265.84375 178 Z M 141.347656 83.449219 C 142.613281 85.449219 142.652344 85.46875 143.46875 84.65625 C 142.210938 82.5625 142.117188 82.511719 141.347656 83.449219 Z M 131.875 83.3125 C 131.664062 82.503906 131.453125 81.695312 131.214844 80.78125 C 130.710938 81.054688 130.4375 81.199219 130.011719 81.429688 C 130.421875 82.105469 130.714844 82.683594 131.105469 83.179688 C 131.222656 83.332031 131.609375 83.277344 131.875 83.3125 Z M 107.457031 152.546875 C 107.519531 152.390625 107.210938 152.09375 106.847656 151.496094 C 106.414062 152.457031 106.089844 153.066406 105.890625 153.714844 C 105.855469 153.828125 106.335938 154.105469 106.578125 154.304688 C 106.882812 153.722656 107.230469 153.15625 107.457031 152.546875 Z M 180.835938 234.59375 C 180.875 234.367188 180.648438 234.097656 180.542969 233.847656 C 180.300781 233.972656 179.957031 234.03125 179.832031 234.230469 C 179.539062 234.695312 179.351562 235.21875 179.089844 235.800781 C 179.476562 235.972656 179.820312 236.125 180.316406 236.351562 C 180.535156 235.648438 180.75 235.128906 180.835938 234.59375 Z M 189.355469 164 C 189.496094 164.023438 189.753906 163.402344 190.140625 162.789062 C 189.050781 162.703125 188.300781 162.636719 187.550781 162.621094 C 187.527344 162.621094 187.402344 163.289062 187.476562 163.328125 C 188.078125 163.609375 188.710938 163.882812 189.355469 164 Z M 255.128906 164.3125 C 255.625 164.378906 256.289062 164.808594 256.382812 163.804688 C 256.433594 163.257812 256.222656 162.6875 256.125 162.128906 C 255.679688 162.722656 255.230469 163.3125 254.78125 163.902344 C 254.898438 164.039062 255.015625 164.179688 255.128906 164.3125 Z M 154.957031 98.726562 C 155.894531 99.128906 156.457031 99.460938 157.0625 99.585938 C 157.273438 99.632812 157.589844 99.175781 157.859375 98.953125 C 157.242188 98.613281 156.648438 98.214844 155.996094 97.980469 C 155.820312 97.914062 155.464844 98.347656 154.957031 98.726562 Z M 174.679688 214.109375 C 174.503906 214.460938 174.464844 214.878906 174.308594 215.246094 C 173.941406 216.09375 174.398438 216.300781 175.242188 216.378906 C 175.375 215.613281 175.519531 214.949219 175.578125 214.28125 C 175.59375 214.074219 175.363281 213.84375 175.242188 213.625 C 175.050781 213.785156 174.785156 213.90625 174.679688 214.109375 Z M 263.347656 65.222656 C 263.390625 64.414062 263.375 63.601562 263.375 62.683594 C 262.785156 62.792969 262.484375 62.847656 262.070312 62.925781 C 262.203125 63.699219 262.28125 64.332031 262.429688 64.945312 C 262.472656 65.136719 262.671875 65.355469 262.855469 65.425781 C 262.980469 65.476562 263.347656 65.304688 263.347656 65.222656 Z M 154.570312 174.515625 C 154.871094 174.589844 155.308594 174.6875 155.667969 174.757812 C 155.761719 174.648438 155.859375 174.546875 155.957031 174.445312 C 155.351562 174.125 154.796875 173.71875 154.3125 173.238281 C 154.046875 173.261719 153.820312 173.5 153.683594 174.066406 C 154.007812 174.234375 154.273438 174.4375 154.570312 174.515625 Z M 124.683594 94.339844 C 124.621094 94.300781 124.53125 94.308594 124.285156 94.269531 C 124.152344 94.503906 123.921875 94.769531 123.832031 95.078125 C 123.671875 95.625 123.585938 96.195312 123.484375 96.757812 C 123.480469 96.789062 123.640625 96.894531 123.667969 96.875 C 124.015625 96.667969 124.566406 96.5 124.644531 96.207031 C 124.804688 95.621094 125.644531 94.960938 124.683594 94.339844 Z M 215.125 245.78125 C 215.753906 245.308594 216.308594 244.925781 216.816406 244.484375 C 216.890625 244.421875 216.945312 244.296875 216.972656 244.171875 C 216.878906 243.972656 216.800781 243.765625 216.738281 243.550781 C 216.65625 243.484375 216.570312 243.4375 216.492188 243.429688 C 215.550781 243.316406 214.640625 244.695312 215.125 245.78125 Z M 272.019531 193.867188 C 271.757812 194.089844 271.378906 194.265625 271.253906 194.550781 C 271.058594 195.011719 271.03125 195.546875 270.910156 196.140625 C 271.261719 196.265625 271.578125 196.382812 272.050781 196.558594 C 272.195312 195.804688 272.359375 195.261719 272.382812 194.710938 C 272.394531 194.4375 272.148438 194.148438 272.019531 193.867188 Z M 102.421875 110.792969 C 102.644531 110.382812 102.902344 109.980469 103.113281 109.566406 C 103.15625 109.265625 103.21875 108.964844 103.308594 108.679688 C 103.1875 108.472656 102.945312 108.230469 102.804688 108.015625 C 102.667969 108.0625 102.539062 108.109375 102.40625 108.15625 C 102.171875 108.785156 101.863281 109.394531 101.746094 110.042969 C 101.707031 110.246094 102.179688 110.542969 102.421875 110.792969 Z M 147.511719 247.09375 C 147.792969 246.839844 148.09375 246.609375 148.414062 246.402344 C 148.246094 246.226562 148.0625 246.027344 147.851562 245.808594 C 147.351562 246.292969 147.191406 246.570312 147.511719 247.09375 Z M 234.183594 217.925781 C 234.488281 217.417969 234.664062 216.835938 234.929688 216.210938 C 234.5625 216.03125 234.257812 215.882812 233.828125 215.671875 C 233.546875 216.402344 233.273438 216.953125 233.140625 217.53125 C 233.082031 217.789062 233.300781 218.109375 233.394531 218.398438 C 233.664062 218.246094 234.046875 218.160156 234.183594 217.925781 Z M 291.972656 169.671875 C 292.171875 168.46875 290.894531 169.042969 290.273438 168.851562 C 290.050781 168.785156 289.828125 168.746094 289.636719 168.78125 C 289.605469 169.113281 289.539062 169.4375 289.457031 169.757812 C 289.714844 169.816406 289.945312 169.875 290.171875 169.867188 C 290.800781 169.84375 291.804688 170.699219 291.972656 169.671875 Z M 106.152344 133.023438 C 106.253906 133.015625 106.355469 133.011719 106.457031 133 C 106.582031 132.984375 106.625 132.277344 106.789062 131.492188 C 106.574219 131.558594 106.378906 131.621094 106.183594 131.679688 C 105.816406 131.792969 105.480469 131.898438 105.167969 132 C 104.816406 132.113281 104.488281 132.222656 104.167969 132.339844 C 104.144531 132.347656 104.246094 132.9375 104.320312 132.945312 C 104.59375 132.972656 104.871094 132.996094 105.144531 133.015625 C 105.480469 133.039062 105.820312 133.042969 106.152344 133.023438 Z M 133.121094 213.6875 C 133.25 213.273438 133.359375 212.929688 133.484375 212.542969 C 132.582031 212.25 131.835938 212.007812 131.09375 211.769531 C 130.675781 212.796875 130.675781 212.796875 133.121094 213.6875 Z M 149.464844 135.695312 C 149.15625 136.4375 148.839844 137.191406 148.507812 137.988281 C 148.914062 138.160156 149.195312 138.28125 149.472656 138.398438 C 150.707031 136.496094 150.714844 135.953125 149.464844 135.695312 Z M 177.445312 264.832031 C 174.945312 266.457031 174.894531 266.527344 175.828125 267.394531 L 175.832031 267.398438 C 175.839844 267.398438 175.84375 267.394531 175.84375 267.394531 C 178.054688 265.855469 178.171875 265.667969 177.445312 264.832031 Z M 130.027344 116.796875 C 128.726562 114.488281 128.492188 114.347656 127.585938 115.40625 C 128.066406 116.054688 128.5625 116.714844 129.105469 117.441406 C 129.472656 117.183594 129.753906 116.988281 130.027344 116.796875 Z M 166.113281 115.625 C 166.09375 114.867188 165.957031 114.113281 165.820312 112.953125 C 165.316406 113.320312 164.820312 113.507812 164.808594 113.726562 C 164.773438 114.441406 164.875 115.171875 165.007812 115.886719 C 165.039062 116.050781 165.46875 116.308594 165.609375 116.25 C 165.835938 116.160156 166.117188 115.84375 166.113281 115.625 Z M 241.539062 229.074219 C 242.417969 227.617188 242.371094 227.371094 241.054688 226.449219 C 239.839844 227.320312 239.96875 228.011719 241.539062 229.074219 Z M 104.269531 208.632812 C 104.421875 208.863281 104.703125 209.136719 104.789062 209.109375 C 105.378906 208.921875 105.917969 208.578125 106.558594 208.246094 C 106.023438 207.605469 105.671875 207.183594 105.113281 206.519531 C 104.785156 207.125 104.480469 207.59375 104.285156 208.074219 C 104.246094 208.167969 104.203125 208.265625 104.171875 208.363281 C 104.15625 208.421875 104.199219 208.523438 104.269531 208.632812 Z M 271.089844 84.511719 C 271.394531 84.914062 271.695312 85.316406 272.0625 85.8125 C 272.707031 85.277344 273.246094 84.824219 273.773438 84.390625 C 273.042969 83.207031 272.765625 83.226562 271.089844 84.511719 Z M 122.082031 153.558594 C 122.195312 153.707031 122.308594 153.855469 122.410156 154.015625 C 122.539062 154.070312 122.671875 154.101562 122.753906 154.066406 C 123.5625 153.722656 124.347656 153.324219 125.117188 152.894531 C 125.261719 152.8125 125.371094 152.484375 125.328125 152.3125 C 125.285156 152.144531 125.027344 152.027344 124.863281 151.882812 C 123.925781 152.34375 123.054688 152.746094 122.214844 153.207031 C 122.144531 153.242188 122.09375 153.40625 122.082031 153.558594 Z M 165.054688 214.53125 C 165.3125 213.605469 165.585938 212.8125 165.734375 211.996094 C 165.777344 211.761719 165.472656 211.460938 165.328125 211.191406 C 165.105469 211.359375 164.773438 211.476562 164.683594 211.695312 C 164.394531 212.433594 164.1875 213.207031 163.964844 213.972656 C 163.945312 214.03125 164 214.117188 164.042969 214.25 C 164.308594 214.324219 164.605469 214.40625 165.054688 214.53125 Z M 197.707031 189.503906 C 197.179688 189.171875 196.585938 188.953125 195.691406 188.535156 C 196.011719 189.449219 196.125 190.0625 196.4375 190.546875 C 196.617188 190.828125 197.132812 191.058594 197.46875 191.023438 C 197.835938 190.988281 198.167969 190.617188 198.515625 190.394531 C 198.25 190.089844 198.035156 189.710938 197.707031 189.503906 Z M 252.804688 63.785156 C 253.582031 63.378906 254.308594 62.882812 255.054688 62.421875 C 255.070312 62.277344 255.085938 62.136719 255.105469 61.992188 C 254.671875 61.886719 254.167969 61.582031 253.828125 61.710938 C 253.207031 61.945312 252.652344 62.398438 252.136719 62.839844 C 251.976562 62.976562 251.90625 63.460938 252.023438 63.613281 C 252.148438 63.785156 252.609375 63.882812 252.804688 63.785156 Z M 104.511719 198.9375 C 104.84375 198.3125 105.160156 197.710938 105.480469 197.105469 C 105.15625 196.910156 104.851562 196.683594 104.574219 196.429688 C 104.570312 196.421875 104.5625 196.417969 104.558594 196.414062 C 104.214844 196.695312 103.886719 197.25 103.523438 198.097656 C 103.449219 198.269531 103.375 198.453125 103.296875 198.65625 C 103.363281 198.695312 103.4375 198.738281 103.507812 198.78125 C 103.757812 198.929688 104.019531 199.089844 104.332031 199.277344 C 104.394531 199.160156 104.453125 199.054688 104.511719 198.9375 Z M 115.300781 136.332031 C 114.492188 137.09375 113.796875 137.742188 112.957031 138.53125 C 113.363281 138.925781 113.660156 139.207031 113.894531 139.429688 C 114.714844 138.691406 115.429688 138.054688 116.300781 137.273438 C 115.933594 136.929688 115.652344 136.664062 115.300781 136.332031 Z M 106.503906 253.214844 C 105.753906 252.226562 105.082031 251.339844 104.308594 250.316406 C 103.925781 250.671875 103.671875 250.90625 103.398438 251.160156 C 104.152344 252.195312 104.785156 253.058594 105.492188 254.03125 C 105.882812 253.71875 106.164062 253.488281 106.503906 253.214844 Z M 223.953125 226.046875 C 224.488281 226.234375 224.984375 226.507812 225.421875 226.859375 C 225.871094 226.457031 226.304688 226.066406 226.816406 225.609375 C 226.363281 225.15625 226.007812 224.804688 225.71875 224.515625 C 225.066406 225.082031 224.519531 225.554688 223.953125 226.046875 Z M 179.914062 179.152344 C 179.625 180.140625 180.660156 181.140625 181.671875 180.894531 C 182.121094 180.785156 182.554688 180.613281 183.226562 180.394531 C 182.265625 179.789062 181.511719 179.265625 180.703125 178.839844 C 180.527344 178.75 179.964844 178.972656 179.914062 179.152344 Z M 163.710938 80.035156 C 163.488281 80.082031 163.171875 80.503906 163.191406 80.734375 C 163.269531 81.601562 163.464844 82.457031 163.617188 83.316406 C 164.707031 83.40625 165.039062 82.984375 164.785156 82.042969 C 164.648438 81.535156 164.625 80.992188 164.425781 80.519531 C 164.328125 80.28125 163.917969 79.992188 163.710938 80.035156 Z M 139.441406 74.410156 C 138.695312 74.546875 137.945312 74.660156 137.125 74.792969 C 137.175781 75.242188 137.214844 75.585938 137.269531 76.085938 C 138.464844 75.914062 139.480469 75.769531 140.464844 75.625 C 140.617188 74.660156 140.335938 74.25 139.441406 74.410156 Z M 241.714844 248.632812 C 241.40625 248.425781 241.085938 248.214844 240.671875 247.9375 C 240.039062 248.859375 239.453125 249.710938 238.824219 250.621094 C 239.796875 251.480469 240.882812 250.703125 241.714844 248.632812 Z M 147.316406 82.8125 C 146.957031 82.8125 146.609375 82.777344 146.261719 82.722656 C 146.910156 83.167969 147.570312 83.621094 148.257812 84.09375 C 148.515625 83.71875 148.71875 83.4375 148.964844 83.085938 C 148.792969 82.953125 148.628906 82.824219 148.476562 82.703125 C 148.097656 82.773438 147.710938 82.8125 147.316406 82.8125 Z M 259.332031 70.007812 C 259.070312 69.273438 258.808594 68.53125 258.546875 67.792969 C 258.378906 67.796875 258.207031 67.796875 258.039062 67.800781 C 258.039062 68.828125 257.882812 69.890625 258.117188 70.863281 C 258.199219 71.230469 258.96875 71.433594 259.519531 71.6875 C 259.390625 71.25 259.316406 70.789062 259.316406 70.3125 C 259.316406 70.210938 259.328125 70.109375 259.332031 70.007812 Z M 171.585938 142.707031 C 174.007812 143.074219 175.089844 142.191406 174.808594 139.945312 C 173.703125 140.984375 172.257812 141.308594 171.585938 142.707031 Z M 121.191406 120.164062 C 121.117188 120.203125 121.15625 120.742188 121.257812 120.789062 C 122.097656 121.152344 122.953125 121.480469 123.828125 121.75 C 123.925781 121.78125 124.273438 121.40625 124.3125 121.1875 C 124.4375 120.460938 123.621094 119.484375 122.675781 119.480469 C 122.335938 119.632812 121.746094 119.863281 121.191406 120.164062 Z M 157.230469 106.710938 C 157.089844 106.648438 156.949219 106.589844 156.808594 106.527344 C 156.089844 107.425781 155.367188 108.320312 154.542969 109.351562 C 155.285156 109.6875 155.886719 109.957031 156.78125 110.355469 C 156.949219 108.992188 157.089844 107.851562 157.230469 106.710938 Z M 172.859375 261.285156 C 172.289062 262.007812 171.816406 262.8125 171.207031 263.742188 C 171.71875 264.039062 172.117188 264.273438 172.609375 264.558594 C 173.097656 263.605469 173.570312 262.765625 173.949219 261.886719 C 174.050781 261.648438 173.871094 261.289062 173.820312 260.984375 C 173.492188 261.078125 173.035156 261.066406 172.859375 261.285156 Z M 198.261719 166.253906 C 197.507812 165.289062 196.796875 164.375 195.960938 163.300781 C 195.519531 163.6875 195.199219 163.964844 194.824219 164.296875 C 195.691406 165.277344 196.476562 166.171875 197.3125 167.117188 C 197.6875 166.777344 197.941406 166.542969 198.261719 166.253906 Z M 166.78125 237.023438 C 167.234375 236.046875 167.585938 235.019531 168.050781 233.816406 C 167.609375 233.652344 167.257812 233.515625 166.789062 233.339844 C 166.367188 234.472656 165.945312 235.5 165.628906 236.5625 C 165.546875 236.828125 165.804688 237.191406 165.90625 237.515625 C 166.207031 237.351562 166.664062 237.269531 166.78125 237.023438 Z M 248.503906 158.53125 C 248.621094 158.464844 248.742188 158.402344 248.859375 158.339844 C 248.976562 157.121094 249.097656 155.902344 249.214844 154.683594 C 249.046875 154.601562 248.878906 154.515625 248.710938 154.429688 C 248.128906 155.191406 247.269531 155.890625 247.070312 156.742188 C 246.964844 157.203125 247.992188 157.925781 248.503906 158.53125 Z M 105.707031 218.222656 C 104.984375 219.535156 106.113281 219.632812 106.847656 220.207031 C 107.015625 219.816406 107.175781 219.441406 107.328125 219.070312 C 106.816406 218.699219 106.355469 218.261719 105.960938 217.765625 C 105.882812 217.910156 105.800781 218.054688 105.707031 218.222656 Z M 106.289062 264.828125 C 107.226562 264.601562 107.347656 264.050781 106.859375 263.164062 C 106.628906 262.746094 106.472656 262.277344 106.34375 261.816406 C 106.023438 260.683594 105.425781 260.675781 104.527344 261.378906 C 104.976562 262.542969 105.421875 263.695312 105.855469 264.816406 C 106.003906 264.820312 106.144531 264.824219 106.289062 264.828125 Z M 198.480469 235.300781 C 198.773438 235.378906 199.402344 235.101562 199.492188 234.847656 C 199.722656 234.199219 198.179688 232.832031 197.511719 233.066406 C 196.789062 233.328125 196.105469 233.699219 195.15625 234.140625 C 196.453125 234.609375 197.449219 235.027344 198.480469 235.300781 Z M 197.8125 266.632812 C 198.589844 266.65625 199.367188 266.683594 200.144531 266.714844 C 200.289062 266.523438 200.433594 266.332031 200.585938 266.125 C 199.636719 265.65625 198.875 265.277344 198.0625 264.871094 C 197.964844 265.613281 197.875 266.183594 197.8125 266.632812 Z M 233.066406 200.292969 C 232.769531 199.796875 232.535156 199.398438 232.242188 198.914062 C 231.050781 199.707031 229.953125 200.429688 228.769531 201.21875 C 229.0625 201.683594 229.292969 202.039062 229.609375 202.539062 C 230.835938 201.738281 231.910156 201.042969 233.066406 200.292969 Z M 226.019531 141.058594 C 225.449219 139.371094 224.976562 137.96875 224.433594 136.351562 C 223.65625 137.289062 222.660156 137.925781 223.023438 139.050781 C 223.421875 140.273438 224.652344 140.539062 226.019531 141.058594 Z M 140.746094 85.855469 C 140.183594 85.183594 139.574219 85.339844 139.300781 85.917969 C 138.988281 86.589844 139 87.414062 138.871094 88.171875 C 139.421875 88.195312 139.988281 88.296875 140.527344 88.222656 C 141.109375 88.136719 141.671875 87.878906 142.535156 87.605469 C 141.816406 86.910156 141.226562 86.425781 140.746094 85.855469 Z M 116.089844 116.726562 C 115.511719 118.042969 114.996094 119.222656 114.433594 120.503906 C 115.695312 120.503906 116.726562 120.503906 118.003906 120.503906 C 117.207031 119.273438 117.605469 117.6875 116.089844 116.726562 Z M 197.417969 161.652344 C 198.21875 160.671875 198.851562 159.558594 199.5625 158.496094 C 198.738281 157.84375 198.195312 157.828125 197.691406 158.578125 C 197.015625 159.574219 196.304688 160.550781 195.5625 161.597656 C 196.597656 162.433594 196.722656 162.5 197.417969 161.652344 Z M 216.550781 201.550781 C 215.617188 200.292969 214.75 199.121094 213.832031 197.878906 C 213.269531 198.359375 212.859375 198.707031 212.375 199.113281 C 213.433594 200.28125 214.394531 201.34375 215.421875 202.480469 C 215.828125 202.148438 216.152344 201.882812 216.550781 201.550781 Z M 126.832031 261.222656 C 125.394531 261.464844 124.539062 263.367188 125.238281 264.878906 C 126.023438 264.335938 126.714844 263.863281 127.398438 263.378906 C 127.5625 263.265625 127.773438 263.144531 127.839844 262.976562 C 128.011719 262.546875 128.359375 261.878906 128.199219 261.691406 C 127.914062 261.371094 127.269531 261.148438 126.832031 261.222656 Z M 124.433594 131.5625 C 124.496094 131.371094 124.628906 131.183594 124.632812 130.992188 C 124.640625 130.742188 124.632812 130.378906 124.484375 130.269531 C 124.324219 130.152344 123.90625 130.179688 123.742188 130.3125 C 122.722656 131.160156 121.746094 132.050781 120.648438 133.023438 C 123.425781 134.1875 123.574219 134.121094 124.433594 131.5625 Z M 256.066406 73.675781 C 256.066406 73.765625 256.058594 73.851562 256.054688 73.941406 C 256.402344 74.480469 256.757812 75.027344 257.128906 75.601562 C 257.707031 74.746094 258.152344 74.09375 258.695312 73.296875 C 257.648438 72.691406 256.679688 72.128906 255.734375 71.582031 C 255.949219 72.246094 256.066406 72.949219 256.066406 73.675781 Z M 262.5625 93.464844 C 263.164062 93.625 263.640625 93.75 264.203125 93.898438 C 264.660156 92.097656 265.082031 90.4375 265.527344 88.691406 C 265.082031 88.527344 264.722656 88.394531 264.191406 88.199219 C 263.625 90.027344 263.109375 91.699219 262.5625 93.464844 Z M 117.960938 209.476562 C 119.195312 209.464844 120.523438 209.660156 121.636719 209.265625 C 122.265625 209.042969 122.542969 207.832031 122.976562 207.066406 C 122.886719 206.984375 122.800781 206.898438 122.710938 206.820312 C 121.164062 207.335938 119.617188 207.835938 118.082031 208.386719 C 117.886719 208.457031 117.734375 208.785156 117.675781 209.015625 C 117.648438 209.148438 117.859375 209.476562 117.960938 209.476562 Z M 249.828125 143.167969 C 248.011719 143.773438 246.546875 144.257812 244.867188 144.816406 C 245.832031 145.828125 246.652344 146.683594 247.632812 147.710938 C 248.386719 146.148438 249.035156 144.808594 249.828125 143.167969 Z M 206.160156 238.515625 C 205.394531 238.652344 205.242188 239.140625 205.429688 239.742188 C 205.761719 240.796875 206.179688 241.824219 206.6875 243.199219 C 207.679688 241.261719 208.5 239.648438 209.449219 237.796875 C 208.179688 238.078125 207.175781 238.332031 206.160156 238.515625 Z M 247.734375 170.503906 C 250.9375 169.945312 252.601562 168.089844 252.171875 166.320312 C 251.148438 166.769531 250.203125 167.179688 249.261719 167.601562 C 247.824219 168.246094 247.351562 169.152344 247.734375 170.503906 Z M 209.207031 196.777344 C 209.582031 196.75 209.945312 196.648438 210.316406 196.574219 C 210.109375 196.238281 209.933594 195.878906 209.6875 195.574219 C 209.488281 195.328125 209.207031 195.148438 208.957031 194.941406 C 206.613281 192.996094 206.394531 193 204.132812 194.984375 C 203.925781 195.167969 203.71875 195.355469 203.300781 195.734375 C 205.195312 196.070312 206.84375 196.367188 208.496094 196.664062 C 208.730469 196.707031 208.972656 196.800781 209.207031 196.777344 Z M 229.632812 50.289062 L 229.632812 47.070312 C 229.632812 45.359375 230.730469 42.117188 233.726562 40.613281 L 134.914062 32.160156 L 123.660156 31.195312 L 121.816406 52.738281 Z M 293.503906 45.726562 L 284.207031 154.363281 C 281.945312 153.234375 279.398438 152.59375 276.699219 152.59375 L 275.019531 152.59375 L 275.019531 49.261719 L 231.984375 50.234375 L 231.984375 47.070312 C 231.984375 45.757812 233.257812 42.160156 237.347656 42.160156 C 242 42.160156 242.5625 46.664062 242.613281 47.175781 C 242.671875 47.820312 243.246094 48.300781 243.886719 48.238281 C 244.53125 48.183594 245.011719 47.613281 244.953125 46.964844 C 244.816406 45.382812 243.996094 42.90625 241.988281 41.320312 L 293.503906 45.726562 " fill-opacity="1" fill-rule="nonzero"/></svg>