<svg xmlns="http://www.w3.org/2000/svg" height="24" viewBox="0 -960 960 960" width="24"><path d="M620-191.461 477.692-333.769 506-362.077l114 114 227.538-227.539 28.308 28.308L620-191.461ZM800-560h-40v-175.385q0-9.23-7.692-16.923Q744.615-760 735.385-760H640v89.231H320V-760h-95.385q-9.23 0-16.923 7.692Q200-744.615 200-735.385v510.77q0 9.23 7.692 16.923Q215.385-200 224.615-200H440v40H224.615q-26.846 0-45.731-18.884Q160-197.769 160-224.615v-510.77q0-26.846 18.884-45.731Q197.769-800 224.615-800h185.462q5.615-23.462 24.923-39.423 19.308-15.962 45-15.962 26.154 0 45.346 15.962 19.193 15.961 24.808 39.423h185.231q26.846 0 45.731 18.884Q800-762.231 800-735.385V-560ZM480-750.769q13.923 0 23.115-9.193 9.193-9.192 9.193-23.115 0-13.923-9.193-23.115-9.192-9.193-23.115-9.193-13.923 0-23.115 9.193-9.193 9.192-9.193 23.115 0 13.923 9.193 23.115 9.192 9.193 23.115 9.193Z"/></svg>