<svg xmlns="http://www.w3.org/2000/svg" xmlns:xlink="http://www.w3.org/1999/xlink" width="500" zoomAndPan="magnify" viewBox="0 0 375 374.999991" height="500" preserveAspectRatio="xMidYMid meet" version="1.0"><defs><clipPath id="364dd1bb66"><path d="M 4.863281 52 L 360.363281 52 L 360.363281 317.355469 L 4.863281 317.355469 Z M 4.863281 52 " clip-rule="nonzero"/></clipPath></defs><path fill="#ffffff" d="M 359.03125 315.820312 L 37.09375 315.820312 L 42 289.070312 L 7.851562 289.070312 C 64.625 216.359375 80.847656 78.191406 80.847656 78.191406 L 81.558594 72.570312 L 340.25 72.570312 Z M 359.03125 315.820312 " fill-opacity="1" fill-rule="nonzero"/><path fill="#214099" d="M 349.710938 71.289062 L 341.175781 108.925781 C 340.179688 113.125 336.691406 116.113281 332.707031 116.113281 L 95.078125 116.113281 C 89.671875 116.113281 85.542969 110.847656 86.46875 105.085938 L 92.445312 67.449219 C 93.15625 62.894531 96.785156 59.621094 101.054688 59.621094 L 341.246094 59.621094 C 346.867188 59.621094 351.0625 65.382812 349.710938 71.289062 Z M 349.710938 71.289062 " fill-opacity="1" fill-rule="nonzero"/><g clip-path="url(#364dd1bb66)"><path fill="#000000" d="M 246.832031 210.097656 L 276.785156 210.097656 L 276.785156 207.179688 L 247.757812 207.179688 L 260.492188 168.261719 L 291.796875 168.261719 L 291.796875 165.34375 L 261.417969 165.34375 L 271.023438 135.890625 L 268.25 134.964844 L 258.289062 165.34375 L 213.890625 165.34375 L 223.496094 135.890625 L 220.722656 134.964844 L 210.761719 165.34375 L 164.019531 165.34375 L 173.625 135.890625 L 170.847656 134.964844 L 160.886719 165.34375 L 119.550781 165.34375 L 129.15625 135.890625 L 126.382812 134.964844 L 116.421875 165.34375 L 87.109375 165.34375 L 87.109375 168.261719 L 115.425781 168.261719 L 102.691406 207.179688 L 72.238281 207.179688 L 72.238281 210.097656 L 101.90625 210.097656 L 89.386719 248.445312 L 55.734375 248.445312 L 55.734375 251.363281 L 88.390625 251.363281 L 81.347656 272.992188 L 84.121094 273.914062 L 91.519531 251.433594 L 132.855469 251.433594 L 125.8125 273.0625 L 128.585938 273.988281 L 135.914062 251.503906 L 182.730469 251.503906 L 175.6875 273.132812 L 178.460938 274.058594 L 185.789062 251.574219 L 230.183594 251.574219 L 223.140625 273.203125 L 225.917969 274.128906 L 233.316406 251.648438 L 260.28125 251.648438 L 260.28125 248.730469 L 234.242188 248.730469 Z M 213.039062 168.191406 L 257.433594 168.191406 L 244.699219 207.109375 L 200.304688 207.109375 Z M 163.164062 168.191406 L 209.910156 168.191406 L 197.171875 207.109375 L 150.429688 207.109375 Z M 118.699219 168.191406 L 160.035156 168.191406 L 147.300781 207.109375 L 105.960938 207.109375 Z M 133.851562 248.445312 L 92.515625 248.445312 L 105.039062 210.097656 L 146.375 210.097656 Z M 183.65625 248.445312 L 136.910156 248.445312 L 149.433594 210.097656 L 196.25 210.097656 Z M 231.179688 248.445312 L 186.785156 248.445312 L 199.308594 210.097656 L 243.703125 210.097656 Z M 341.742188 72.640625 L 342.027344 71.074219 L 323.101562 71.074219 C 320.828125 61.828125 314.210938 54.996094 305.601562 53.148438 C 293.578125 50.515625 281.410156 58.410156 277.285156 71.074219 L 263.835938 71.074219 C 261.488281 61.96875 254.875 55.140625 246.335938 53.289062 C 234.382812 50.65625 222.214844 58.484375 218.089844 71.074219 L 204.289062 71.074219 C 201.941406 62.039062 195.394531 55.351562 186.855469 53.503906 C 174.902344 50.871094 162.878906 58.625 158.683594 71.148438 L 145.308594 71.148438 C 142.886719 62.113281 136.34375 55.496094 127.875 53.644531 C 115.996094 51.011719 103.96875 58.765625 99.773438 71.148438 L 80.277344 71.148438 L 79.355469 78.121094 C 79.210938 79.472656 62.5625 216.570312 6.710938 288.144531 L 4.863281 290.492188 L 40.292969 290.492188 L 35.386719 317.316406 L 360.597656 317.316406 Z M 304.960938 55.992188 C 312.21875 57.628906 317.910156 63.320312 320.042969 71.074219 L 280.34375 71.074219 C 284.328125 60.402344 294.714844 53.789062 304.960938 55.992188 Z M 245.695312 56.207031 C 252.953125 57.769531 258.574219 63.464844 260.777344 71.148438 L 221.21875 71.148438 C 225.203125 60.476562 235.519531 53.929688 245.695312 56.207031 Z M 186.214844 56.347656 C 193.402344 57.914062 199.023438 63.535156 201.226562 71.148438 L 161.742188 71.148438 C 165.796875 60.617188 176.113281 54.144531 186.214844 56.347656 Z M 127.234375 56.492188 C 134.351562 58.054688 139.972656 63.605469 142.246094 71.074219 L 102.902344 71.074219 C 106.957031 60.6875 117.203125 54.285156 127.234375 56.492188 Z M 82.269531 78.402344 L 82.839844 74.0625 L 98.917969 74.0625 C 98.917969 74.136719 98.847656 74.277344 98.847656 74.347656 C 97.355469 81.25 98.351562 88.222656 101.621094 94.054688 C 104.964844 99.960938 110.230469 103.945312 116.492188 105.296875 L 117.132812 102.453125 C 111.726562 101.242188 107.101562 97.757812 104.183594 92.5625 C 101.265625 87.367188 100.34375 81.109375 101.695312 74.917969 C 101.765625 74.5625 101.835938 74.277344 101.90625 73.992188 L 157.828125 73.992188 C 157.828125 74.0625 157.828125 74.0625 157.757812 74.136719 C 156.261719 81.035156 157.257812 88.007812 160.53125 93.84375 C 163.875 99.75 169.140625 103.730469 175.402344 105.15625 L 176.042969 102.308594 C 170.5625 101.101562 166.011719 97.613281 163.09375 92.492188 C 160.175781 87.296875 159.25 81.035156 160.605469 74.847656 C 160.675781 74.5625 160.746094 74.347656 160.816406 74.0625 L 217.238281 74.0625 C 214.105469 88.292969 222.074219 102.238281 234.953125 105.011719 L 235.59375 102.167969 C 224.28125 99.675781 217.378906 87.367188 220.152344 74.703125 C 220.222656 74.492188 220.296875 74.277344 220.296875 74.0625 L 276.429688 74.0625 C 275.007812 80.894531 276.003906 87.796875 279.277344 93.628906 C 282.621094 99.535156 287.886719 103.519531 294.144531 104.871094 L 294.785156 102.023438 C 289.308594 100.816406 284.753906 97.328125 281.835938 92.136719 C 278.921875 86.941406 277.996094 80.679688 279.347656 74.492188 C 279.347656 74.347656 279.417969 74.207031 279.488281 74.0625 L 338.542969 74.0625 C 336.195312 85.945312 331.425781 103.519531 325.523438 123.582031 L 74.585938 123.582031 C 80.066406 97.117188 82.269531 78.902344 82.269531 78.402344 Z M 10.839844 287.574219 C 45.0625 242.253906 64.269531 172.816406 73.945312 126.5 L 324.597656 126.5 C 305.53125 190.390625 275.292969 277.332031 271.734375 287.574219 Z M 294.574219 314.328125 L 38.871094 314.328125 L 43.210938 290.492188 L 273.796875 290.492188 L 274.152344 289.496094 C 274.652344 288.144531 311.363281 183.203125 330.929688 115.1875 Z M 297.5625 314.328125 L 337.902344 93.773438 L 328.4375 314.328125 Z M 340.675781 97.1875 L 357.394531 314.328125 L 331.425781 314.328125 Z M 340.675781 97.1875 " fill-opacity="1" fill-rule="nonzero"/></g></svg>