<svg xmlns="http://www.w3.org/2000/svg" xmlns:xlink="http://www.w3.org/1999/xlink" width="500" zoomAndPan="magnify" viewBox="0 0 375 374.999991" height="500" preserveAspectRatio="xMidYMid meet" version="1.0"><path fill="#000000" d="M 246.59375 375.035156 L 128.40625 375.035156 C 76.296875 375.035156 52.355469 362.207031 32.433594 342.941406 C 32.304688 342.820312 32.171875 342.691406 32.050781 342.558594 C 12.8125 322.664062 0 298.738281 0 246.628906 L 0 128.40625 C 0 76.308594 12.8125 52.375 32.050781 32.460938 C 32.179688 32.324219 32.308594 32.195312 32.449219 32.0625 C 52.371094 12.820312 76.308594 0 128.40625 0 L 246.59375 0 C 298.65625 0 322.609375 12.8125 342.550781 32.058594 C 342.691406 32.1875 342.820312 32.316406 342.949219 32.453125 C 362.1875 52.347656 375 76.28125 375 128.40625 L 375 246.628906 C 375 298.738281 362.1875 322.664062 342.941406 342.566406 C 342.8125 342.695312 342.683594 342.828125 342.550781 342.957031 C 322.625 362.207031 298.671875 375.035156 246.59375 375.035156 Z M 55.03125 319.96875 C 67.054688 331.554688 82.738281 342.8125 128.40625 342.8125 L 246.59375 342.8125 C 292.234375 342.8125 307.933594 331.554688 319.96875 319.96875 C 331.542969 307.960938 342.777344 292.292969 342.777344 246.628906 L 342.777344 128.40625 C 342.777344 82.734375 331.542969 67.0625 319.976562 55.050781 C 307.933594 43.472656 292.21875 32.222656 246.59375 32.222656 L 128.40625 32.222656 C 82.753906 32.222656 67.0625 43.464844 55.03125 55.042969 C 43.457031 67.066406 32.222656 82.753906 32.222656 128.40625 L 32.222656 246.628906 C 32.222656 292.292969 43.457031 307.964844 55.03125 319.96875 Z M 297.105469 187.519531 C 297.105469 178.621094 289.894531 171.410156 280.996094 171.410156 L 94.003906 171.410156 C 85.105469 171.410156 77.894531 178.621094 77.894531 187.519531 C 77.894531 196.417969 85.105469 203.632812 94.003906 203.632812 L 280.988281 203.632812 C 289.886719 203.632812 297.105469 196.414062 297.105469 187.519531 Z M 203.664062 280.996094 L 203.664062 94.003906 C 203.664062 85.105469 196.453125 77.894531 187.554688 77.894531 C 178.65625 77.894531 171.445312 85.105469 171.445312 94.003906 L 171.445312 280.988281 C 171.445312 289.886719 178.65625 297.101562 187.554688 297.101562 C 196.453125 297.101562 203.664062 289.886719 203.664062 280.996094 Z M 203.664062 280.996094 " fill-opacity="1" fill-rule="nonzero"/></svg>