<svg xmlns="http://www.w3.org/2000/svg" xmlns:xlink="http://www.w3.org/1999/xlink" width="500" zoomAndPan="magnify" viewBox="0 0 375 374.999991" height="500" preserveAspectRatio="xMidYMid meet" version="1.0"><defs><clipPath id="35de825102"><path d="M 22.445312 22.445312 L 352.445312 22.445312 L 352.445312 352.445312 L 22.445312 352.445312 Z M 22.445312 22.445312 " clip-rule="nonzero"/></clipPath></defs><g clip-path="url(#35de825102)"><path fill="#000000" d="M 329.34375 62.042969 L 299.644531 62.042969 L 299.644531 29.042969 C 299.644531 25.402344 296.695312 22.445312 293.042969 22.445312 C 289.394531 22.445312 286.445312 25.402344 286.445312 29.042969 L 286.445312 62.042969 L 88.445312 62.042969 L 88.445312 29.042969 C 88.445312 25.402344 85.488281 22.445312 81.84375 22.445312 C 78.203125 22.445312 75.246094 25.402344 75.246094 29.042969 L 75.246094 62.042969 L 45.542969 62.042969 C 32.804688 62.042969 22.445312 72.40625 22.445312 85.144531 L 22.445312 329.34375 C 22.445312 342.082031 32.804688 352.445312 45.542969 352.445312 L 329.34375 352.445312 C 342.082031 352.445312 352.445312 342.082031 352.445312 329.34375 L 352.445312 85.144531 C 352.445312 72.40625 342.082031 62.042969 329.34375 62.042969 Z M 45.542969 75.246094 L 75.246094 75.246094 L 75.246094 95.042969 C 75.246094 98.6875 78.203125 101.644531 81.84375 101.644531 C 85.488281 101.644531 88.445312 98.6875 88.445312 95.042969 L 88.445312 75.246094 L 286.445312 75.246094 L 286.445312 95.042969 C 286.445312 98.6875 289.394531 101.644531 293.042969 101.644531 C 296.695312 101.644531 299.644531 98.6875 299.644531 95.042969 L 299.644531 75.246094 L 329.34375 75.246094 C 334.800781 75.246094 339.246094 79.6875 339.246094 85.144531 L 339.246094 128.042969 L 35.644531 128.042969 L 35.644531 85.144531 C 35.644531 79.6875 40.085938 75.246094 45.542969 75.246094 Z M 329.34375 339.246094 L 45.542969 339.246094 C 40.085938 339.246094 35.644531 334.800781 35.644531 329.34375 L 35.644531 141.246094 L 339.246094 141.246094 L 339.246094 329.34375 C 339.246094 334.800781 334.800781 339.246094 329.34375 339.246094 Z M 329.34375 339.246094 " fill-opacity="1" fill-rule="nonzero"/></g><path fill="#000000" d="M 68.644531 174.246094 L 95.042969 174.246094 L 95.042969 200.644531 L 68.644531 200.644531 Z M 68.644531 174.246094 " fill-opacity="1" fill-rule="nonzero"/><path fill="#000000" d="M 121.445312 174.246094 L 147.84375 174.246094 L 147.84375 200.644531 L 121.445312 200.644531 Z M 121.445312 174.246094 " fill-opacity="1" fill-rule="nonzero"/><path fill="#000000" d="M 174.246094 174.246094 L 200.644531 174.246094 L 200.644531 200.644531 L 174.246094 200.644531 Z M 174.246094 174.246094 " fill-opacity="1" fill-rule="nonzero"/><path fill="#000000" d="M 227.042969 174.246094 L 253.445312 174.246094 L 253.445312 200.644531 L 227.042969 200.644531 Z M 227.042969 174.246094 " fill-opacity="1" fill-rule="nonzero"/><path fill="#000000" d="M 279.84375 174.246094 L 306.246094 174.246094 L 306.246094 200.644531 L 279.84375 200.644531 Z M 279.84375 174.246094 " fill-opacity="1" fill-rule="nonzero"/><path fill="#000000" d="M 68.644531 227.042969 L 95.042969 227.042969 L 95.042969 253.445312 L 68.644531 253.445312 Z M 68.644531 227.042969 " fill-opacity="1" fill-rule="nonzero"/><path fill="#000000" d="M 121.445312 227.042969 L 147.84375 227.042969 L 147.84375 253.445312 L 121.445312 253.445312 Z M 121.445312 227.042969 " fill-opacity="1" fill-rule="nonzero"/><path fill="#000000" d="M 174.246094 227.042969 L 200.644531 227.042969 L 200.644531 253.445312 L 174.246094 253.445312 Z M 174.246094 227.042969 " fill-opacity="1" fill-rule="nonzero"/><path fill="#000000" d="M 227.042969 227.042969 L 253.445312 227.042969 L 253.445312 253.445312 L 227.042969 253.445312 Z M 227.042969 227.042969 " fill-opacity="1" fill-rule="nonzero"/><path fill="#000000" d="M 279.84375 227.042969 L 306.246094 227.042969 L 306.246094 253.445312 L 279.84375 253.445312 Z M 279.84375 227.042969 " fill-opacity="1" fill-rule="nonzero"/><path fill="#000000" d="M 68.644531 279.84375 L 95.042969 279.84375 L 95.042969 306.246094 L 68.644531 306.246094 Z M 68.644531 279.84375 " fill-opacity="1" fill-rule="nonzero"/><path fill="#000000" d="M 121.445312 279.84375 L 147.84375 279.84375 L 147.84375 306.246094 L 121.445312 306.246094 Z M 121.445312 279.84375 " fill-opacity="1" fill-rule="nonzero"/><path fill="#000000" d="M 174.246094 279.84375 L 200.644531 279.84375 L 200.644531 306.246094 L 174.246094 306.246094 Z M 174.246094 279.84375 " fill-opacity="1" fill-rule="nonzero"/><path fill="#000000" d="M 227.042969 279.84375 L 253.445312 279.84375 L 253.445312 306.246094 L 227.042969 306.246094 Z M 227.042969 279.84375 " fill-opacity="1" fill-rule="nonzero"/><path fill="#000000" d="M 279.84375 279.84375 L 306.246094 279.84375 L 306.246094 306.246094 L 279.84375 306.246094 Z M 279.84375 279.84375 " fill-opacity="1" fill-rule="nonzero"/></svg>