<svg xmlns="http://www.w3.org/2000/svg" xmlns:xlink="http://www.w3.org/1999/xlink" width="500" zoomAndPan="magnify" viewBox="0 0 375 374.999991" height="500" preserveAspectRatio="xMidYMid meet" version="1.0"><defs><clipPath id="7fd07a7e54"><path d="M 0 37.304688 L 338 37.304688 L 338 375 L 0 375 Z M 0 37.304688 " clip-rule="nonzero"/></clipPath><clipPath id="6ec0e0f9e3"><path d="M 262 0 L 375 0 L 375 112.726562 L 262 112.726562 Z M 262 0 " clip-rule="nonzero"/></clipPath></defs><g clip-path="url(#7fd07a7e54)"><path fill="#000000" d="M 300.015625 318.765625 C 299.898438 322.394531 298.726562 325.910156 296.644531 328.890625 L 211.890625 243.761719 L 225.203125 230.636719 C 227.878906 227.886719 231.675781 226.289062 235.515625 226.304688 C 237.433594 226.304688 239.339844 226.6875 241.109375 227.429688 C 242.878906 228.175781 244.484375 229.265625 245.828125 230.636719 L 300.015625 285.203125 Z M 56.257812 337.515625 C 46.148438 337.6875 37.339844 328.878906 37.507812 318.765625 L 37.507812 251.828125 L 91.699219 197.636719 C 94.4375 194.914062 98.148438 193.382812 102.011719 193.382812 C 105.875 193.382812 109.585938 194.914062 112.324219 197.636719 L 252.390625 337.515625 Z M 318.769531 150.011719 C 308.65625 149.839844 299.847656 158.652344 300.015625 168.761719 L 300.015625 232.136719 L 272.265625 204.386719 C 252.808594 184.316406 218.035156 184.316406 198.578125 204.386719 C 198.578125 204.386719 185.453125 217.699219 185.453125 217.699219 L 138.949219 171.011719 C 129.148438 161.292969 115.90625 155.832031 102.105469 155.832031 C 88.300781 155.832031 75.0625 161.292969 65.257812 171.011719 L 37.507812 198.953125 L 37.507812 93.757812 C 37.507812 88.789062 39.484375 84.015625 43 80.5 C 46.519531 76.984375 51.285156 75.007812 56.257812 75.007812 L 206.265625 75.007812 C 216.367188 75.191406 225.191406 66.359375 225.015625 56.253906 C 225.183594 46.160156 216.378906 37.328125 206.265625 37.503906 L 56.257812 37.503906 C 25.9375 37 -0.511719 63.421875 0.0078125 93.757812 C 0.0078125 93.757812 0.0078125 322.894531 0.0078125 322.894531 C -0.425781 350.847656 24.160156 375.472656 52.132812 375.019531 C 52.132812 375.019531 285.390625 375.019531 285.390625 375.019531 C 313.972656 375.023438 338.195312 351.988281 337.894531 323.078125 C 337.894531 323.078125 337.894531 168.761719 337.894531 168.761719 C 337.894531 166.269531 337.398438 163.796875 336.433594 161.496094 C 333.59375 154.527344 326.292969 149.777344 318.769531 150.011719 " fill-opacity="1" fill-rule="nonzero"/></g><g clip-path="url(#6ec0e0f9e3)"><path fill="#000000" d="M 356.269531 37.503906 L 337.519531 37.503906 L 337.519531 18.757812 C 337.691406 8.644531 328.878906 -0.164062 318.769531 0.0078125 C 308.660156 -0.164062 299.847656 8.644531 300.015625 18.757812 C 300.015625 18.757812 300.015625 37.503906 300.015625 37.503906 L 281.265625 37.503906 C 271.15625 37.335938 262.34375 46.148438 262.515625 56.253906 C 262.347656 66.367188 271.15625 75.179688 281.265625 75.007812 C 281.265625 75.007812 300.015625 75.007812 300.015625 75.007812 L 300.015625 93.757812 C 299.847656 103.871094 308.65625 112.679688 318.769531 112.507812 C 328.878906 112.679688 337.691406 103.871094 337.519531 93.757812 L 337.519531 75.007812 L 356.269531 75.007812 C 361.242188 75.007812 366.011719 73.03125 369.527344 69.515625 C 381.269531 57.710938 372.917969 37.550781 356.269531 37.503906 " fill-opacity="1" fill-rule="nonzero"/></g></svg>