<svg xmlns="http://www.w3.org/2000/svg" xmlns:xlink="http://www.w3.org/1999/xlink" width="500" zoomAndPan="magnify" viewBox="0 0 375 374.999991" height="500" preserveAspectRatio="xMidYMid meet" version="1.0"><defs><clipPath id="aa727b424c"><path d="M 21 21 L 353.875 21 L 353.875 353.875 L 21 353.875 Z M 21 21 " clip-rule="nonzero"/></clipPath><clipPath id="e7e4734644"><path d="M 20.875 20.875 L 353.875 20.875 L 353.875 353.875 L 20.875 353.875 Z M 20.875 20.875 " clip-rule="nonzero"/></clipPath></defs><g clip-path="url(#aa727b424c)"><path fill="#ffffff" d="M 331.589844 142.183594 L 232.8125 142.183594 L 232.8125 43.40625 C 232.8125 31.054688 222.796875 21.042969 210.445312 21.042969 L 164.519531 21.042969 C 152.167969 21.042969 142.15625 31.054688 142.15625 43.40625 L 142.15625 142.183594 L 43.375 142.183594 C 31.023438 142.183594 21.011719 152.199219 21.011719 164.550781 L 21.011719 210.476562 C 21.011719 222.828125 31.023438 232.84375 43.375 232.84375 L 142.15625 232.84375 L 142.15625 331.621094 C 142.15625 343.972656 152.167969 353.984375 164.519531 353.984375 L 210.445312 353.984375 C 222.796875 353.984375 232.8125 343.972656 232.8125 331.621094 L 232.8125 232.84375 L 331.589844 232.84375 C 343.941406 232.84375 353.953125 222.828125 353.953125 210.476562 L 353.953125 164.550781 C 353.953125 152.199219 343.941406 142.183594 331.589844 142.183594 " fill-opacity="1" fill-rule="nonzero"/></g><g clip-path="url(#e7e4734644)"><path stroke-linecap="butt" transform="matrix(0.0302813, 0, 0, -0.0302813, -115.330154, 490.326736)" fill="none" stroke-linejoin="miter" d="M 14758.927388 11496.955554 L 11496.939448 11496.955554 L 11496.939448 14758.943494 C 11496.939448 15166.83711 11166.187003 15497.460557 10758.293387 15497.460557 L 9241.656687 15497.460557 C 8833.763071 15497.460557 8503.139625 15166.83711 8503.139625 14758.943494 L 8503.139625 11496.955554 L 5241.022686 11496.955554 C 4833.12907 11496.955554 4502.505624 11166.203109 4502.505624 10758.309493 L 4502.505624 9241.672794 C 4502.505624 8833.779178 4833.12907 8503.026733 5241.022686 8503.026733 L 8503.139625 8503.026733 L 8503.139625 5241.038793 C 8503.139625 4833.145177 8833.763071 4502.52173 9241.656687 4502.52173 L 10758.293387 4502.52173 C 11166.187003 4502.52173 11496.939448 4833.145177 11496.939448 5241.038793 L 11496.939448 8503.026733 L 14758.927388 8503.026733 C 15166.821004 8503.026733 15497.44445 8833.779178 15497.44445 9241.672794 L 15497.44445 10758.309493 C 15497.44445 11166.203109 15166.821004 11496.955554 14758.927388 11496.955554 Z M 14758.927388 11496.955554 " stroke="#070707" stroke-width="10" stroke-opacity="1" stroke-miterlimit="10"/></g></svg>