<svg xmlns="http://www.w3.org/2000/svg" xmlns:xlink="http://www.w3.org/1999/xlink" width="500" zoomAndPan="magnify" viewBox="0 0 375 374.999991" height="500" preserveAspectRatio="xMidYMid meet" version="1.0"><path fill="#000000" d="M 312.222656 57.421875 C 290 35.234375 260.460938 23.035156 229.046875 23.035156 C 197.617188 23.035156 168.074219 35.234375 145.847656 57.421875 C 123.617188 79.589844 111.375 109.09375 111.375 140.46875 C 111.375 167.742188 120.660156 193.574219 137.675781 214.445312 L 114.964844 237.113281 L 109.792969 231.949219 L 40.894531 300.699219 L 68.472656 328.226562 L 137.347656 259.476562 L 132.195312 254.3125 L 154.90625 231.640625 C 175.816406 248.644531 201.695312 257.894531 229.019531 257.894531 C 260.449219 257.894531 289.992188 245.675781 312.222656 223.488281 C 358.101562 177.703125 358.101562 103.207031 312.222656 57.421875 Z M 299.519531 210.789062 C 280.6875 229.589844 255.664062 239.929688 229.019531 239.929688 C 202.390625 239.929688 177.371094 229.582031 158.535156 210.789062 C 139.722656 192.011719 129.351562 167.035156 129.351562 140.460938 C 129.351562 113.882812 139.722656 88.886719 158.546875 70.105469 C 177.359375 51.308594 202.382812 40.96875 229.027344 40.96875 C 255.65625 40.96875 280.675781 51.316406 299.511719 70.105469 C 338.367188 108.910156 338.367188 172.027344 299.519531 210.789062 Z M 299.519531 210.789062 " fill-opacity="1" fill-rule="nonzero"/><path fill="#000000" d="M 229.027344 54.347656 C 205.980469 54.347656 184.332031 63.320312 168.035156 79.570312 C 165.582031 82.019531 165.582031 86.007812 168.035156 88.457031 C 170.488281 90.90625 174.488281 90.90625 176.941406 88.457031 C 190.859375 74.566406 209.355469 66.933594 229.027344 66.933594 C 248.722656 66.933594 267.210938 74.566406 281.136719 88.457031 C 282.351562 89.691406 283.96875 90.296875 285.59375 90.296875 C 287.1875 90.296875 288.804688 89.691406 290.050781 88.457031 C 292.507812 86.007812 292.507812 82.019531 290.050781 79.570312 C 273.742188 63.320312 252.074219 54.347656 229.027344 54.347656 Z M 229.027344 54.347656 " fill-opacity="1" fill-rule="nonzero"/><path fill="#000000" d="M 24.738281 316.84375 C 17.703125 323.847656 17.703125 335.226562 24.738281 342.21875 L 26.875 344.371094 C 33.910156 351.371094 45.292969 351.371094 52.316406 344.371094 L 61.785156 334.921875 L 34.207031 307.394531 Z M 24.738281 316.84375 " fill-opacity="1" fill-rule="nonzero"/></svg>