<?xml version="1.0" standalone="no"?>
<!DOCTYPE svg PUBLIC "-//W3C//DTD SVG 20010904//EN"
 "http://www.w3.org/TR/2001/REC-SVG-20010904/DTD/svg10.dtd">
<svg version="1.0" xmlns="http://www.w3.org/2000/svg"
 width="187.000000pt" height="148.000000pt" viewBox="0 0 187.000000 148.000000"
 preserveAspectRatio="xMidYMid meet">

<g transform="translate(0.000000,148.000000) scale(0.100000,-0.100000)"
fill="#000000" stroke="none">
<path d="M885 1296 c-16 -8 -52 -37 -79 -65 l-50 -50 -72 6 c-87 7 -110 -4
-149 -72 -22 -36 -33 -45 -63 -51 -105 -17 -152 -56 -152 -126 0 -70 60 -398
77 -425 29 -44 123 -69 163 -44 10 7 19 2 32 -19 29 -48 65 -65 133 -64 46 0
71 6 99 24 32 19 40 21 52 9 10 -11 12 -23 5 -47 -16 -53 12 -117 61 -143 28
-15 360 -60 393 -53 38 8 71 28 89 57 21 32 126 373 126 410 0 18 -23 72 -59
136 l-59 106 -6 120 c-4 66 -12 136 -18 155 -34 111 -143 161 -243 110 l-40
-20 -86 30 c-97 34 -111 35 -154 16z m137 -52 c43 -14 78 -29 78 -32 -1 -4 -7
-18 -15 -32 -19 -33 -19 -70 0 -70 8 0 19 17 26 40 18 60 68 100 125 100 59 0
100 -24 124 -75 16 -34 20 -66 22 -179 l3 -137 -37 -34 c-48 -44 -103 -59
-162 -44 -67 17 -89 46 -94 124 -4 63 -3 66 31 100 42 42 92 47 145 15 18 -11
37 -18 43 -15 18 12 8 36 -23 55 -44 26 -122 27 -165 0 -96 -58 -96 -240 0
-298 78 -49 176 -38 247 28 24 22 44 39 46 38 24 -28 94 -167 94 -189 0 -15
-27 -112 -61 -215 -77 -238 -60 -226 -304 -193 -150 21 -173 27 -197 49 -28
26 -31 36 -29 81 1 26 2 27 80 30 63 3 86 9 110 27 24 17 44 22 94 22 67 0 95
13 76 37 -7 8 -32 13 -63 13 l-51 0 0 97 c0 91 -1 98 -20 98 -18 0 -20 -8 -25
-105 l-5 -104 -34 -23 c-37 -25 -109 -31 -155 -13 -47 18 -54 42 -72 273 -13
164 -21 220 -31 224 -8 3 -17 3 -20 -1 -3 -3 1 -105 10 -226 11 -143 13 -228
7 -244 -11 -30 -76 -51 -125 -42 -60 12 -70 35 -100 226 -15 96 -29 178 -32
183 -2 4 -11 7 -19 7 -19 0 -18 -20 7 -183 12 -76 19 -140 16 -143 -3 -4 -26
-9 -50 -11 -36 -4 -48 -1 -71 18 -24 22 -29 39 -56 199 -16 96 -30 192 -30
213 0 46 26 74 77 82 80 12 92 19 131 75 l38 55 85 -3 84 -3 65 66 c37 37 73
65 85 65 11 0 55 -12 97 -26z"/>
</g>
</svg>
