<svg xmlns="http://www.w3.org/2000/svg" xmlns:xlink="http://www.w3.org/1999/xlink" width="500" zoomAndPan="magnify" viewBox="0 0 375 374.999991" height="500" preserveAspectRatio="xMidYMid meet" version="1.0"><defs><clipPath id="891f62f6ee"><path d="M 31 8 L 344.4375 8 L 344.4375 367 L 31 367 Z M 31 8 " clip-rule="nonzero"/></clipPath></defs><g clip-path="url(#891f62f6ee)"><path fill="#000000" d="M 325.042969 346.078125 C 325.042969 347.105469 324.207031 347.941406 323.183594 347.941406 L 241.921875 347.941406 C 240.898438 347.941406 240.0625 347.105469 240.0625 346.078125 L 240.0625 221.28125 C 240.0625 209.765625 230.699219 200.402344 219.183594 200.402344 L 156.34375 200.402344 C 144.832031 200.402344 135.464844 209.765625 135.464844 221.28125 L 135.464844 346.078125 C 135.464844 347.105469 134.628906 347.941406 133.605469 347.941406 L 52.34375 347.941406 C 51.320312 347.941406 50.488281 347.105469 50.488281 346.078125 L 50.488281 175.339844 C 50.488281 175.261719 50.484375 175.183594 50.484375 175.105469 L 50.132812 161.472656 C 50.050781 158.308594 51.320312 155.238281 53.621094 153.058594 L 185.890625 27.542969 C 186.246094 27.210938 186.6875 27.035156 187.175781 27.035156 C 187.660156 27.035156 188.105469 27.210938 188.460938 27.546875 L 321.191406 153.492188 C 323.363281 155.554688 324.601562 158.335938 324.679688 161.332031 L 325.042969 175.464844 Z M 31.472656 346.078125 C 31.472656 357.589844 40.835938 366.957031 52.34375 366.957031 L 133.605469 366.957031 C 145.121094 366.957031 154.484375 357.589844 154.484375 346.078125 L 154.484375 221.28125 C 154.484375 220.253906 155.320312 219.417969 156.34375 219.417969 L 219.183594 219.417969 C 220.210938 219.417969 221.046875 220.253906 221.046875 221.28125 L 221.046875 346.078125 C 221.046875 357.589844 230.414062 366.957031 241.921875 366.957031 L 323.183594 366.957031 C 334.695312 366.957031 344.0625 357.589844 344.0625 346.078125 L 344.0625 175.339844 C 344.0625 175.261719 344.0625 175.1875 344.058594 175.113281 L 343.691406 160.839844 C 343.480469 152.769531 340.140625 145.257812 334.28125 139.703125 L 201.542969 13.75 C 197.652344 10.050781 192.546875 8.015625 187.175781 8.015625 C 181.804688 8.015625 176.699219 10.050781 172.804688 13.75 L 40.527344 139.261719 C 34.328125 145.148438 30.898438 153.417969 31.121094 161.964844 L 31.472656 175.464844 L 31.472656 346.078125 " fill-opacity="1" fill-rule="nonzero"/></g></svg>