<svg xmlns="http://www.w3.org/2000/svg" xmlns:xlink="http://www.w3.org/1999/xlink" width="500" zoomAndPan="magnify" viewBox="0 0 375 374.999991" height="500" preserveAspectRatio="xMidYMid meet" version="1.0"><defs><clipPath id="e123a1c3dc"><path d="M 4.453125 56 L 73 56 L 73 319.730469 L 4.453125 319.730469 Z M 4.453125 56 " clip-rule="nonzero"/></clipPath><clipPath id="8a84b1b616"><path d="M 301 55.523438 L 370.453125 55.523438 L 370.453125 319.730469 L 301 319.730469 Z M 301 55.523438 " clip-rule="nonzero"/></clipPath></defs><path fill="#000000" d="M 132.46875 252.003906 C 130.238281 252.003906 128.007812 251.152344 126.308594 249.449219 C 109.972656 233.097656 100.980469 211.359375 100.980469 188.234375 C 100.980469 165.105469 109.972656 143.363281 126.308594 127.011719 C 129.710938 123.605469 135.226562 123.605469 138.628906 127.011719 C 142.035156 130.417969 142.035156 135.945312 138.632812 139.351562 C 125.589844 152.40625 118.40625 169.769531 118.40625 188.234375 C 118.40625 206.695312 125.589844 224.054688 138.632812 237.109375 C 142.035156 240.519531 142.035156 246.039062 138.632812 249.449219 C 136.929688 251.152344 134.695312 252.003906 132.46875 252.003906 " fill-opacity="1" fill-rule="nonzero"/><path fill="#000000" d="M 243.039062 251.390625 C 240.84375 251.390625 238.644531 250.5625 236.949219 248.902344 C 233.503906 245.535156 233.445312 240.011719 236.8125 236.566406 C 249.507812 223.574219 256.496094 206.410156 256.496094 188.234375 C 256.496094 169.480469 249.121094 151.929688 235.730469 138.8125 C 232.289062 135.441406 232.230469 129.921875 235.59375 126.476562 C 238.957031 123.03125 244.472656 122.96875 247.917969 126.339844 C 264.691406 142.765625 273.925781 164.746094 273.925781 188.234375 C 273.925781 210.996094 265.167969 232.496094 249.269531 248.765625 C 247.566406 250.515625 245.304688 251.390625 243.039062 251.390625 " fill-opacity="1" fill-rule="nonzero"/><path fill="#000000" d="M 109.109375 274.171875 C 106.859375 274.171875 104.605469 273.300781 102.898438 271.566406 C 80.910156 249.207031 68.800781 219.613281 68.800781 188.234375 C 68.800781 156.5 81.144531 126.671875 103.554688 104.234375 C 106.960938 100.828125 112.476562 100.828125 115.878906 104.234375 C 119.28125 107.644531 119.28125 113.164062 115.878906 116.574219 C 96.761719 135.714844 86.230469 161.164062 86.230469 188.234375 C 86.230469 215.003906 96.5625 240.25 115.320312 259.328125 C 118.695312 262.757812 118.65625 268.285156 115.222656 271.664062 C 113.527344 273.335938 111.316406 274.171875 109.109375 274.171875 " fill-opacity="1" fill-rule="nonzero"/><path fill="#000000" d="M 265.800781 274.167969 C 263.589844 274.167969 261.382812 273.335938 259.6875 271.660156 C 256.253906 268.28125 256.210938 262.757812 259.589844 259.320312 C 278.34375 240.246094 288.671875 215 288.671875 188.234375 C 288.671875 160.863281 277.945312 135.21875 258.464844 116.019531 C 255.035156 112.636719 254.992188 107.113281 258.371094 103.679688 C 261.746094 100.246094 267.261719 100.207031 270.695312 103.582031 C 293.527344 126.089844 306.101562 156.152344 306.101562 188.234375 C 306.101562 219.609375 293.992188 249.203125 272.007812 271.5625 C 270.300781 273.296875 268.050781 274.167969 265.800781 274.167969 " fill-opacity="1" fill-rule="nonzero"/><path fill="#000000" d="M 86.363281 296.957031 C 84.117188 296.957031 81.871094 296.089844 80.164062 294.363281 C 52.089844 265.917969 36.628906 228.226562 36.628906 188.234375 C 36.628906 147.898438 52.316406 109.976562 80.804688 81.457031 C 84.207031 78.050781 89.722656 78.050781 93.128906 81.457031 C 96.53125 84.863281 96.53125 90.386719 93.128906 93.796875 C 67.929688 119.019531 54.054688 152.558594 54.054688 188.234375 C 54.054688 223.605469 67.734375 256.941406 92.5625 282.101562 C 95.945312 285.527344 95.910156 291.050781 92.488281 294.4375 C 90.789062 296.117188 88.578125 296.957031 86.363281 296.957031 " fill-opacity="1" fill-rule="nonzero"/><path fill="#000000" d="M 288.546875 296.953125 C 286.332031 296.953125 284.117188 296.113281 282.421875 294.433594 C 278.996094 291.046875 278.964844 285.519531 282.347656 282.09375 C 307.175781 256.9375 320.847656 223.601562 320.847656 188.234375 C 320.847656 152.257812 306.769531 118.519531 281.207031 93.230469 C 277.785156 89.84375 277.753906 84.316406 281.136719 80.890625 C 284.515625 77.460938 290.035156 77.433594 293.457031 80.820312 C 322.359375 109.410156 338.277344 147.558594 338.277344 188.234375 C 338.277344 228.222656 322.816406 265.914062 294.746094 294.359375 C 293.039062 296.085938 290.792969 296.953125 288.546875 296.953125 " fill-opacity="1" fill-rule="nonzero"/><g clip-path="url(#e123a1c3dc)"><path fill="#000000" d="M 63.601562 319.726562 C 61.359375 319.726562 59.113281 318.863281 57.410156 317.140625 C 23.257812 282.613281 4.453125 236.832031 4.453125 188.234375 C 4.453125 139.292969 23.488281 93.28125 58.050781 58.679688 C 61.453125 55.269531 66.972656 55.269531 70.375 58.679688 C 73.777344 62.085938 73.777344 67.605469 70.375 71.015625 C 39.101562 102.324219 21.878906 143.953125 21.878906 188.234375 C 21.878906 232.203125 38.894531 273.625 69.792969 304.863281 C 73.183594 308.285156 73.152344 313.8125 69.734375 317.199219 C 68.035156 318.886719 65.820312 319.726562 63.601562 319.726562 " fill-opacity="1" fill-rule="nonzero"/></g><g clip-path="url(#8a84b1b616)"><path fill="#000000" d="M 311.296875 319.730469 C 309.082031 319.730469 306.863281 318.890625 305.167969 317.203125 C 301.746094 313.8125 301.71875 308.289062 305.105469 304.863281 C 336.003906 273.625 353.023438 232.203125 353.023438 188.234375 C 353.023438 143.652344 335.597656 101.820312 303.957031 70.445312 C 300.539062 67.054688 300.511719 61.53125 303.898438 58.109375 C 307.28125 54.683594 312.800781 54.65625 316.222656 58.046875 C 351.191406 92.726562 370.453125 138.957031 370.453125 188.234375 C 370.453125 236.832031 351.644531 282.613281 317.492188 317.144531 C 315.785156 318.867188 313.542969 319.730469 311.296875 319.730469 " fill-opacity="1" fill-rule="nonzero"/></g><path fill="#000000" d="M 224.683594 188.832031 C 224.683594 209.589844 207.875 226.417969 187.144531 226.417969 C 166.414062 226.417969 149.609375 209.589844 149.609375 188.832031 C 149.609375 168.078125 166.414062 151.25 187.144531 151.25 C 207.875 151.25 224.683594 168.078125 224.683594 188.832031 " fill-opacity="1" fill-rule="nonzero"/></svg>