<svg xmlns="http://www.w3.org/2000/svg" xmlns:xlink="http://www.w3.org/1999/xlink" width="500" zoomAndPan="magnify" viewBox="0 0 375 374.999991" height="500" preserveAspectRatio="xMidYMid meet" version="1.0"><defs><clipPath id="f204e67972"><path d="M 0 19.0625 L 375 19.0625 L 375 355.8125 L 0 355.8125 Z M 0 19.0625 " clip-rule="nonzero"/></clipPath></defs><g clip-path="url(#f204e67972)"><path fill="#000000" d="M 374.882812 269.496094 C 374.882812 273.828125 374.800781 278.164062 374.914062 282.496094 C 374.988281 285.460938 374.074219 287.496094 371.199219 288.859375 C 355.238281 296.425781 339.332031 304.121094 323.421875 311.800781 C 319.070312 313.894531 314.722656 316.007812 310.425781 318.214844 C 295.140625 326.042969 279.851562 333.859375 264.636719 341.816406 C 259.898438 344.292969 255.710938 345.183594 250.105469 343.207031 C 238.027344 338.949219 225.484375 336.023438 213.136719 332.519531 C 194.546875 327.25 175.992188 321.808594 157.339844 316.75 C 150.121094 314.789062 142.695312 313.550781 135.3125 312.273438 C 133.695312 311.996094 131.746094 312.667969 130.144531 313.351562 C 108.078125 322.773438 86.082031 332.355469 63.976562 341.695312 C 58.773438 343.894531 53.226562 345.242188 47.894531 347.152344 C 41.777344 349.34375 35.734375 351.742188 29.644531 354 C 28.246094 354.523438 26.808594 355.035156 25.339844 355.28125 C 21.980469 355.851562 20.300781 354.824219 19.554688 351.433594 C 18.09375 344.765625 16.535156 338.09375 15.5625 331.351562 C 13.871094 319.652344 12.492188 307.902344 11.191406 296.148438 C 10.644531 291.195312 10.484375 286.179688 10.386719 281.1875 C 9.886719 256.015625 9.773438 230.828125 8.882812 205.671875 C 8.3125 189.527344 6.300781 173.464844 4.59375 157.386719 C 2.429688 137.019531 0.03125 116.605469 0.625 96.03125 C 0.804688 89.878906 0.550781 83.71875 0.699219 77.566406 C 0.730469 76.226562 1.410156 74.726562 2.21875 73.621094 C 2.96875 72.585938 4.203125 71.832031 5.355469 71.195312 C 16.289062 65.132812 27.046875 58.710938 38.242188 53.1875 C 53.921875 45.445312 69.847656 38.179688 85.847656 31.113281 C 94.371094 27.347656 103.265625 24.4375 111.996094 21.136719 C 117.152344 19.183594 122.460938 19.070312 127.71875 20.386719 C 145.816406 24.910156 163.875 29.59375 181.960938 34.183594 C 197.824219 38.210938 213.09375 43.980469 228.203125 50.175781 C 230.785156 51.234375 233.105469 51.433594 235.871094 50.515625 C 250.253906 45.730469 264.605469 40.785156 279.1875 36.644531 C 299.222656 30.949219 319.363281 25.550781 340.042969 22.582031 C 342.351562 22.25 344.679688 21.988281 347 21.765625 C 353.964844 21.105469 356.351562 22.730469 357.917969 29.625 C 358.726562 33.1875 359.273438 36.847656 359.558594 40.492188 C 360.679688 54.953125 361.519531 69.429688 362.71875 83.882812 C 364.515625 105.640625 366.566406 127.371094 368.414062 149.121094 C 368.878906 154.601562 368.976562 160.109375 369.222656 165.605469 C 370.4375 192.085938 371.589844 218.566406 372.878906 245.042969 C 373.273438 253.199219 374.007812 261.335938 374.585938 269.488281 C 374.683594 269.488281 374.789062 269.488281 374.882812 269.488281 Z M 29.003906 151.914062 C 28.636719 151.875 28.277344 151.832031 27.910156 151.792969 C 27.796875 150.753906 27.371094 149.625 27.632812 148.695312 C 28.222656 146.621094 28.859375 144.457031 30.003906 142.667969 C 37.726562 130.597656 45.535156 118.582031 53.425781 106.621094 C 55.089844 104.105469 57.769531 103.402344 60.519531 104.652344 C 63.371094 105.957031 66.285156 107.339844 68.730469 109.25 C 71.996094 111.792969 74.847656 114.878906 78.023438 117.871094 C 83.371094 109.832031 88.695312 101.824219 94.121094 93.664062 C 92.648438 92.519531 91.210938 91.40625 89.78125 90.289062 C 80.570312 83.074219 70.804688 76.785156 60.113281 71.929688 C 57.117188 70.566406 55.171875 70.949219 53.164062 73.292969 C 51.433594 75.320312 49.429688 77.109375 47.722656 79.160156 C 41.859375 86.210938 36.078125 93.328125 30.246094 100.410156 C 28.835938 102.125 27.625 104.234375 23.804688 103.933594 C 26.75 99.339844 28.996094 95.101562 31.921875 91.398438 C 38.128906 83.554688 44.628906 75.949219 51.121094 68.335938 C 54.4375 64.453125 56.101562 63.980469 60.710938 66.34375 C 67.078125 69.601562 73.367188 73.050781 79.417969 76.863281 C 85.59375 80.746094 91.433594 85.15625 97.328125 89.265625 C 97.835938 89.0625 98.21875 89.015625 98.421875 88.808594 C 99.117188 88.097656 99.753906 87.316406 100.417969 86.578125 C 104.820312 81.652344 105.578125 81.6875 111.171875 85.632812 C 113.34375 87.167969 115.175781 89.511719 118.410156 89.855469 C 117.925781 68.636719 117.4375 47.714844 116.953125 26.449219 C 115.527344 26.972656 114.285156 27.355469 113.101562 27.886719 C 89.367188 38.472656 65.519531 48.832031 41.949219 59.78125 C 30.628906 65.035156 19.816406 71.40625 8.785156 77.296875 C 8.21875 77.601562 7.753906 78.113281 7.070312 78.664062 C 7.070312 79.90625 7.003906 81.234375 7.078125 82.550781 C 8.261719 102.019531 9.453125 121.488281 10.65625 140.957031 C 11.023438 146.945312 11.257812 152.9375 11.832031 158.914062 C 13.554688 176.667969 16.257812 194.367188 17.023438 212.152344 C 18.046875 236.128906 17.589844 260.160156 17.847656 284.171875 C 17.898438 288.835938 18.109375 293.515625 18.59375 298.148438 C 19.6875 308.589844 20.945312 319.007812 22.25 329.421875 C 22.96875 335.125 23.753906 340.835938 25.503906 345.863281 C 59.800781 335.296875 91.964844 320.769531 124.875 306.148438 C 124.597656 299.980469 124.566406 293.335938 123.945312 286.742188 C 122.628906 272.820312 120.949219 258.933594 119.542969 245.019531 C 119.207031 241.710938 119.40625 238.351562 119.21875 235.027344 C 118.589844 223.890625 117.761719 212.757812 117.289062 201.613281 C 117.042969 195.789062 117.46875 189.945312 117.417969 184.105469 C 117.328125 172.9375 116.972656 161.769531 117.003906 150.605469 C 117.027344 141.613281 117.4375 132.625 117.691406 123.636719 C 117.925781 115.640625 118.21875 107.640625 118.390625 99.644531 C 118.410156 98.554688 118.308594 96.988281 117.625 96.421875 C 113.957031 93.410156 110.085938 90.648438 106.09375 87.65625 C 97.542969 99.308594 87.847656 109.257812 80.628906 121.390625 C 84.808594 126.066406 88.6875 130.410156 92.566406 134.75 C 93.34375 135.617188 94.300781 136.382812 94.832031 137.378906 C 95.140625 137.9375 95.027344 139.136719 94.609375 139.5625 C 94.167969 140.011719 92.917969 140.253906 92.40625 139.9375 C 91.148438 139.175781 90.070312 138.089844 89 137.046875 C 81.101562 129.382812 73.246094 121.675781 65.332031 114.023438 C 63.054688 111.824219 60.382812 110.246094 56.632812 109.257812 C 47.398438 123.507812 38.191406 137.714844 28.988281 151.921875 Z M 257.761719 89.1875 C 259.546875 86.800781 261.550781 84.210938 263.4375 81.539062 C 267.46875 75.828125 271.195312 69.894531 275.496094 64.390625 C 279.253906 59.578125 280.984375 59.675781 285.78125 63.628906 C 289.511719 66.703125 293.246094 69.765625 296.910156 72.917969 C 300.1875 75.738281 303.46875 78.574219 306.507812 81.636719 C 307.167969 82.304688 306.808594 83.972656 306.917969 85.175781 C 305.714844 85.175781 304.195312 85.664062 303.355469 85.109375 C 300.429688 83.207031 297.703125 80.992188 294.96875 78.816406 C 290.207031 75.019531 285.496094 71.164062 280.472656 67.101562 C 273.824219 75.34375 267.347656 83.253906 262.375 92.476562 C 264.601562 94.121094 266.480469 95.246094 267.96875 96.757812 C 268.5625 97.355469 268.636719 98.933594 268.292969 99.8125 C 268.074219 100.355469 266.546875 100.792969 265.761719 100.613281 C 264.503906 100.328125 263.296875 99.601562 262.1875 98.882812 C 258.128906 96.253906 254.167969 93.484375 250.074219 90.917969 C 247.871094 89.542969 245.476562 88.472656 242.367188 86.847656 C 242.667969 90.28125 242.839844 92.738281 243.09375 95.175781 C 243.539062 99.316406 244.257812 103.441406 244.464844 107.59375 C 245.453125 127.234375 246.148438 146.890625 247.242188 166.523438 C 248.222656 184.152344 249.609375 201.757812 250.769531 219.375 C 250.957031 222.207031 250.988281 225.042969 250.925781 227.878906 C 250.867188 230.714844 252.492188 232.496094 254.886719 232.878906 C 257.769531 233.34375 259.710938 234.953125 261.710938 236.703125 C 268.207031 242.398438 274.691406 248.101562 281.207031 253.785156 C 281.527344 254.070312 282.074219 254.089844 282.726562 254.308594 C 283.601562 251.898438 284.449219 249.59375 285.289062 247.28125 C 287.445312 241.351562 289.464844 235.363281 291.800781 229.503906 C 294.945312 221.621094 298.078125 213.71875 301.707031 206.058594 C 304.320312 200.558594 306.972656 199.886719 312.722656 201.996094 C 313.964844 202.453125 315.195312 203.019531 316.316406 203.726562 C 322.402344 207.496094 328.542969 211.21875 334.503906 215.191406 C 337.828125 217.40625 340.882812 220.027344 343.976562 222.566406 C 345.40625 223.738281 346.671875 225.148438 344.808594 227.714844 C 343.257812 226.914062 341.664062 226.210938 340.195312 225.296875 C 331.132812 219.667969 322.132812 213.949219 313.035156 208.378906 C 311.433594 207.398438 309.488281 206.972656 307.855469 206.351562 C 300.734375 216.570312 287.257812 254.503906 288.230469 261.308594 C 292.320312 259.621094 296.128906 261.097656 299.859375 262.488281 C 310.003906 266.285156 320.039062 270.347656 329.316406 276.050781 C 330.789062 276.957031 333.269531 277.488281 332.121094 279.890625 C 331.007812 282.234375 329 280.894531 327.339844 280.214844 C 327.03125 280.085938 326.738281 279.914062 326.441406 279.78125 C 320.046875 276.957031 313.710938 273.992188 307.242188 271.375 C 302.046875 269.269531 296.667969 267.59375 291.332031 265.707031 C 290.417969 267.046875 289.757812 267.804688 289.332031 268.671875 C 285.039062 277.511719 280.773438 286.367188 276.527344 295.230469 C 275.449219 297.480469 274.550781 299.824219 273.382812 302.023438 C 272.925781 302.894531 271.96875 303.507812 271.242188 304.242188 C 270.902344 304.089844 270.566406 303.949219 270.230469 303.800781 C 270.566406 301.777344 270.558594 299.621094 271.292969 297.757812 C 274.714844 289.097656 278.324219 280.507812 281.910156 271.90625 C 284.695312 265.238281 284.808594 265.035156 279.515625 259.871094 C 277.742188 258.140625 275.652344 256.578125 274.347656 254.53125 C 270.476562 248.449219 264.824219 244.449219 258.886719 240.796875 C 256.746094 239.480469 254.222656 238.785156 251.390625 237.609375 C 251.390625 240.085938 251.375 241.734375 251.390625 243.378906 C 251.496094 252.046875 251.960938 260.730469 251.644531 269.390625 C 250.898438 290.09375 252.246094 310.707031 253.734375 331.320312 C 253.847656 332.855469 254.394531 334.359375 254.851562 336.367188 C 291.59375 316.703125 328.417969 298.820312 365.882812 281.972656 C 365.882812 280.902344 365.921875 279.90625 365.882812 278.917969 C 365.382812 267.929688 364.84375 256.941406 364.347656 245.957031 C 363.277344 222.308594 362.199219 198.664062 361.191406 175.019531 C 360.867188 167.527344 361.070312 159.988281 360.457031 152.527344 C 358.667969 130.769531 356.332031 109.0625 354.714844 87.296875 C 353.378906 69.347656 352.757812 51.34375 351.824219 33.367188 C 351.742188 31.726562 351.671875 30.085938 351.597656 28.472656 C 339.925781 27.976562 251.085938 51.929688 239.851562 58.53125 C 240.371094 64.976562 241.027344 71.433594 241.335938 77.910156 C 241.464844 80.632812 242.527344 82.144531 244.953125 83.203125 C 249.0625 84.976562 253.082031 86.972656 257.777344 89.175781 Z M 122.71875 99.585938 C 122.582031 101.269531 122.460938 101.9375 122.484375 102.59375 C 122.640625 107.925781 123.070312 113.261719 122.941406 118.582031 C 122.65625 129.90625 121.855469 141.21875 121.675781 152.535156 C 121.4375 167.699219 121.398438 182.878906 121.625 198.042969 C 121.929688 218.882812 123.945312 239.609375 126.109375 260.332031 C 127.5625 274.226562 130.210938 288.035156 129.742188 302.109375 C 129.71875 302.738281 129.980469 303.378906 130.160156 304.261719 C 132.21875 304.261719 134.261719 303.898438 136.136719 304.324219 C 147.808594 306.996094 159.878906 307.734375 171.296875 311.753906 C 176.464844 313.574219 181.953125 314.472656 187.238281 315.984375 C 202.296875 320.289062 217.34375 324.609375 232.34375 329.089844 C 238.054688 330.796875 243.628906 332.976562 249.730469 335.101562 C 249.191406 327.542969 249.0625 320.371094 248.105469 313.304688 C 245.984375 297.675781 246.578125 282.039062 246.953125 266.367188 C 247.207031 255.730469 247.003906 245.085938 247.003906 234.773438 C 245.492188 233.835938 244.660156 233.28125 243.800781 232.796875 C 239.433594 230.320312 238.984375 230.332031 236.605469 234.976562 C 234.632812 238.820312 233.078125 242.878906 231.363281 246.851562 C 226.734375 257.5625 222.144531 268.28125 217.480469 278.980469 C 216.8125 280.507812 216.605469 282.773438 213.273438 282.0625 C 213.738281 279.980469 213.921875 277.855469 214.679688 275.949219 C 218.902344 265.257812 223.199219 254.59375 227.609375 243.980469 C 229.011719 240.601562 230.613281 237.273438 232.515625 234.160156 C 237.441406 226.082031 237.628906 226.089844 246.808594 227.648438 C 246.808594 225.933594 246.792969 224.292969 246.808594 222.65625 C 246.914062 211.972656 245.878906 201.375 244.960938 190.738281 C 243.460938 173.476562 242.921875 156.136719 241.777344 138.835938 C 240.730469 123.058594 240.421875 107.242188 237.898438 91.539062 C 236.976562 85.796875 235.171875 81.875 229.976562 79.535156 C 229.257812 79.210938 228.605469 78.742188 227.902344 78.328125 C 224.636719 81.996094 221.382812 85.335938 218.507812 88.988281 C 215.726562 92.519531 213.46875 96.449219 210.765625 100.042969 C 208.023438 103.6875 206.136719 108.058594 202.355469 110.976562 C 201.675781 110.34375 200.984375 109.984375 201.015625 109.683594 C 201.605469 103.328125 206.804688 99.0625 208.742188 93.472656 C 193.828125 80.640625 179.136719 68 163.953125 54.9375 C 152.324219 69.023438 140.164062 82.664062 130.863281 98.808594 C 132.160156 99.652344 133.453125 100.386719 134.636719 101.277344 C 140.875 105.992188 147.132812 110.695312 153.273438 115.535156 C 154.597656 116.585938 156.582031 118.214844 154.90625 120.078125 C 153.125 122.0625 151.648438 119.816406 150.292969 118.808594 C 144.011719 114.128906 137.835938 109.308594 131.492188 104.722656 C 128.984375 102.902344 126.132812 101.554688 122.726562 99.585938 Z M 125.652344 96.253906 C 130.765625 89.421875 135.617188 82.902344 140.515625 76.421875 C 145.832031 69.375 151.042969 62.242188 156.578125 55.363281 C 162.886719 47.519531 166.894531 47.582031 174.179688 54.699219 C 180.003906 60.386719 186.023438 65.886719 192.046875 71.367188 C 198.5 77.25 205.066406 83.015625 211.671875 88.914062 C 212.238281 88.253906 212.660156 87.753906 213.09375 87.265625 C 216.621094 83.285156 219.996094 79.144531 223.734375 75.363281 C 226.441406 72.632812 228.058594 72.691406 231.332031 74.527344 C 232.71875 75.304688 234.074219 76.128906 236.132812 77.332031 C 235.871094 71.546875 235.644531 66.605469 235.429688 61.667969 C 235.347656 59.757812 233.960938 59.28125 232.433594 58.882812 C 229.054688 58 225.632812 57.222656 222.324219 56.105469 C 208.292969 51.367188 194.285156 46.570312 180.296875 41.695312 C 162.347656 35.453125 144.078125 30.394531 125.480469 26.53125 C 123.929688 26.210938 122.296875 26.269531 120.292969 26.121094 C 120.292969 28.402344 120.214844 30.214844 120.304688 32.011719 C 120.613281 38.492188 121.09375 44.976562 121.289062 51.457031 C 121.667969 64.445312 121.929688 77.429688 122.171875 90.417969 C 122.222656 93.097656 122.558594 95.425781 125.667969 96.246094 Z M 125.652344 96.253906 " fill-opacity="1" fill-rule="nonzero"/></g><path fill="#000000" d="M 39.859375 241.15625 C 39.859375 243.074219 40.167969 244.359375 39.808594 245.4375 C 38.453125 249.503906 36.9375 253.523438 35.351562 257.503906 C 34.941406 258.53125 34.160156 259.53125 33.292969 260.214844 C 30.703125 262.25 27.460938 260.84375 27.054688 257.585938 C 26.972656 256.941406 27.039062 256.261719 27.152344 255.617188 C 27.96875 250.96875 33.960938 243.785156 39.859375 241.15625 Z M 39.859375 241.15625 " fill-opacity="1" fill-rule="nonzero"/><path fill="#000000" d="M 48.792969 228.140625 C 45.960938 228.011719 44.050781 225.671875 44.9375 223.171875 C 46.816406 217.828125 50.441406 213.71875 55.425781 211.050781 C 57.761719 209.808594 60.382812 211.929688 59.222656 214.128906 C 56.765625 218.761719 53.644531 223.050781 50.671875 227.398438 C 50.296875 227.945312 49.195312 228 48.800781 228.140625 Z M 48.792969 228.140625 " fill-opacity="1" fill-rule="nonzero"/><path fill="#000000" d="M 96.023438 181.21875 C 94.332031 179.953125 92.757812 179.25 91.9375 178.042969 C 90.746094 176.300781 91.5 174.316406 93.082031 173.214844 C 97.273438 170.289062 101.960938 168.777344 107.121094 169.765625 C 109.523438 170.230469 110.574219 172.503906 108.949219 173.613281 C 104.902344 176.359375 100.515625 178.621094 96.023438 181.21875 Z M 96.023438 181.21875 " fill-opacity="1" fill-rule="nonzero"/><path fill="#000000" d="M 77.132812 188.296875 C 78.945312 188.1875 80.074219 189.59375 79.078125 191.210938 C 76.992188 194.585938 74.675781 197.847656 72.207031 200.960938 C 71.113281 202.339844 69.339844 202.601562 67.683594 201.53125 C 66.050781 200.476562 65.730469 198.917969 66.195312 197.167969 C 66.890625 194.546875 74.429688 188.476562 77.132812 188.304688 Z M 77.132812 188.296875 " fill-opacity="1" fill-rule="nonzero"/><path fill="#000000" d="M 286.882812 130.238281 C 284.15625 127.765625 281.347656 125.207031 278.511719 122.667969 C 276.527344 120.894531 274.445312 119.21875 272.527344 117.378906 C 270.304688 115.253906 270.140625 113.890625 272.246094 111.980469 C 275.816406 108.738281 277.539062 107.316406 281.84375 111.546875 C 285.355469 114.996094 289.660156 117.65625 293.996094 120.949219 C 297.996094 115.804688 301.609375 111.082031 305.308594 106.425781 C 308.894531 101.90625 314.183594 102.625 316.59375 107.917969 C 317.542969 110.003906 316.796875 111.816406 315.492188 113.472656 C 312.828125 116.875 310.132812 120.265625 307.457031 123.671875 C 306.253906 125.214844 305.085938 126.785156 303.625 128.695312 C 307.601562 131.59375 311.179688 134.277344 314.847656 136.839844 C 319.417969 140.035156 320.113281 142.519531 317.558594 147.304688 C 317.171875 148.035156 316.757812 148.761719 316.308594 149.464844 C 314.0625 152.945312 312.222656 153.46875 308.984375 151.066406 C 306.597656 149.292969 304.480469 147.152344 302.34375 145.066406 C 300.339844 143.097656 298.480469 140.96875 296.28125 138.613281 C 295.1875 139.78125 294.25 140.632812 293.488281 141.621094 C 290.222656 145.828125 287.023438 150.09375 283.777344 154.308594 C 281.476562 157.289062 280.527344 157.625 277.523438 155.96875 C 271.355469 152.578125 267.632812 150.519531 275.195312 143.105469 C 279 139.375 282.554688 135.394531 286.210938 131.515625 C 286.425781 131.285156 286.515625 130.933594 286.882812 130.230469 Z M 286.882812 130.238281 " fill-opacity="1" fill-rule="nonzero"/><path fill="#000000" d="M 265.019531 133.777344 C 262.773438 132.878906 259.644531 131.792969 256.683594 130.347656 C 255.882812 129.953125 255.097656 128.402344 255.234375 127.519531 C 255.367188 126.636719 256.679688 125.273438 257.457031 125.273438 C 261.042969 125.296875 264.691406 125.433594 268.1875 126.136719 C 270.359375 126.570312 271.097656 128.710938 270.574219 130.941406 C 270.125 132.847656 268.207031 133.988281 265.019531 133.777344 Z M 265.019531 133.777344 " fill-opacity="1" fill-rule="nonzero"/><path fill="#000000" d="M 135.796875 241.039062 C 136.335938 238.359375 136.589844 235.859375 137.429688 233.566406 C 137.78125 232.617188 139.445312 231.507812 140.402344 231.597656 C 141.363281 231.695312 142.722656 233.066406 142.972656 234.105469 C 144.238281 239.441406 145.316406 244.824219 146.226562 250.238281 C 146.707031 253.035156 145.539062 254.890625 143.519531 255.453125 C 141.324219 256.058594 139.046875 254.953125 138.1875 252.101562 C 137.085938 248.46875 136.554688 244.667969 135.789062 241.039062 Z M 135.796875 241.039062 " fill-opacity="1" fill-rule="nonzero"/><path fill="#000000" d="M 167.089844 277.289062 C 162.949219 276.179688 158.644531 274.0625 155.855469 269.953125 C 155.09375 268.820312 155.4375 266.351562 156.15625 264.945312 C 157.046875 263.199219 159.136719 262.902344 160.980469 263.851562 C 164.207031 265.519531 167.386719 267.273438 170.53125 269.089844 C 172.390625 270.167969 173.550781 271.777344 172.800781 274.046875 C 172.023438 276.417969 170.121094 277.25 167.097656 277.28125 Z M 167.089844 277.289062 " fill-opacity="1" fill-rule="nonzero"/><path fill="#000000" d="M 162.695312 179.359375 C 159.886719 179.265625 158.230469 177.757812 158.464844 175.46875 C 158.621094 173.910156 159.195312 172.054688 160.261719 171.007812 C 163.089844 168.222656 166.242188 165.761719 169.363281 163.289062 C 170.097656 162.707031 171.230469 162.273438 172.136719 162.339844 C 173.175781 162.414062 174.578125 162.871094 175.070312 163.636719 C 175.566406 164.40625 175.570312 166.128906 175.019531 166.816406 C 171.902344 170.707031 168.617188 174.472656 165.246094 178.140625 C 164.542969 178.90625 163.234375 179.113281 162.699219 179.355469 Z M 162.695312 179.359375 " fill-opacity="1" fill-rule="nonzero"/><path fill="#000000" d="M 204.003906 138.125 C 205.058594 138.980469 206.382812 139.59375 206.871094 140.605469 C 207.265625 141.417969 207.042969 143.207031 206.40625 143.726562 C 202.429688 146.957031 198.363281 150.132812 194.058594 152.902344 C 193.160156 153.476562 190.71875 152.683594 189.730469 151.742188 C 188.96875 151.023438 188.726562 148.621094 189.347656 147.753906 C 192.890625 142.835938 198.265625 140.566406 203.996094 138.125 Z M 204.003906 138.125 " fill-opacity="1" fill-rule="nonzero"/><path fill="#000000" d="M 216.53125 233.898438 C 215.847656 236.523438 215.210938 239.609375 214.238281 242.585938 C 213.570312 244.628906 212.058594 246.050781 209.65625 245.371094 C 207.410156 244.734375 207.265625 242.847656 207.476562 240.925781 C 207.890625 237.121094 208.277344 233.328125 208.789062 229.539062 C 209.042969 227.65625 209.769531 225.761719 211.925781 225.550781 C 214.148438 225.335938 215.046875 227.128906 215.535156 228.988281 C 215.914062 230.425781 216.140625 231.90625 216.535156 233.898438 Z M 216.53125 233.898438 " fill-opacity="1" fill-rule="nonzero"/><path fill="#000000" d="M 138.816406 208.28125 C 139.273438 206.5625 139.324219 205.304688 139.902344 204.359375 C 141.804688 201.269531 143.726562 198.164062 146.019531 195.363281 C 146.707031 194.519531 148.746094 194.242188 149.933594 194.5625 C 150.570312 194.734375 151.273438 196.90625 150.976562 197.878906 C 149.769531 201.816406 148.371094 205.722656 146.664062 209.472656 C 145.808594 211.34375 143.816406 212.609375 141.699219 211.507812 C 140.433594 210.851562 139.652344 209.269531 138.816406 208.28125 Z M 138.816406 208.28125 " fill-opacity="1" fill-rule="nonzero"/><path fill="#000000" d="M 177.324219 177.683594 C 182.722656 179.449219 186.855469 182.078125 189.253906 186.710938 C 189.792969 187.746094 189.523438 189.890625 188.75 190.714844 C 188.007812 191.5 185.65625 191.898438 184.847656 191.316406 C 181.269531 188.726562 177.886719 185.828125 174.679688 182.789062 C 174.015625 182.160156 173.910156 180.167969 174.402344 179.292969 C 174.914062 178.402344 176.476562 178.109375 177.324219 177.683594 Z M 177.324219 177.683594 " fill-opacity="1" fill-rule="nonzero"/><path fill="#000000" d="M 210.949219 210.238281 C 210.539062 210.796875 209.917969 212.578125 208.847656 212.902344 C 207.515625 213.304688 205.074219 213.058594 204.40625 212.144531 C 201.875 208.6875 199.667969 204.945312 197.75 201.097656 C 196.800781 199.1875 198.15625 197.789062 200.175781 197.960938 C 204.183594 198.304688 210.882812 205.394531 210.949219 210.222656 Z M 210.949219 210.238281 " fill-opacity="1" fill-rule="nonzero"/><path fill="#000000" d="M 192.121094 268.597656 C 191.492188 268.171875 190.277344 267.75 189.859375 266.921875 C 189.582031 266.367188 190.21875 265.027344 190.824219 264.414062 C 193.242188 261.9375 195.757812 259.53125 198.34375 257.21875 C 200.484375 255.304688 202.609375 255.152344 204.128906 256.578125 C 205.808594 258.140625 205.65625 260.535156 203.390625 262.675781 C 200.347656 265.535156 196.90625 267.789062 192.121094 268.597656 Z M 192.121094 268.597656 " fill-opacity="1" fill-rule="nonzero"/><path fill="#000000" d="M 140.492188 161.585938 C 143.070312 162.617188 145.695312 163.554688 148.203125 164.734375 C 149.761719 165.46875 151.28125 166.859375 150.332031 168.628906 C 149.828125 169.570312 147.929688 170.214844 146.664062 170.199219 C 143.855469 170.175781 141.039062 169.691406 138.238281 169.324219 C 136.089844 169.046875 134.339844 168.1875 134.234375 165.695312 C 134.144531 163.589844 135.820312 162.332031 138.761719 162.144531 C 139.257812 162.117188 139.757812 162.144531 140.261719 162.144531 C 140.335938 161.957031 140.410156 161.769531 140.492188 161.585938 Z M 140.492188 161.585938 " fill-opacity="1" fill-rule="nonzero"/><path fill="#000000" d="M 235.351562 129.796875 C 232.289062 132.894531 228.433594 134.546875 224.265625 135.417969 C 222.542969 135.777344 220.730469 134.757812 220.601562 132.886719 C 220.503906 131.449219 221.042969 129.046875 221.988281 128.644531 C 224.300781 127.640625 226.988281 127.363281 229.558594 127.125 C 231.675781 126.921875 233.921875 126.988281 235.359375 129.804688 Z M 235.351562 129.796875 " fill-opacity="1" fill-rule="nonzero"/></svg>