<svg xmlns="http://www.w3.org/2000/svg" xmlns:xlink="http://www.w3.org/1999/xlink" width="500" zoomAndPan="magnify" viewBox="0 0 375 374.999991" height="500" preserveAspectRatio="xMidYMid meet" version="1.0"><defs><clipPath id="38ec1f09a7"><path d="M 0 140.625 L 375 140.625 L 375 234.375 L 0 234.375 Z M 0 140.625 " clip-rule="nonzero"/></clipPath></defs><g clip-path="url(#38ec1f09a7)"><path fill="#000000" d="M 46.875 140.625 C 20.976562 140.625 0 161.601562 0 187.5 C 0 213.398438 20.976562 234.375 46.875 234.375 C 72.773438 234.375 93.75 213.398438 93.75 187.5 C 93.75 161.601562 72.773438 140.625 46.875 140.625 Z M 328.125 140.625 C 302.226562 140.625 281.25 161.601562 281.25 187.5 C 281.25 213.398438 302.226562 234.375 328.125 234.375 C 354.023438 234.375 375 213.398438 375 187.5 C 375 161.601562 354.023438 140.625 328.125 140.625 Z M 187.5 140.625 C 161.601562 140.625 140.625 161.601562 140.625 187.5 C 140.625 213.398438 161.601562 234.375 187.5 234.375 C 213.398438 234.375 234.375 213.398438 234.375 187.5 C 234.375 161.601562 213.398438 140.625 187.5 140.625 Z M 187.5 140.625 " fill-opacity="1" fill-rule="nonzero"/></g></svg>