<svg xmlns="http://www.w3.org/2000/svg" xmlns:xlink="http://www.w3.org/1999/xlink" width="500" zoomAndPan="magnify" viewBox="0 0 375 374.999991" height="500" preserveAspectRatio="xMidYMid meet" version="1.0"><defs><clipPath id="1840f0968e"><path d="M 142 333 L 234 333 L 234 369.683594 L 142 369.683594 Z M 142 333 " clip-rule="nonzero"/></clipPath><clipPath id="5fb3ee79c3"><path d="M 22.089844 6 L 352.839844 6 L 352.839844 321 L 22.089844 321 Z M 22.089844 6 " clip-rule="nonzero"/></clipPath></defs><g clip-path="url(#1840f0968e)"><path fill="#000000" d="M 187.496094 353.320312 C 174.34375 353.320312 162.503906 345.546875 157.199219 333.488281 L 142.089844 340.101562 C 150.007812 358.117188 167.804688 369.8125 187.496094 369.8125 C 207.472656 369.8125 225.34375 357.972656 233.117188 339.589844 L 217.933594 333.125 C 212.703125 345.402344 200.789062 353.320312 187.496094 353.320312 Z M 187.496094 353.320312 " fill-opacity="1" fill-rule="nonzero"/></g><g clip-path="url(#5fb3ee79c3)"><path fill="#000000" d="M 349.648438 297.453125 L 306.058594 261.128906 C 304.171875 259.53125 303.082031 257.277344 303.082031 254.808594 L 303.082031 155.132812 C 303.082031 123.242188 290.367188 93.527344 267.265625 71.515625 C 253.679688 58.582031 237.550781 49.429688 220.113281 44.34375 C 220.476562 41.800781 220.621094 39.257812 220.40625 36.570312 C 219.167969 22.476562 208.78125 10.488281 195.121094 7.4375 C 185.097656 5.183594 174.78125 7.507812 166.863281 13.828125 C 159.015625 20.152344 154.511719 29.523438 154.511719 39.621094 C 154.511719 41.292969 154.800781 42.816406 155.019531 44.414062 C 106.78125 58.800781 71.910156 104.277344 71.910156 158.183594 L 71.910156 254.738281 C 71.910156 257.207031 70.820312 259.53125 68.929688 261.058594 L 25.339844 297.382812 C 23.453125 298.980469 22.363281 301.304688 22.363281 303.703125 L 22.363281 311.984375 C 22.363281 316.5625 26.066406 320.265625 30.644531 320.265625 L 344.34375 320.265625 C 348.921875 320.265625 352.628906 316.5625 352.628906 311.984375 L 352.628906 303.703125 C 352.554688 301.304688 351.464844 298.980469 349.648438 297.453125 Z M 170.929688 39.621094 C 170.929688 34.535156 173.183594 29.886719 177.105469 26.6875 C 181.101562 23.492188 186.113281 22.328125 191.417969 23.492188 C 198.027344 25.019531 203.257812 31.046875 203.914062 37.949219 C 203.984375 38.894531 203.839844 39.839844 203.769531 40.78125 C 196.574219 39.765625 189.3125 39.402344 181.828125 39.691406 C 178.195312 39.839844 174.5625 40.203125 171.003906 40.78125 C 171.074219 40.347656 170.929688 39.984375 170.929688 39.621094 Z M 43.503906 303.773438 L 79.464844 273.769531 C 85.132812 269.046875 88.398438 262.148438 88.398438 254.738281 L 88.398438 158.183594 C 88.398438 103.480469 129.8125 58.65625 182.699219 56.183594 C 210.160156 54.878906 236.097656 64.613281 255.859375 83.429688 C 275.617188 102.316406 286.515625 127.746094 286.515625 155.132812 L 286.515625 254.738281 C 286.515625 262.074219 289.785156 269.046875 295.453125 273.769531 L 331.414062 303.773438 Z M 43.503906 303.773438 " fill-opacity="1" fill-rule="nonzero"/></g></svg>