<svg xmlns="http://www.w3.org/2000/svg" xmlns:xlink="http://www.w3.org/1999/xlink" width="500" zoomAndPan="magnify" viewBox="0 0 375 374.999991" height="500" preserveAspectRatio="xMidYMid meet" version="1.0"><defs><clipPath id="25ec891c51"><path d="M 3 15.339844 L 375 15.339844 L 375 359.589844 L 3 359.589844 Z M 3 15.339844 " clip-rule="nonzero"/></clipPath></defs><rect x="-37.5" width="450" fill="#ffffff" y="-37.499999" height="449.999989" fill-opacity="1"/><rect x="-37.5" width="450" fill="#ffffff" y="-37.499999" height="449.999989" fill-opacity="1"/><g clip-path="url(#25ec891c51)"><path fill="#000000" d="M 11.792969 359.617188 C 11.488281 359.617188 11.179688 359.589844 10.871094 359.542969 C 8.476562 359.152344 6.582031 357.300781 6.140625 354.917969 C 5.507812 351.523438 0.136719 320.601562 5.683594 281.050781 C 8.839844 258.550781 14.925781 237.253906 23.769531 217.742188 C 34.722656 193.582031 49.980469 172.058594 69.113281 153.78125 C 111.648438 113.140625 161.125 99.554688 196.847656 95.535156 L 196.847656 21.546875 C 196.847656 19.253906 198.214844 17.179688 200.320312 16.269531 C 202.429688 15.363281 204.875 15.792969 206.542969 17.367188 L 373.035156 174.46875 C 374.1875 175.554688 374.839844 177.066406 374.839844 178.648438 C 374.839844 180.230469 374.1875 181.742188 373.035156 182.828125 L 206.542969 339.9375 C 204.875 341.511719 202.429688 341.945312 200.320312 341.035156 C 198.214844 340.128906 196.847656 338.054688 196.847656 335.757812 L 196.847656 247.996094 C 164.355469 248.648438 133.503906 256.359375 105.058594 270.945312 C 55.527344 296.34375 28.515625 335.546875 16.820312 356.652344 C 15.796875 358.5 13.859375 359.617188 11.792969 359.617188 Z M 208.347656 34.875 L 208.347656 100.726562 C 208.347656 103.699219 206.078125 106.183594 203.117188 106.449219 C 168.929688 109.550781 119.308594 121.722656 77.058594 162.089844 C 44.050781 193.621094 23.867188 234.183594 17.070312 282.648438 C 13.964844 304.804688 14.425781 324.019531 15.460938 336.761719 C 30.617188 313.832031 57.375 282.476562 99.8125 260.71875 C 131.214844 244.617188 165.382812 236.457031 201.378906 236.457031 C 201.796875 236.457031 202.207031 236.457031 202.628906 236.457031 C 205.789062 236.472656 208.347656 239.042969 208.347656 242.207031 L 208.347656 322.429688 L 360.714844 178.648438 Z M 208.347656 34.875 " fill-opacity="1" fill-rule="nonzero"/></g></svg>