<svg xmlns="http://www.w3.org/2000/svg" xmlns:xlink="http://www.w3.org/1999/xlink" width="500" zoomAndPan="magnify" viewBox="0 0 375 374.999991" height="500" preserveAspectRatio="xMidYMid meet" version="1.0"><path fill="#000000" d="M 64.300781 137.542969 C 61.507812 136.40625 58.625 135.566406 55.660156 135.019531 C 52.691406 134.472656 49.703125 134.234375 46.683594 134.296875 C 43.667969 134.363281 40.691406 134.734375 37.75 135.410156 C 34.8125 136.082031 31.96875 137.050781 29.226562 138.304688 C 12.199219 147.175781 0 164.929688 0 180.902344 C 0 199.414062 16.265625 219.703125 35.328125 225.53125 C 67.605469 235.164062 101.40625 201.441406 91.75 169.238281 C 90.570312 165.851562 89.082031 162.605469 87.285156 159.5 C 85.488281 156.394531 83.414062 153.484375 81.0625 150.773438 C 78.714844 148.058594 76.128906 145.589844 73.3125 143.367188 C 70.492188 141.140625 67.488281 139.199219 64.300781 137.542969 Z M 64.300781 137.542969 " fill-opacity="1" fill-rule="nonzero"/><path fill="#000000" d="M 167.234375 139.0625 C 160.765625 142.949219 155.089844 147.769531 150.207031 153.515625 C 118.4375 192.0625 169.523438 247.59375 211.203125 219.445312 C 236.109375 202.710938 240.683594 172.28125 221.625 151.234375 C 205.867188 133.738281 186.042969 129.425781 167.234375 139.0625 Z M 167.234375 139.0625 " fill-opacity="1" fill-rule="nonzero"/><path fill="#000000" d="M 369.796875 164.929688 C 359.375 140.078125 331.417969 127.652344 308.800781 137.542969 C 306.003906 138.859375 303.335938 140.402344 300.804688 142.179688 C 298.273438 143.953125 295.914062 145.933594 293.726562 148.113281 C 291.539062 150.296875 289.554688 152.652344 287.777344 155.175781 C 285.996094 157.703125 284.449219 160.363281 283.132812 163.15625 C 273.980469 185.46875 284.402344 210.828125 308.039062 223 C 330.148438 234.15625 357.34375 223.253906 368.78125 198.65625 C 369.492188 197.375 370.121094 196.058594 370.675781 194.707031 C 371.226562 193.351562 371.699219 191.96875 372.085938 190.558594 C 372.472656 189.148438 372.773438 187.722656 372.992188 186.277344 C 373.210938 184.828125 373.339844 183.375 373.382812 181.914062 C 373.429688 180.453125 373.386719 178.996094 373.253906 177.539062 C 373.125 176.082031 372.910156 174.636719 372.605469 173.207031 C 372.304688 171.777344 371.917969 170.371094 371.449219 168.984375 C 370.976562 167.601562 370.425781 166.246094 369.796875 164.929688 Z M 369.796875 164.929688 " fill-opacity="1" fill-rule="nonzero"/></svg>